{"_v":2,"glyphs":{"0":{"ha":482,"x_min":34,"x_max":447,"o":"m 240 -10 l 240 -10 q 172 -10 126 30 q 80 70 57 151 q 34 232 34 357 l 34 357 q 34 482 55 564 q 76 645 122 685 q 168 725 239 725 l 239 725 q 309 725 355 684 q 401 642 424 560 q 447 477 447 356 l 447 356 q 447 278 438 212 q 429 145 406 95 q 383 45 343 18 q 303 -10 240 -10 z m 240 122 l 240 122 q 256 122 267 134 q 278 146 285 174 q 292 201 295 246 q 298 291 298 356 l 298 356 q 298 422 295 468 q 292 514 285 541 q 278 568 267 581 q 256 593 240 593 l 240 593 q 225 593 214 580 q 203 567 197 539 q 190 511 187 466 q 183 421 183 357 l 183 357 q 183 292 186 247 q 189 202 196 175 q 202 147 213 135 q 224 122 240 122 z"},"1":{"ha":482,"x_min":41,"x_max":374,"o":"m 374 714 l 374 0 l 224 0 l 224 398 q 224 425 225 460 q 226 494 227 525 l 227 525 q 223 519 212 505 q 200 491 189 479 l 189 479 l 128 416 l 41 499 l 246 714 l 374 714 z"},"2":{"ha":482,"x_min":25,"x_max":447,"o":"m 447 0 l 25 0 l 25 104 l 177 305 q 219 359 242 396 q 265 432 275 461 q 284 489 284 520 l 284 520 q 284 545 276 560 q 267 574 253 581 q 239 588 220 588 l 220 588 q 189 588 159 576 q 128 564 95 541 l 95 541 l 29 652 q 57 670 88 687 q 118 703 154 714 q 189 724 231 724 l 231 724 q 291 724 337 700 q 382 675 408 633 q 434 590 434 533 l 434 533 q 434 485 420 443 q 406 400 374 352 q 342 303 288 236 l 288 236 l 210 138 l 210 133 l 447 133 l 447 0 z"},"3":{"ha":482,"x_min":31,"x_max":442,"o":"m 206 -10 l 206 -10 q 157 -10 112 -3 q 67 4 31 20 l 31 20 l 31 156 q 71 139 108 130 q 145 121 183 121 l 183 121 q 238 121 263 145 q 288 169 288 216 l 288 216 q 288 246 275 265 q 261 284 232 294 q 203 303 156 303 l 156 303 l 114 303 l 114 430 l 161 430 q 204 430 230 441 q 256 451 268 471 q 280 491 280 519 l 280 519 q 280 555 262 574 q 244 592 204 592 l 204 592 q 175 592 149 581 q 122 570 100 557 l 100 557 l 31 665 q 76 694 122 709 q 167 724 224 724 l 224 724 q 289 724 335 704 q 380 684 404 646 q 428 607 428 551 l 428 551 q 428 511 412 477 q 396 442 368 416 q 339 390 299 376 l 299 376 l 299 373 q 369 360 406 316 q 442 272 442 202 l 442 202 q 442 140 417 92 q 391 44 338 17 q 285 -10 206 -10 z"},"4":{"ha":482,"x_min":16,"x_max":466,"o":"m 398 0 l 250 0 l 250 142 l 16 142 l 16 258 l 256 714 l 398 714 l 398 265 l 466 265 l 466 142 l 398 142 l 398 0 z m 216 428 l 136 265 l 250 265 l 250 417 q 250 434 251 456 q 252 477 253 494 q 254 510 254 510 l 254 510 l 250 510 q 243 488 234 467 q 225 445 216 428 l 216 428 z"},"5":{"ha":482,"x_min":44,"x_max":440,"o":"m 197 -10 l 197 -10 q 159 -10 116 -1 q 73 7 44 20 l 44 20 l 44 157 q 72 142 106 132 q 140 122 184 122 l 184 122 q 219 122 242 135 q 265 148 277 172 q 289 196 289 232 l 289 232 q 289 279 265 306 q 240 332 188 332 l 188 332 q 166 332 143 328 q 119 324 101 318 l 101 318 l 51 362 l 72 714 l 399 714 l 399 579 l 201 579 l 193 457 q 205 458 219 460 q 232 461 251 461 l 251 461 q 311 461 353 433 q 395 405 418 357 q 440 308 440 243 l 440 243 q 440 164 414 108 q 388 51 335 21 q 281 -10 197 -10 z"},"6":{"ha":482,"x_min":32,"x_max":453,"o":"m 249 -10 l 249 -10 q 202 -10 163 10 q 123 30 94 70 q 64 109 48 169 q 32 229 32 309 l 32 309 q 32 370 40 430 q 47 489 66 542 q 84 595 117 636 q 150 676 200 700 q 250 723 321 723 l 321 723 q 343 723 370 721 q 396 719 417 715 l 417 715 l 417 583 q 399 588 379 590 q 359 592 340 592 l 340 592 q 279 592 243 570 q 206 547 189 502 q 172 457 170 388 l 170 388 l 174 388 q 185 415 202 433 q 218 451 241 461 q 264 471 292 471 l 292 471 q 342 471 379 443 q 415 415 434 364 q 453 312 453 240 l 453 240 q 453 165 429 108 q 404 51 359 21 q 314 -10 249 -10 z m 244 121 l 244 121 q 270 121 288 148 q 306 174 306 238 l 306 238 q 306 289 292 316 q 277 343 245 343 l 245 343 q 226 343 211 331 q 196 318 188 297 q 180 276 180 252 l 180 252 q 180 226 184 203 q 188 179 196 161 q 204 142 216 132 q 227 121 244 121 z"},"7":{"ha":482,"x_min":25,"x_max":451,"o":"m 246 0 l 88 0 l 299 579 l 25 579 l 25 713 l 451 713 l 451 610 l 246 0 z"},"8":{"ha":482,"x_min":28,"x_max":453,"o":"m 239 -9 l 239 -9 q 173 -9 126 14 q 79 36 54 80 q 28 123 28 183 l 28 183 q 28 225 41 259 q 53 293 78 321 q 103 349 140 373 l 140 373 q 110 398 89 426 q 68 453 58 484 q 47 515 47 552 l 47 552 q 47 606 72 644 q 96 682 140 703 q 183 723 240 723 l 240 723 q 301 723 344 703 q 387 683 411 645 q 435 607 435 551 l 435 551 q 435 512 423 480 q 411 448 389 422 q 367 396 333 376 l 333 376 q 374 348 401 319 q 427 289 440 256 q 453 223 453 186 l 453 186 q 453 125 426 81 q 399 37 351 14 q 302 -9 239 -9 z m 240 110 l 240 110 q 277 110 294 130 q 311 150 311 187 l 311 187 q 311 207 303 225 q 294 242 280 259 q 266 276 247 293 l 247 293 l 237 300 q 215 284 200 267 q 185 250 178 231 q 170 212 170 188 l 170 188 q 170 153 188 132 q 205 110 240 110 z m 238 451 l 238 451 q 255 464 267 477 q 279 490 286 507 q 293 523 293 544 l 293 544 q 293 572 280 588 q 266 604 242 604 l 242 604 q 219 604 204 589 q 188 573 188 544 l 188 544 q 188 525 195 508 q 202 491 213 477 q 224 463 238 451 z"},"9":{"ha":482,"x_min":29,"x_max":449,"o":"m 159 -10 l 159 -10 q 136 -10 111 -8 q 85 -6 64 -2 l 64 -2 l 64 131 q 82 126 102 124 q 122 121 141 121 l 141 121 q 187 121 219 135 q 251 148 271 175 q 290 201 300 239 q 310 277 311 325 l 311 325 l 306 325 q 295 300 279 282 q 263 263 241 253 q 218 242 188 242 l 188 242 q 138 242 103 271 q 67 299 48 351 q 29 402 29 473 l 29 473 q 29 549 53 605 q 76 661 122 692 q 167 723 232 723 l 232 723 q 279 723 319 704 q 359 684 388 645 q 417 606 433 548 q 449 490 449 412 l 449 412 q 449 347 441 285 q 432 223 413 170 q 393 116 360 76 q 326 35 277 13 q 227 -10 159 -10 z m 235 370 l 235 370 q 260 370 274 386 q 288 401 295 422 q 302 443 302 462 l 302 462 q 302 476 300 498 q 298 519 291 541 q 284 562 271 577 q 258 592 237 592 l 237 592 q 212 592 194 566 q 176 539 176 473 l 176 473 q 176 420 192 395 q 207 370 235 370 z"},"\r":{"ha":221,"x_min":0,"x_max":0,"o":""}," ":{"ha":221,"x_min":0,"x_max":0,"o":""},"ഀ":{"ha":0,"x_min":-424,"x_max":-133,"o":"m -424 711 l -424 711 q -424 779 -386 822 q -349 864 -279 864 l -279 864 q -208 864 -170 822 q -133 779 -133 711 l -133 711 q -133 643 -170 600 q -207 557 -279 557 l -279 557 q -350 557 -387 600 q -424 642 -424 711 z m -324 711 l -324 711 q -324 682 -313 664 q -303 645 -279 645 l -279 645 q -255 645 -244 664 q -233 682 -233 711 l -233 711 q -233 740 -244 758 q -255 776 -279 776 l -279 776 q -303 776 -313 758 q -324 740 -324 711 z"},"ഁ":{"ha":0,"x_min":-448,"x_max":-109,"o":"m -278 634 l -278 634 q -361 634 -404 679 q -448 724 -448 803 l -448 803 q -448 820 -445 836 q -443 852 -440 864 l -440 864 l -351 853 q -353 843 -354 832 q -356 820 -356 810 l -356 810 q -356 778 -346 759 q -337 740 -319 732 q -301 723 -278 723 l -278 723 q -258 723 -240 731 q -223 738 -212 758 q -201 777 -201 812 l -201 812 q -201 818 -202 831 q -203 843 -205 853 l -205 853 l -116 863 q -113 851 -111 837 q -109 822 -109 804 l -109 804 q -109 722 -151 678 q -194 634 -278 634 z m -279 750 l -279 750 q -305 750 -317 766 q -329 781 -329 806 l -329 806 q -329 830 -317 846 q -305 862 -279 862 l -279 862 q -252 862 -240 846 q -228 830 -228 806 l -228 806 q -228 781 -241 766 q -254 750 -279 750 z"},"ം":{"ha":423,"x_min":29,"x_max":394,"o":"m 212 -12 l 212 -12 q 152 -12 111 13 q 70 37 50 81 q 29 124 29 182 l 29 182 q 29 242 51 286 q 72 329 113 353 q 154 377 210 377 l 210 377 q 270 377 311 353 q 351 329 373 286 q 394 243 394 182 l 394 182 q 394 124 373 80 q 352 36 312 12 q 271 -12 212 -12 z m 211 269 l 211 269 q 189 269 175 251 q 160 232 160 181 l 160 181 q 160 134 174 115 q 188 95 212 95 l 212 95 q 234 95 249 114 q 263 132 263 182 l 263 182 q 263 232 249 251 q 235 269 211 269 z"},"ഃ":{"ha":313,"x_min":26,"x_max":286,"o":"m 26 438 l 26 438 q 26 500 60 539 q 94 577 155 577 l 155 577 q 218 577 252 539 q 286 500 286 438 l 286 438 q 286 377 253 339 q 219 300 156 300 l 156 300 q 93 300 60 338 q 26 376 26 438 z m 121 439 l 121 439 q 121 413 130 399 q 139 385 156 385 l 156 385 q 174 385 183 399 q 191 412 191 439 l 191 439 q 191 465 183 478 q 174 491 156 491 l 156 491 q 139 491 130 478 q 121 465 121 439 z m 26 127 l 26 127 q 26 188 60 227 q 94 266 155 266 l 155 266 q 216 266 251 228 q 286 189 286 127 l 286 127 q 286 65 253 27 q 219 -12 156 -12 l 156 -12 q 93 -12 60 27 q 26 65 26 127 z m 121 127 l 121 127 q 121 101 130 88 q 139 74 156 74 l 156 74 q 174 74 183 88 q 191 101 191 127 l 191 127 q 191 153 183 167 q 174 180 156 180 l 156 180 q 139 180 130 167 q 121 153 121 127 z"},"ഄ":{"ha":556,"x_min":33,"x_max":523,"o":"m 51 345 l 51 345 l 182 321 q 176 298 173 275 q 170 251 170 229 l 170 229 q 170 165 196 134 q 222 102 277 102 l 277 102 q 334 102 360 133 q 386 164 386 229 l 386 229 q 386 249 383 274 q 380 298 374 321 l 374 321 l 505 345 q 512 323 518 291 q 523 259 523 226 l 523 226 q 523 155 501 103 q 478 50 424 21 q 370 -9 277 -9 l 277 -9 q 186 -9 132 21 q 78 50 56 103 q 33 155 33 226 l 33 226 q 33 259 39 291 q 44 323 51 345 z m 222 190 l 222 422 l 334 422 l 334 190 l 222 190 z"},"അ":{"ha":1313,"x_min":33,"x_max":1281,"o":"m 326 577 l 326 577 q 367 577 417 569 q 466 560 505 539 l 505 539 q 516 535 523 527 q 529 519 539 514 l 539 514 q 560 502 584 485 q 608 467 626 440 q 644 412 644 370 l 644 370 q 644 342 636 321 q 627 299 609 283 q 591 266 562 255 l 562 255 l 558 268 q 602 255 629 220 q 656 185 656 137 l 656 137 q 656 97 639 63 q 621 29 581 9 q 541 -12 472 -12 l 472 -12 q 392 -12 345 20 q 298 51 278 107 q 258 163 258 238 l 258 238 q 258 297 274 349 q 289 400 320 442 q 350 483 396 512 l 396 512 q 404 517 408 524 q 411 530 419 534 l 419 534 q 454 554 497 566 q 539 577 586 577 l 586 577 q 641 577 681 566 q 720 554 750 532 q 780 509 803 477 l 803 477 l 854 238 l 854 0 l 713 0 l 713 295 q 713 359 704 393 q 695 426 671 447 l 671 447 q 655 460 633 467 q 610 473 583 473 l 583 473 q 563 473 544 469 q 524 465 509 460 l 509 460 q 483 451 461 431 q 439 410 424 381 q 409 351 401 315 q 393 279 393 236 l 393 236 q 393 155 411 126 q 428 96 463 96 l 463 96 q 490 96 504 109 q 517 122 517 147 l 517 147 q 517 172 501 188 q 485 204 450 204 l 450 204 l 441 204 l 441 312 l 449 312 q 479 312 494 328 q 509 343 509 369 l 509 369 q 509 399 488 424 q 467 448 423 459 l 423 459 q 407 468 385 471 q 363 473 344 473 l 344 473 q 286 473 250 450 q 213 427 195 386 q 177 345 177 291 l 177 291 q 177 244 187 203 q 196 162 213 126 q 230 89 252 53 l 252 53 l 143 -12 q 111 27 87 72 q 62 117 48 172 q 33 227 33 297 l 33 297 q 33 343 47 392 q 60 441 92 483 q 124 525 182 551 q 239 577 326 577 z m 1088 -12 l 1088 -12 q 1023 -12 985 17 q 946 45 929 94 q 911 143 911 205 l 911 205 q 911 303 951 355 q 990 407 1065 407 l 1065 407 q 1108 407 1139 382 q 1170 357 1191 317 q 1212 277 1222 230 l 1222 230 l 1167 224 q 1163 246 1154 265 q 1145 283 1132 295 q 1118 306 1100 306 l 1100 306 q 1073 306 1061 282 q 1048 257 1048 200 l 1048 200 q 1048 164 1054 141 q 1059 118 1069 107 q 1079 96 1093 96 l 1093 96 q 1110 96 1121 108 q 1131 120 1137 150 q 1142 179 1142 232 l 1142 232 q 1142 251 1141 271 q 1140 291 1138 309 l 1138 309 q 1137 313 1138 320 q 1138 327 1137 330 l 1137 330 q 1133 365 1113 396 q 1093 426 1060 446 q 1027 465 981 465 l 981 465 q 954 465 935 461 q 916 457 899 444 l 899 444 q 884 434 874 418 q 864 401 859 371 q 854 341 854 289 l 854 289 l 854 191 l 749 454 q 778 497 811 525 q 843 552 885 565 q 926 577 982 577 l 982 577 q 1058 577 1114 551 q 1170 525 1208 478 q 1245 431 1263 370 q 1281 308 1281 237 l 1281 237 q 1281 148 1259 93 q 1236 38 1194 13 q 1151 -12 1088 -12 z"},"ആ":{"ha":1444,"x_min":33,"x_max":1425,"o":"m 326 577 l 326 577 q 367 577 417 569 q 466 560 505 539 l 505 539 q 516 535 523 527 q 529 519 539 514 l 539 514 q 560 502 584 485 q 608 467 626 440 q 644 412 644 370 l 644 370 q 644 342 636 321 q 627 299 609 283 q 591 266 562 255 l 562 255 l 558 268 q 602 255 629 220 q 656 185 656 137 l 656 137 q 656 97 639 63 q 621 29 581 9 q 541 -12 472 -12 l 472 -12 q 392 -12 345 20 q 298 51 278 107 q 258 163 258 238 l 258 238 q 258 297 274 349 q 289 400 320 442 q 350 483 396 512 l 396 512 q 404 517 408 524 q 411 530 419 534 l 419 534 q 454 554 497 566 q 539 577 586 577 l 586 577 q 641 577 681 566 q 720 554 750 532 q 780 509 803 477 l 803 477 l 854 227 l 854 0 l 713 0 l 713 295 q 713 359 704 393 q 695 426 671 447 l 671 447 q 655 460 633 467 q 610 473 583 473 l 583 473 q 563 473 544 469 q 524 465 509 460 l 509 460 q 483 451 461 431 q 439 410 424 381 q 409 351 401 315 q 393 279 393 236 l 393 236 q 393 155 411 126 q 428 96 463 96 l 463 96 q 490 96 504 109 q 517 122 517 147 l 517 147 q 517 172 501 188 q 485 204 450 204 l 450 204 l 441 204 l 441 312 l 449 312 q 479 312 494 328 q 509 343 509 369 l 509 369 q 509 399 488 424 q 467 448 423 459 l 423 459 q 407 468 385 471 q 363 473 344 473 l 344 473 q 286 473 250 450 q 213 427 195 386 q 177 345 177 291 l 177 291 q 177 244 187 203 q 196 162 213 126 q 230 89 252 53 l 252 53 l 143 -12 q 111 27 87 72 q 62 117 48 172 q 33 227 33 297 l 33 297 q 33 343 47 392 q 60 441 92 483 q 124 525 182 551 q 239 577 326 577 z m 973 577 l 973 577 q 1062 577 1120 544 q 1178 511 1210 457 q 1241 403 1251 341 l 1251 341 q 1256 316 1257 289 q 1258 261 1258 234 l 1258 234 q 1258 151 1238 97 q 1218 42 1178 15 q 1137 -12 1074 -12 l 1074 -12 q 1014 -12 975 13 q 936 38 918 82 q 899 125 899 185 l 899 185 q 899 291 964 348 q 1029 404 1140 404 l 1140 404 q 1156 404 1168 404 q 1179 403 1186 402 l 1186 402 l 1213 400 q 1275 388 1323 349 q 1370 310 1398 248 q 1425 185 1425 99 l 1425 99 q 1425 41 1412 -13 q 1398 -67 1367 -109 q 1336 -151 1282 -176 q 1227 -201 1146 -201 l 1146 -201 q 1112 -201 1084 -196 q 1055 -191 1025 -182 l 1025 -182 l 1062 -75 q 1085 -82 1104 -85 q 1123 -88 1145 -88 l 1145 -88 q 1192 -88 1221 -70 q 1250 -53 1266 -24 q 1281 5 1286 39 q 1291 72 1291 103 l 1291 103 q 1291 150 1285 185 q 1278 219 1264 245 q 1249 270 1223 286 l 1223 286 l 1179 294 q 1170 297 1159 298 q 1148 299 1137 299 l 1137 299 q 1100 299 1078 284 q 1056 269 1046 244 q 1036 218 1036 184 l 1036 184 q 1036 155 1041 137 q 1046 118 1056 109 q 1065 100 1079 100 l 1079 100 q 1103 100 1115 127 q 1126 153 1126 232 l 1126 232 q 1126 268 1122 299 q 1117 329 1109 354 l 1109 354 l 1102 377 q 1089 407 1069 427 q 1049 446 1025 456 q 1000 465 974 465 l 974 465 q 953 465 935 461 q 916 457 898 444 l 898 444 q 884 434 874 417 q 864 400 859 370 q 854 340 854 288 l 854 288 l 854 212 l 749 455 q 777 497 809 524 q 841 551 881 564 q 921 577 973 577 z"},"ഇ":{"ha":841,"x_min":31,"x_max":808,"o":"m 288 577 l 288 577 q 341 577 378 565 q 415 552 441 532 q 466 511 487 486 l 487 486 l 444 498 q 477 541 518 559 q 558 577 604 577 l 604 577 q 658 577 697 557 q 735 536 760 500 q 784 464 796 417 q 808 370 808 317 l 808 317 q 808 223 789 163 q 769 102 717 60 l 717 60 q 692 41 659 28 q 625 14 579 7 q 532 0 465 0 l 465 0 l 280 0 q 242 0 225 -2 q 208 -5 199 -10 l 199 -10 q 187 -16 182 -24 q 176 -33 176 -44 l 176 -44 q 176 -55 181 -64 q 186 -73 195 -80 l 195 -80 q 205 -85 223 -88 q 241 -92 278 -92 l 278 -92 l 795 -92 l 795 -203 l 280 -203 q 212 -203 171 -195 q 129 -187 103 -172 l 103 -172 q 71 -153 53 -122 q 34 -92 34 -49 l 34 -49 q 34 -9 50 22 q 66 53 97 74 l 97 74 q 117 87 141 95 q 164 102 199 106 q 233 110 284 110 l 284 110 l 432 110 q 485 110 520 115 q 555 119 578 128 q 600 137 615 150 l 615 150 q 646 174 656 216 q 665 257 665 315 l 665 315 q 665 354 657 389 q 649 423 632 445 q 614 466 585 466 l 585 466 q 576 466 569 463 q 561 460 555 455 l 555 455 q 543 443 538 420 q 533 396 533 346 l 533 346 l 533 149 l 393 149 l 393 320 q 393 369 386 398 q 379 426 362 442 l 362 442 q 350 455 332 462 q 313 468 284 468 l 284 468 q 261 468 243 463 q 224 458 208 449 q 191 440 179 427 q 166 413 157 395 l 157 395 q 154 385 153 374 q 151 363 150 353 l 150 353 q 150 344 149 331 q 147 317 147 301 l 147 301 q 147 263 157 245 q 167 226 186 226 l 186 226 q 202 226 210 242 q 218 257 218 282 l 218 282 q 218 301 214 313 q 210 325 202 331 q 194 337 183 337 l 183 337 q 167 337 155 332 q 142 326 125 313 l 125 313 l 62 338 q 82 362 107 382 q 131 402 161 414 q 190 426 221 426 l 221 426 q 264 426 292 408 q 319 389 333 357 q 347 325 347 281 l 347 281 q 347 240 333 205 q 318 170 284 148 q 250 126 193 126 l 193 126 q 145 126 108 148 q 71 170 51 214 q 31 257 31 324 l 31 324 q 31 400 63 457 q 95 513 153 545 q 210 577 288 577 z"},"ഈ":{"ha":1500,"x_min":31,"x_max":1467,"o":"m 288 577 l 288 577 q 341 577 378 565 q 415 552 441 532 q 466 511 487 486 l 487 486 l 444 498 q 477 541 518 559 q 558 577 604 577 l 604 577 q 658 577 697 557 q 735 536 760 500 q 784 464 796 417 q 808 370 808 317 l 808 317 q 808 223 789 163 q 769 102 717 60 l 717 60 q 692 41 659 28 q 625 14 579 7 q 532 0 465 0 l 465 0 l 280 0 q 242 0 225 -2 q 208 -5 199 -10 l 199 -10 q 187 -16 182 -24 q 176 -33 176 -44 l 176 -44 q 176 -55 181 -64 q 186 -73 195 -80 l 195 -80 q 205 -85 223 -88 q 241 -92 278 -92 l 278 -92 l 795 -92 l 795 -203 l 280 -203 q 212 -203 171 -195 q 129 -187 103 -172 l 103 -172 q 71 -153 53 -122 q 34 -92 34 -49 l 34 -49 q 34 -9 50 22 q 66 53 97 74 l 97 74 q 117 87 141 95 q 164 102 199 106 q 233 110 284 110 l 284 110 l 432 110 q 485 110 520 115 q 555 119 578 128 q 600 137 615 150 l 615 150 q 646 174 656 216 q 665 257 665 315 l 665 315 q 665 354 657 389 q 649 423 632 445 q 614 466 585 466 l 585 466 q 576 466 569 463 q 561 460 555 455 l 555 455 q 543 443 538 420 q 533 396 533 346 l 533 346 l 533 149 l 393 149 l 393 320 q 393 369 386 398 q 379 426 362 442 l 362 442 q 350 455 332 462 q 313 468 284 468 l 284 468 q 261 468 243 463 q 224 458 208 449 q 191 440 179 427 q 166 413 157 395 l 157 395 q 154 385 153 374 q 151 363 150 353 l 150 353 q 150 344 149 331 q 147 317 147 301 l 147 301 q 147 263 157 245 q 167 226 186 226 l 186 226 q 202 226 210 242 q 218 257 218 282 l 218 282 q 218 301 214 313 q 210 325 202 331 q 194 337 183 337 l 183 337 q 167 337 155 332 q 142 326 125 313 l 125 313 l 62 338 q 82 362 107 382 q 131 402 161 414 q 190 426 221 426 l 221 426 q 264 426 292 408 q 319 389 333 357 q 347 325 347 281 l 347 281 q 347 240 333 205 q 318 170 284 148 q 250 126 193 126 l 193 126 q 145 126 108 148 q 71 170 51 214 q 31 257 31 324 l 31 324 q 31 400 63 457 q 95 513 153 545 q 210 577 288 577 z m 1280 577 l 1280 577 q 1340 577 1382 545 q 1423 513 1445 454 q 1467 395 1467 313 l 1467 313 q 1467 206 1439 134 q 1411 61 1353 25 q 1294 -12 1203 -12 l 1203 -12 q 1147 -12 1103 -2 q 1058 8 1013 29 l 1013 29 l 1068 131 q 1095 118 1126 110 q 1157 101 1189 101 l 1189 101 q 1240 101 1270 124 q 1299 147 1312 194 q 1325 240 1325 310 l 1325 310 q 1325 395 1309 431 q 1292 467 1268 467 l 1268 467 q 1259 467 1254 464 q 1248 460 1243 453 l 1243 453 q 1237 444 1235 431 q 1233 417 1233 383 l 1233 383 l 1233 268 l 1093 268 l 1093 361 q 1093 400 1092 419 q 1090 437 1084 448 l 1084 448 q 1080 458 1072 463 q 1063 467 1054 467 l 1054 467 q 1033 467 1021 446 q 1008 424 1008 387 l 1008 387 q 1008 359 1012 333 q 1016 307 1021 287 l 1021 287 l 886 259 q 878 288 873 323 q 867 357 867 391 l 867 391 q 867 439 885 481 q 902 523 940 550 q 977 577 1039 577 l 1039 577 q 1085 577 1116 562 q 1147 547 1172 515 l 1172 515 l 1149 515 q 1174 548 1204 563 q 1233 577 1280 577 z"},"ഉ":{"ha":611,"x_min":31,"x_max":579,"o":"m 306 577 l 306 577 q 379 577 431 555 q 482 532 515 493 q 548 454 564 405 q 579 355 579 300 l 579 300 q 579 220 561 162 q 542 104 497 65 l 497 65 q 468 41 432 27 q 396 12 355 6 q 313 0 266 0 l 266 0 l 254 0 q 236 0 222 -2 q 208 -4 199 -9 l 199 -9 q 187 -15 182 -24 q 176 -33 176 -44 l 176 -44 q 176 -55 181 -64 q 186 -73 195 -80 l 195 -80 q 205 -85 223 -88 q 241 -92 278 -92 l 278 -92 l 563 -92 l 563 -203 l 280 -203 q 212 -203 171 -195 q 129 -187 103 -172 l 103 -172 q 71 -153 53 -122 q 34 -92 34 -49 l 34 -49 q 34 -9 50 23 q 66 55 97 75 l 97 75 q 126 95 164 103 q 202 110 251 110 l 251 110 l 248 110 q 288 110 317 116 q 345 121 365 131 q 384 141 397 155 l 397 155 q 420 181 428 218 q 435 255 435 293 l 435 293 q 435 329 427 360 q 419 391 403 415 q 386 439 359 452 q 332 465 294 465 l 294 465 q 269 465 247 460 q 224 454 206 444 q 187 433 174 419 q 161 404 153 384 l 153 384 q 153 376 152 369 q 151 361 151 354 l 151 354 q 150 345 149 332 q 147 319 147 301 l 147 301 q 147 263 157 245 q 167 226 186 226 l 186 226 q 202 226 210 242 q 218 257 218 282 l 218 282 q 218 301 214 313 q 210 325 202 331 q 194 337 183 337 l 183 337 q 167 337 153 332 q 138 326 121 313 l 121 313 l 62 338 q 82 362 107 382 q 131 402 161 414 q 190 426 221 426 l 221 426 q 264 426 292 408 q 319 389 333 357 q 347 325 347 281 l 347 281 q 347 240 333 205 q 318 170 284 148 q 250 126 193 126 l 193 126 q 145 126 108 148 q 71 169 51 213 q 31 256 31 320 l 31 320 q 31 376 50 424 q 69 471 105 506 q 140 540 191 559 q 242 577 306 577 z"},"ഊ":{"ha":1271,"x_min":31,"x_max":1238,"o":"m 306 577 l 306 577 q 379 577 431 555 q 482 532 515 493 q 548 454 564 405 q 579 355 579 300 l 579 300 q 579 220 561 162 q 542 104 497 65 l 497 65 q 468 41 432 27 q 396 12 355 6 q 313 0 266 0 l 266 0 l 254 0 q 236 0 222 -2 q 208 -4 199 -9 l 199 -9 q 187 -15 182 -24 q 176 -33 176 -44 l 176 -44 q 176 -55 181 -64 q 186 -73 195 -80 l 195 -80 q 205 -85 223 -88 q 241 -92 278 -92 l 278 -92 l 563 -92 l 563 -203 l 280 -203 q 212 -203 171 -195 q 129 -187 103 -172 l 103 -172 q 71 -153 53 -122 q 34 -92 34 -49 l 34 -49 q 34 -9 50 23 q 66 55 97 75 l 97 75 q 126 95 164 103 q 202 110 251 110 l 251 110 l 248 110 q 288 110 317 116 q 345 121 365 131 q 384 141 397 155 l 397 155 q 420 181 428 218 q 435 255 435 293 l 435 293 q 435 329 427 360 q 419 391 403 415 q 386 439 359 452 q 332 465 294 465 l 294 465 q 269 465 247 460 q 224 454 206 444 q 187 433 174 419 q 161 404 153 384 l 153 384 q 153 376 152 369 q 151 361 151 354 l 151 354 q 150 345 149 332 q 147 319 147 301 l 147 301 q 147 263 157 245 q 167 226 186 226 l 186 226 q 202 226 210 242 q 218 257 218 282 l 218 282 q 218 301 214 313 q 210 325 202 331 q 194 337 183 337 l 183 337 q 167 337 153 332 q 138 326 121 313 l 121 313 l 62 338 q 82 362 107 382 q 131 402 161 414 q 190 426 221 426 l 221 426 q 264 426 292 408 q 319 389 333 357 q 347 325 347 281 l 347 281 q 347 240 333 205 q 318 170 284 148 q 250 126 193 126 l 193 126 q 145 126 108 148 q 71 169 51 213 q 31 256 31 320 l 31 320 q 31 376 50 424 q 69 471 105 506 q 140 540 191 559 q 242 577 306 577 z m 1051 577 l 1051 577 q 1111 577 1153 545 q 1194 513 1216 454 q 1238 395 1238 313 l 1238 313 q 1238 206 1210 134 q 1182 61 1124 25 q 1065 -12 974 -12 l 974 -12 q 918 -12 874 -2 q 829 8 784 29 l 784 29 l 839 131 q 866 118 897 110 q 928 101 960 101 l 960 101 q 1011 101 1041 124 q 1070 147 1083 194 q 1096 240 1096 310 l 1096 310 q 1096 395 1080 431 q 1063 467 1039 467 l 1039 467 q 1030 467 1025 464 q 1019 460 1014 453 l 1014 453 q 1008 444 1006 431 q 1004 417 1004 383 l 1004 383 l 1004 268 l 864 268 l 864 361 q 864 400 863 419 q 861 437 855 448 l 855 448 q 851 458 843 463 q 834 467 825 467 l 825 467 q 804 467 792 446 q 779 424 779 387 l 779 387 q 779 359 783 333 q 787 307 792 287 l 792 287 l 657 259 q 649 288 644 323 q 638 357 638 391 l 638 391 q 638 439 656 481 q 673 523 711 550 q 748 577 810 577 l 810 577 q 856 577 887 562 q 918 547 943 515 l 943 515 l 920 515 q 945 548 975 563 q 1004 577 1051 577 z"},"ഋ":{"ha":815,"x_min":29,"x_max":786,"o":"m 601 577 l 601 577 q 686 577 736 519 q 786 461 786 353 l 786 353 q 786 285 767 238 q 747 190 714 157 l 714 157 q 671 111 615 89 q 558 66 479 66 l 479 66 l 343 66 q 289 66 246 76 q 202 86 167 106 q 132 126 104 157 l 104 157 q 69 191 49 239 q 29 287 29 357 l 29 357 q 29 422 52 472 q 75 521 119 549 q 162 577 221 577 l 221 577 q 274 577 313 555 q 351 533 371 494 q 391 454 391 403 l 391 403 q 391 340 371 301 q 351 262 317 244 q 282 226 237 226 l 237 226 q 207 226 176 241 q 144 255 118 277 q 91 298 74 319 l 74 319 l 112 412 q 129 383 143 364 q 156 345 171 336 q 185 326 203 326 l 203 326 q 228 326 242 344 q 256 362 256 408 l 256 408 q 256 440 244 457 q 232 473 216 473 l 216 473 q 199 473 187 463 q 174 452 167 429 q 160 406 160 366 l 160 366 q 160 346 163 327 q 166 307 169 292 l 169 292 l 170 259 q 183 233 207 216 q 231 198 262 187 q 292 176 324 172 q 355 167 383 167 l 383 167 l 434 167 q 459 167 490 171 q 521 175 552 186 q 582 196 607 214 q 632 232 646 259 l 646 259 l 646 292 q 650 307 653 326 q 655 345 655 367 l 655 367 q 655 406 649 429 q 642 452 631 463 q 619 473 603 473 l 603 473 q 585 473 573 456 q 560 438 560 400 l 560 400 q 560 360 574 343 q 587 326 609 326 l 609 326 q 629 326 644 335 q 658 344 672 363 q 685 382 703 412 l 703 412 l 741 319 q 726 298 700 277 q 673 255 641 241 q 609 226 575 226 l 575 226 q 532 226 498 244 q 464 261 445 299 q 425 336 425 396 l 425 396 q 425 454 448 495 q 470 535 510 556 q 549 577 601 577 z m 406 -255 l 406 -255 q 310 -255 239 -234 q 168 -214 130 -169 q 91 -125 91 -52 l 91 -52 q 91 -3 113 32 q 135 66 173 87 q 211 108 259 118 q 307 128 360 128 l 360 128 l 453 128 q 508 128 557 118 q 605 108 643 87 q 681 66 703 32 q 724 -3 724 -53 l 724 -53 q 724 -122 687 -166 q 650 -211 579 -233 q 508 -255 406 -255 z m 408 -141 l 408 -141 q 465 -141 503 -130 q 541 -119 560 -97 q 579 -75 579 -43 l 579 -43 q 579 -14 566 5 q 552 24 528 36 q 504 47 474 52 q 444 56 413 56 l 413 56 l 404 56 q 359 56 321 47 q 282 38 259 17 q 236 -5 236 -43 l 236 -43 q 236 -75 256 -97 q 275 -120 314 -130 q 352 -141 408 -141 z"},"ഌ":{"ha":1030,"x_min":34,"x_max":998,"o":"m 323 577 l 323 577 q 391 577 438 555 q 485 532 523 481 l 523 481 l 545 382 l 572 197 l 572 0 l 431 0 l 431 296 q 431 362 423 393 q 415 424 398 440 l 398 440 q 386 453 369 460 q 351 466 323 466 l 323 466 q 279 466 242 443 q 205 419 183 370 q 160 320 160 241 l 160 241 l 160 232 q 160 174 167 145 q 174 115 186 105 q 198 95 210 95 l 210 95 q 222 95 231 103 q 239 110 244 126 q 248 142 248 170 l 248 170 q 248 213 238 230 q 228 247 205 247 l 205 247 q 184 247 163 230 q 142 213 114 173 l 114 173 l 93 275 q 118 304 158 327 q 197 350 244 350 l 244 350 q 291 350 322 329 q 352 307 368 269 q 383 230 383 179 l 383 179 q 383 116 364 74 q 344 32 307 10 q 269 -12 215 -12 l 215 -12 q 165 -12 124 13 q 83 37 59 94 q 34 150 34 245 l 34 245 q 34 356 71 430 q 108 504 174 541 q 240 577 323 577 z m 805 -12 l 805 -12 q 740 -12 702 17 q 663 45 646 94 q 628 143 628 205 l 628 205 q 628 303 668 355 q 707 407 782 407 l 782 407 q 825 407 856 382 q 887 357 908 317 q 929 277 939 230 l 939 230 l 885 224 q 880 246 871 265 q 862 283 849 295 q 836 306 817 306 l 817 306 q 790 306 778 282 q 766 257 766 200 l 766 200 q 766 164 771 141 q 776 118 786 107 q 796 96 811 96 l 811 96 q 827 96 838 108 q 849 120 855 150 q 860 179 860 232 l 860 232 q 860 251 859 271 q 857 291 855 309 l 855 309 q 855 313 855 320 q 855 327 854 330 l 854 330 q 850 365 830 396 q 810 426 777 446 q 744 465 698 465 l 698 465 q 671 465 652 461 q 633 457 616 444 l 616 444 q 602 434 592 418 q 582 401 577 371 q 572 341 572 289 l 572 289 l 572 191 l 466 454 q 495 497 528 525 q 560 552 602 565 q 643 577 700 577 l 700 577 q 776 577 832 551 q 888 525 925 478 q 962 431 980 370 q 998 308 998 237 l 998 237 q 998 148 976 93 q 954 38 911 13 q 868 -12 805 -12 z"},"എ":{"ha":1101,"x_min":27,"x_max":1066,"o":"m 219 367 l 219 367 q 287 367 328 340 q 369 313 388 271 q 406 229 406 184 l 406 184 q 406 152 396 123 q 385 94 374 74 l 374 74 l 364 110 l 738 110 l 730 0 l 290 0 l 245 66 q 254 83 262 110 q 270 137 270 174 l 270 174 q 270 209 259 233 q 247 257 220 257 l 220 257 q 202 257 191 247 q 179 236 174 218 q 168 200 168 177 l 168 177 q 168 129 181 99 q 194 69 207 39 l 207 39 l 92 -12 q 63 31 45 76 q 27 121 27 180 l 27 180 q 27 237 50 278 q 73 319 117 343 q 160 367 219 367 z m 774 577 l 774 577 q 850 577 905 551 q 960 525 996 475 q 1031 424 1049 351 q 1066 278 1066 186 l 1066 186 q 1066 97 1051 24 q 1036 -49 1011 -111 q 986 -173 956 -228 l 956 -228 l 839 -172 q 864 -122 883 -69 q 901 -16 911 46 q 920 107 920 183 l 920 183 q 920 248 912 300 q 904 352 887 389 q 869 426 842 446 q 814 466 775 466 l 775 466 q 719 466 683 430 q 647 393 630 324 q 613 254 613 153 l 613 153 q 613 125 614 104 q 614 82 614 64 l 614 64 q 615 55 614 48 q 612 40 612 32 l 612 32 q 614 -26 622 -59 q 629 -93 642 -107 q 654 -121 672 -121 l 672 -121 q 683 -121 689 -113 l 689 -113 q 693 -109 694 -101 q 695 -94 695 -80 l 695 -80 l 695 381 l 835 381 l 835 -31 q 835 -94 825 -129 q 815 -165 791 -189 l 791 -189 q 773 -207 745 -217 q 717 -228 682 -228 l 682 -228 q 615 -228 568 -193 q 520 -159 496 -77 q 472 5 472 146 l 472 146 q 472 243 491 322 q 509 400 547 458 q 584 515 641 546 q 698 577 774 577 z"},"ഏ":{"ha":1114,"x_min":26,"x_max":1090,"o":"m 218 367 l 218 367 q 286 367 327 340 q 368 313 387 271 q 406 229 406 184 l 406 184 q 406 152 395 123 q 384 94 374 74 l 374 74 l 358 110 l 734 110 l 730 0 l 290 0 l 245 66 q 253 83 261 110 q 269 137 269 174 l 269 174 q 269 209 258 233 q 247 257 220 257 l 220 257 q 201 257 190 247 q 178 237 173 219 q 168 200 168 177 l 168 177 q 168 129 181 99 q 193 69 207 39 l 207 39 l 91 -12 q 62 31 44 76 q 26 121 26 180 l 26 180 q 26 237 50 278 q 73 319 116 343 q 159 367 218 367 z m 814 577 l 814 577 q 886 577 937 558 q 988 539 1020 506 q 1052 472 1068 430 q 1083 387 1083 341 l 1083 341 q 1083 286 1067 248 q 1051 209 1028 184 q 1005 158 983 143 l 983 143 l 982 164 q 1028 137 1059 93 q 1090 48 1090 -27 l 1090 -27 q 1090 -98 1068 -142 q 1046 -187 1007 -207 q 968 -228 915 -228 l 915 -228 q 890 -228 870 -225 q 849 -223 833 -219 l 833 -219 l 855 -112 q 860 -114 869 -115 q 877 -116 884 -116 l 884 -116 q 909 -116 923 -105 q 936 -94 942 -72 q 948 -51 948 -19 l 948 -19 q 948 25 928 55 q 908 85 870 88 l 870 88 l 870 197 q 891 206 907 223 q 922 240 931 266 q 940 291 940 327 l 940 327 q 940 370 925 401 q 909 432 880 449 q 851 465 807 465 l 807 465 q 742 465 699 427 q 655 389 634 319 q 612 249 612 153 l 612 153 q 612 125 613 104 q 613 82 614 64 l 614 64 q 614 55 613 48 q 611 40 611 32 l 611 32 q 614 -26 621 -59 q 628 -93 641 -107 q 653 -121 671 -121 l 671 -121 q 683 -121 688 -113 l 688 -113 q 692 -109 693 -101 q 694 -94 694 -80 l 694 -80 l 694 381 l 834 381 l 834 -31 q 834 -94 824 -129 q 814 -165 790 -189 l 790 -189 q 773 -207 745 -217 q 716 -228 682 -228 l 682 -228 q 614 -228 567 -193 q 520 -159 496 -77 q 472 5 472 147 l 472 147 q 472 242 493 321 q 513 399 556 457 q 599 514 664 546 q 728 577 814 577 z"},"ഐ":{"ha":1736,"x_min":33,"x_max":1701,"o":"m 217 -12 l 217 -12 q 166 -12 125 13 q 83 37 59 92 q 34 146 34 237 l 34 237 q 34 312 54 374 q 74 436 112 482 q 150 527 206 552 q 262 577 333 577 l 333 577 q 407 577 459 554 q 510 530 542 489 q 574 448 589 397 q 603 346 603 291 l 603 291 q 603 226 588 171 q 572 115 547 70 q 521 25 489 -14 l 489 -14 l 379 50 q 402 84 420 120 q 438 156 448 197 q 458 238 458 288 l 458 288 q 458 342 444 382 q 429 422 400 444 q 370 466 323 466 l 323 466 q 275 466 238 437 q 201 407 181 355 q 160 303 160 234 l 160 234 q 160 175 167 145 q 174 115 186 105 q 198 95 210 95 l 210 95 q 222 95 231 103 q 239 110 244 126 q 248 142 248 169 l 248 169 q 248 212 238 230 q 228 247 205 247 l 205 247 q 184 247 163 230 q 142 212 114 172 l 114 172 l 93 275 q 118 304 157 327 q 196 350 243 350 l 243 350 q 290 350 321 329 q 352 307 368 269 q 383 231 383 179 l 383 179 q 383 118 364 76 q 344 34 308 11 q 271 -12 217 -12 z m 854 367 l 854 367 q 922 367 963 340 q 1004 313 1023 271 q 1041 229 1041 184 l 1041 184 q 1041 152 1031 123 q 1020 94 1009 74 l 1009 74 l 999 110 l 1373 110 l 1365 0 l 925 0 l 880 66 q 889 83 897 110 q 905 137 905 174 l 905 174 q 905 209 894 233 q 882 257 855 257 l 855 257 q 837 257 826 247 q 814 236 809 218 q 803 200 803 177 l 803 177 q 803 129 816 99 q 829 69 842 39 l 842 39 l 727 -12 q 698 31 680 76 q 662 121 662 180 l 662 180 q 662 237 685 278 q 708 319 752 343 q 795 367 854 367 z m 1409 577 l 1409 577 q 1485 577 1540 551 q 1595 525 1631 475 q 1666 424 1684 351 q 1701 278 1701 186 l 1701 186 q 1701 97 1686 24 q 1671 -49 1646 -111 q 1621 -173 1591 -228 l 1591 -228 l 1474 -172 q 1499 -122 1518 -69 q 1536 -16 1546 46 q 1555 107 1555 183 l 1555 183 q 1555 248 1547 300 q 1539 352 1522 389 q 1504 426 1477 446 q 1449 466 1410 466 l 1410 466 q 1354 466 1318 430 q 1282 393 1265 324 q 1248 254 1248 153 l 1248 153 q 1248 125 1249 104 q 1249 82 1249 64 l 1249 64 q 1250 55 1249 48 q 1247 40 1247 32 l 1247 32 q 1249 -26 1257 -59 q 1264 -93 1277 -107 q 1289 -121 1307 -121 l 1307 -121 q 1318 -121 1324 -113 l 1324 -113 q 1328 -109 1329 -101 q 1330 -94 1330 -80 l 1330 -80 l 1330 381 l 1470 381 l 1470 -31 q 1470 -94 1460 -129 q 1450 -165 1426 -189 l 1426 -189 q 1408 -207 1380 -217 q 1352 -228 1317 -228 l 1317 -228 q 1250 -228 1203 -193 q 1155 -159 1131 -77 q 1107 5 1107 146 l 1107 146 q 1107 243 1126 322 q 1144 400 1182 458 q 1219 515 1276 546 q 1333 577 1409 577 z"},"ഒ":{"ha":675,"x_min":32,"x_max":646,"o":"m 399 577 l 399 577 q 487 577 540 554 q 593 531 616 493 q 639 454 639 407 l 639 407 q 639 376 630 352 q 620 327 602 309 q 583 290 552 276 l 552 276 l 556 285 q 597 269 622 233 q 646 196 646 146 l 646 146 q 646 71 604 30 q 562 -12 473 -12 l 473 -12 q 449 -12 425 -8 q 400 -5 383 0 l 383 0 l 402 105 q 413 102 425 100 q 436 98 449 98 l 449 98 q 480 98 493 113 q 505 128 505 157 l 505 157 q 505 174 500 187 q 494 200 483 209 l 483 209 q 473 218 457 223 q 440 227 412 227 l 412 227 l 407 227 l 407 334 l 410 334 q 439 334 453 338 q 466 342 476 350 l 476 350 q 487 359 492 371 q 497 382 497 396 l 497 396 q 497 431 469 448 q 441 465 391 465 l 391 465 q 340 465 298 451 q 256 437 225 410 q 193 382 176 341 q 159 300 159 245 l 159 245 l 159 228 q 159 171 166 143 q 172 114 184 105 q 196 95 209 95 l 209 95 q 221 95 229 102 q 237 109 242 125 q 246 141 246 170 l 246 170 q 246 213 236 230 q 226 247 204 247 l 204 247 q 181 247 159 229 q 137 211 110 169 l 110 169 l 84 267 q 110 300 151 325 q 191 350 242 350 l 242 350 q 289 350 320 329 q 350 307 366 269 q 381 230 381 179 l 381 179 q 381 116 362 74 q 343 32 306 10 q 269 -12 215 -12 l 215 -12 q 163 -12 122 13 q 80 38 56 91 q 32 144 32 228 l 32 228 q 32 314 58 379 q 84 444 133 489 q 181 533 249 555 q 316 577 399 577 z"},"ഓ":{"ha":1136,"x_min":32,"x_max":1101,"o":"m 399 577 l 399 577 q 487 577 540 554 q 593 531 616 493 q 639 454 639 407 l 639 407 q 639 376 630 352 q 620 327 602 309 q 583 290 552 276 l 552 276 l 556 285 q 597 269 622 233 q 646 196 646 146 l 646 146 q 646 71 604 30 q 562 -12 473 -12 l 473 -12 q 449 -12 425 -8 q 400 -5 383 0 l 383 0 l 402 105 q 413 102 425 100 q 436 98 449 98 l 449 98 q 480 98 493 113 q 505 128 505 157 l 505 157 q 505 174 500 187 q 494 200 483 209 l 483 209 q 473 218 457 223 q 440 227 412 227 l 412 227 l 407 227 l 407 334 l 410 334 q 439 334 453 338 q 466 342 476 350 l 476 350 q 487 359 492 371 q 497 382 497 396 l 497 396 q 497 431 469 448 q 441 465 391 465 l 391 465 q 340 465 298 451 q 256 437 225 410 q 193 382 176 341 q 159 300 159 245 l 159 245 l 159 228 q 159 171 166 143 q 172 114 184 105 q 196 95 209 95 l 209 95 q 221 95 229 102 q 237 109 242 125 q 246 141 246 170 l 246 170 q 246 213 236 230 q 226 247 204 247 l 204 247 q 181 247 159 229 q 137 211 110 169 l 110 169 l 84 267 q 110 300 151 325 q 191 350 242 350 l 242 350 q 289 350 320 329 q 350 307 366 269 q 381 230 381 179 l 381 179 q 381 116 362 74 q 343 32 306 10 q 269 -12 215 -12 l 215 -12 q 163 -12 122 13 q 80 38 56 91 q 32 144 32 228 l 32 228 q 32 314 58 379 q 84 444 133 489 q 181 533 249 555 q 316 577 399 577 z m 1101 285 l 1101 285 q 1101 213 1091 158 q 1080 103 1056 65 q 1032 27 992 8 q 952 -12 893 -12 l 893 -12 q 836 -12 799 5 q 762 22 740 50 q 717 77 705 113 q 693 148 687 185 l 687 185 l 829 210 q 834 179 842 153 q 849 127 862 112 q 874 97 895 97 l 895 97 q 917 97 931 118 q 944 138 951 180 q 957 222 957 287 l 957 287 q 957 348 951 388 q 944 428 931 448 q 918 468 896 468 l 896 468 q 878 468 865 454 q 852 440 844 416 q 836 391 831 356 l 831 356 l 689 382 q 699 420 713 455 q 727 490 751 518 q 775 545 811 561 q 847 577 901 577 l 901 577 q 958 577 997 556 q 1036 535 1059 497 q 1082 458 1092 405 q 1101 351 1101 285 z"},"ഔ":{"ha":1332,"x_min":32,"x_max":1299,"o":"m 399 577 l 399 577 q 487 577 540 554 q 593 531 616 493 q 639 454 639 407 l 639 407 q 639 376 630 352 q 620 327 602 309 q 583 290 552 276 l 552 276 l 556 285 q 597 269 622 233 q 646 196 646 146 l 646 146 q 646 71 604 30 q 562 -12 473 -12 l 473 -12 q 449 -12 425 -8 q 400 -5 383 0 l 383 0 l 402 105 q 413 102 425 100 q 436 98 449 98 l 449 98 q 480 98 493 113 q 505 128 505 157 l 505 157 q 505 174 500 187 q 494 200 483 209 l 483 209 q 473 218 457 223 q 440 227 412 227 l 412 227 l 407 227 l 407 334 l 410 334 q 439 334 453 338 q 466 342 476 350 l 476 350 q 487 359 492 371 q 497 382 497 396 l 497 396 q 497 431 469 448 q 441 465 391 465 l 391 465 q 340 465 298 451 q 256 437 225 410 q 193 382 176 341 q 159 300 159 245 l 159 245 l 159 228 q 159 171 166 143 q 172 114 184 105 q 196 95 209 95 l 209 95 q 221 95 229 102 q 237 109 242 125 q 246 141 246 170 l 246 170 q 246 213 236 230 q 226 247 204 247 l 204 247 q 181 247 159 229 q 137 211 110 169 l 110 169 l 84 267 q 110 300 151 325 q 191 350 242 350 l 242 350 q 289 350 320 329 q 350 307 366 269 q 381 230 381 179 l 381 179 q 381 116 362 74 q 343 32 306 10 q 269 -12 215 -12 l 215 -12 q 163 -12 122 13 q 80 38 56 91 q 32 144 32 228 l 32 228 q 32 314 58 379 q 84 444 133 489 q 181 533 249 555 q 316 577 399 577 z m 1111 577 l 1111 577 q 1171 577 1213 545 q 1254 513 1276 454 q 1298 395 1298 313 l 1298 313 q 1298 206 1270 134 q 1242 61 1184 25 q 1125 -12 1034 -12 l 1034 -12 q 978 -12 934 -2 q 889 8 844 29 l 844 29 l 899 131 q 926 118 957 110 q 988 101 1020 101 l 1020 101 q 1071 101 1101 124 q 1130 147 1143 194 q 1156 240 1156 310 l 1156 310 q 1156 395 1140 431 q 1123 467 1099 467 l 1099 467 q 1090 467 1085 464 q 1079 460 1074 453 l 1074 453 q 1068 444 1066 431 q 1064 417 1064 383 l 1064 383 l 1064 268 l 924 268 l 924 361 q 924 400 923 419 q 921 437 915 448 l 915 448 q 911 458 903 463 q 894 467 885 467 l 885 467 q 864 467 852 446 q 839 424 839 387 l 839 387 q 839 359 843 333 q 847 307 852 287 l 852 287 l 717 259 q 709 288 704 323 q 698 357 698 391 l 698 391 q 698 439 716 481 q 733 523 771 550 q 808 577 870 577 l 870 577 q 916 577 947 562 q 978 547 1003 515 l 1003 515 l 980 515 q 1005 548 1035 563 q 1064 577 1111 577 z"},"ക":{"ha":917,"x_min":27,"x_max":891,"o":"m 198 -12 l 198 -12 q 115 -12 71 34 q 27 80 27 161 l 27 161 q 27 218 52 256 q 76 293 117 315 l 117 315 q 140 327 167 335 q 193 343 230 347 q 266 350 317 350 l 317 350 l 617 350 q 691 350 736 340 q 780 330 812 309 l 812 309 q 849 287 870 250 q 891 212 891 158 l 891 158 q 891 74 846 31 q 800 -12 732 -12 l 732 -12 q 710 -12 692 -9 q 673 -6 652 -1 l 652 -1 l 675 103 q 682 102 689 101 q 696 99 705 99 l 705 99 q 729 99 742 115 q 755 130 755 159 l 755 159 q 755 180 748 195 q 740 210 727 219 l 727 219 q 712 231 693 236 q 673 240 626 240 l 626 240 l 278 240 q 246 240 225 236 q 204 232 189 222 l 189 222 q 176 212 168 199 q 159 185 159 164 l 159 164 q 159 145 165 130 q 171 114 185 106 q 199 97 220 97 l 220 97 q 242 97 261 107 q 280 116 299 135 l 299 135 l 360 36 q 334 17 308 7 q 282 -4 256 -8 q 229 -12 198 -12 z m 458 577 l 458 577 q 536 577 584 542 q 632 507 655 442 q 677 376 677 285 l 677 285 q 677 183 652 117 q 627 51 578 20 q 529 -12 459 -12 l 459 -12 q 401 -12 361 9 q 320 30 296 65 l 296 65 q 265 107 252 165 q 239 222 239 290 l 239 290 q 239 431 296 504 q 352 577 458 577 z m 458 467 l 458 467 q 415 467 397 426 q 378 385 378 282 l 378 282 q 378 216 387 175 q 395 134 413 116 q 430 98 458 98 l 458 98 q 485 98 502 116 q 519 133 528 174 q 537 215 537 284 l 537 284 q 537 352 529 392 q 520 432 503 450 q 485 467 458 467 z"},"ഖ":{"ha":880,"x_min":33,"x_max":829,"o":"m 332 577 l 332 577 q 406 577 457 555 q 508 533 540 495 q 571 456 586 407 q 600 357 600 302 l 600 302 q 600 245 587 198 q 574 150 552 108 q 529 66 498 25 l 498 25 l 501 0 l 461 0 l 386 66 q 405 94 421 128 q 436 161 446 203 q 456 244 456 293 l 456 293 q 456 347 443 386 q 429 424 401 445 q 372 466 327 466 l 327 466 q 278 466 240 439 q 202 411 181 362 q 160 312 160 245 l 160 245 l 160 234 q 160 174 167 145 q 174 115 186 105 q 197 95 210 95 l 210 95 q 222 95 231 103 q 239 110 243 126 q 247 142 247 169 l 247 169 q 247 212 238 230 q 228 247 205 247 l 205 247 q 182 247 161 229 q 139 211 111 169 l 111 169 l 85 267 q 111 300 152 325 q 192 350 243 350 l 243 350 q 290 350 321 329 q 352 307 368 269 q 383 230 383 179 l 383 179 q 383 116 364 74 q 344 32 308 10 q 271 -12 217 -12 l 217 -12 q 166 -12 125 13 q 83 38 58 94 q 33 150 33 245 l 33 245 q 33 350 71 424 q 109 498 177 538 q 245 577 332 577 z m 688 565 l 829 565 l 829 0 l 480 0 l 530 110 l 688 110 l 688 565 z"},"ഗ":{"ha":774,"x_min":33,"x_max":741,"o":"m 517 577 l 517 577 q 591 577 641 545 q 690 512 716 452 q 741 391 741 308 l 741 308 q 741 242 728 186 q 715 130 693 81 q 671 32 642 -13 l 642 -13 l 525 50 q 548 90 564 130 q 580 170 589 213 q 598 255 598 305 l 598 305 q 598 363 587 399 q 575 434 557 450 q 539 466 517 466 l 517 466 q 503 466 492 461 q 481 456 475 446 l 475 446 q 466 434 462 415 q 458 396 458 356 l 458 356 l 458 223 q 458 180 453 146 q 447 111 435 85 q 423 59 403 39 l 403 39 q 377 14 341 1 q 305 -12 256 -12 l 256 -12 q 183 -12 134 22 q 84 55 59 116 q 33 176 33 258 l 33 258 q 33 324 46 381 q 59 437 82 486 q 104 534 132 579 l 132 579 l 248 516 q 226 476 210 437 q 194 397 185 354 q 176 311 176 261 l 176 261 q 176 201 187 166 q 198 131 216 116 q 234 100 255 100 l 255 100 q 270 100 281 105 q 292 109 299 120 l 299 120 q 307 132 311 150 q 315 168 315 209 l 315 209 l 315 338 q 315 408 330 454 q 344 499 375 528 l 375 528 q 400 552 434 565 q 467 577 517 577 z"},"ഘ":{"ha":1154,"x_min":27,"x_max":1103,"o":"m 219 577 l 219 577 q 287 577 328 551 q 369 524 388 483 q 406 441 406 396 l 406 396 q 406 363 396 335 q 386 306 375 285 l 375 285 l 366 322 l 557 322 l 582 212 l 291 212 l 246 277 q 254 294 262 322 q 270 349 270 385 l 270 385 q 270 420 259 444 q 247 467 220 467 l 220 467 q 202 467 191 457 q 179 446 174 429 q 168 411 168 388 l 168 388 q 168 340 181 311 q 193 281 207 251 l 207 251 l 91 199 q 62 242 45 287 q 27 332 27 392 l 27 392 q 27 448 50 490 q 73 531 117 554 q 160 577 219 577 z m 961 565 l 1103 565 l 1103 0 l 460 0 l 460 310 q 460 390 474 437 q 487 483 514 514 l 514 514 q 538 543 579 560 q 619 577 675 577 l 675 577 q 731 577 772 560 q 813 543 838 512 l 838 512 q 867 477 878 431 q 889 384 889 311 l 889 311 l 889 212 l 601 212 l 601 110 l 961 110 l 961 565 z m 675 467 l 675 467 q 633 467 617 435 q 601 402 601 341 l 601 341 l 601 322 l 749 322 l 749 340 q 749 403 732 435 q 714 467 675 467 z"},"ങ":{"ha":922,"x_min":34,"x_max":893,"o":"m 323 577 l 323 577 q 391 577 438 554 q 485 531 523 479 l 523 479 l 549 386 l 572 239 l 572 0 l 431 0 l 431 296 q 431 362 423 393 q 415 424 398 440 l 398 440 q 386 453 369 460 q 351 466 323 466 l 323 466 q 279 466 242 443 q 205 419 183 370 q 160 320 160 241 l 160 241 l 160 232 q 160 174 167 145 q 174 115 186 105 q 198 95 210 95 l 210 95 q 222 95 231 103 q 239 110 244 126 q 248 142 248 170 l 248 170 q 248 213 238 230 q 228 247 205 247 l 205 247 q 184 247 163 230 q 142 213 114 173 l 114 173 l 93 275 q 118 304 158 327 q 197 350 244 350 l 244 350 q 291 350 322 329 q 352 307 368 269 q 383 230 383 179 l 383 179 q 383 116 364 74 q 344 32 307 10 q 269 -12 215 -12 l 215 -12 q 165 -12 124 13 q 83 37 59 94 q 34 150 34 245 l 34 245 q 34 356 71 430 q 108 504 174 541 q 240 577 323 577 z m 691 577 l 691 577 q 755 577 798 556 q 841 534 863 497 q 885 460 885 414 l 885 414 q 885 380 877 355 q 868 329 849 311 q 830 292 800 277 l 800 277 l 804 285 q 844 269 869 233 q 893 196 893 146 l 893 146 q 893 70 851 29 q 808 -12 719 -12 l 719 -12 q 696 -12 673 -8 q 649 -5 632 -1 l 632 -1 l 652 104 q 664 101 674 100 q 684 98 696 98 l 696 98 q 725 98 738 113 q 751 127 751 157 l 751 157 q 751 174 746 187 q 740 200 729 209 l 729 209 q 719 218 703 223 q 687 227 661 227 l 661 227 l 649 227 l 649 334 l 659 334 q 682 334 698 339 q 714 344 722 352 l 722 352 q 733 360 739 373 q 744 386 744 402 l 744 402 q 744 433 728 450 q 711 467 683 467 l 683 467 q 658 467 642 461 q 625 455 613 444 l 613 444 q 597 429 588 408 q 578 387 575 358 q 572 329 572 288 l 572 288 l 572 213 l 456 230 l 446 314 l 452 412 q 469 459 500 496 q 530 533 578 555 q 625 577 691 577 z"},"ച":{"ha":789,"x_min":19,"x_max":738,"o":"m 597 565 l 738 565 l 738 0 l 19 0 l 19 110 l 358 110 l 292 92 q 311 110 326 143 q 340 175 340 213 l 340 213 q 340 247 330 265 q 319 283 297 283 l 297 283 q 273 283 262 265 q 250 246 250 217 l 250 217 q 250 202 252 192 q 253 181 254 173 l 254 173 l 118 161 q 115 173 113 188 q 111 203 111 222 l 111 222 q 111 300 158 346 q 205 392 295 392 l 295 392 q 350 392 385 376 q 420 360 440 334 q 460 308 468 278 q 475 247 475 219 l 475 219 q 475 194 471 172 q 466 149 457 129 q 447 109 434 90 l 434 90 l 416 110 l 597 110 l 597 565 z"},"ഛ":{"ha":1152,"x_min":19,"x_max":1119,"o":"m 295 392 l 295 392 q 350 392 385 376 q 420 360 440 334 q 460 308 468 278 q 475 247 475 219 l 475 219 q 475 194 471 172 q 466 149 457 129 q 447 109 434 90 l 434 90 l 416 110 l 614 110 l 650 0 l 19 0 l 19 110 l 358 110 l 292 92 q 311 110 326 143 q 340 175 340 213 l 340 213 q 340 247 330 265 q 319 283 297 283 l 297 283 q 273 283 262 265 q 250 246 250 217 l 250 217 q 250 202 252 192 q 253 181 254 173 l 254 173 l 118 161 q 115 173 113 188 q 111 203 111 222 l 111 222 q 111 300 158 346 q 205 392 295 392 z m 817 577 l 817 577 q 894 577 951 551 q 1008 525 1045 478 q 1082 431 1101 370 q 1119 308 1119 236 l 1119 236 q 1119 148 1097 93 q 1075 38 1032 13 q 989 -12 926 -12 l 926 -12 q 862 -12 823 17 q 784 45 767 94 q 749 143 749 205 l 749 205 q 749 303 789 355 q 828 407 904 407 l 904 407 q 947 407 978 382 q 1008 357 1029 317 q 1050 277 1060 230 l 1060 230 l 1006 224 q 1001 246 992 265 q 983 283 970 295 q 957 306 938 306 l 938 306 q 912 306 899 282 q 886 257 886 200 l 886 200 q 886 164 892 141 q 897 118 908 107 q 918 96 932 96 l 932 96 q 948 96 959 108 q 969 120 975 150 q 980 179 980 232 l 980 232 q 980 252 979 271 q 978 290 976 306 l 976 306 q 976 311 975 319 q 974 327 973 331 l 973 331 q 968 365 949 396 q 929 427 898 446 q 866 465 824 465 l 824 465 q 773 465 739 444 q 705 423 689 383 q 672 343 672 289 l 672 289 q 672 245 681 206 q 690 167 706 132 q 722 97 740 66 l 740 66 l 677 0 l 633 0 l 622 44 q 599 77 577 115 q 555 153 542 200 q 528 247 528 305 l 528 305 q 528 360 546 409 q 563 458 599 496 q 635 534 690 556 q 744 577 817 577 z"},"ജ":{"ha":807,"x_min":26,"x_max":774,"o":"m 261 577 l 261 577 q 311 577 345 567 q 378 557 403 541 q 427 525 445 506 l 445 506 l 415 505 q 449 546 489 562 q 528 577 574 577 l 574 577 q 646 577 690 547 q 733 516 754 468 q 774 419 774 364 l 774 364 q 774 322 762 288 q 750 254 728 229 q 706 204 674 187 l 674 187 l 526 159 l 437 151 q 411 147 376 146 q 340 145 309 145 l 309 145 l 230 145 q 198 145 185 142 q 172 139 165 133 l 165 133 q 162 129 160 124 q 157 119 157 113 l 157 113 q 157 106 160 100 q 163 93 172 89 q 181 85 197 85 l 197 85 q 214 85 229 87 q 244 89 266 97 q 287 104 323 118 l 323 118 q 349 127 374 135 q 399 143 422 150 q 444 156 464 161 q 483 165 496 168 l 496 168 q 511 175 528 186 q 545 196 563 207 q 580 218 596 226 q 612 233 626 233 l 626 233 q 656 233 685 222 q 714 210 734 184 q 753 157 753 111 l 753 111 q 753 52 717 20 q 680 -12 610 -12 l 610 -12 q 557 -12 525 7 q 493 26 480 56 q 466 85 466 117 l 466 117 q 466 158 484 186 q 502 214 517 228 l 517 228 l 633 212 q 622 205 609 191 q 596 177 587 160 q 577 142 577 119 l 577 119 q 577 99 584 87 q 590 75 606 75 l 606 75 q 622 75 630 85 q 638 95 638 114 l 638 114 q 638 127 635 136 q 632 145 626 151 q 619 156 607 156 l 607 156 q 594 156 583 148 q 572 139 554 121 l 554 121 l 542 135 q 529 121 508 105 q 486 88 458 71 q 429 54 393 39 l 393 39 q 350 21 317 10 q 284 -2 254 -7 q 223 -12 186 -12 l 186 -12 q 138 -12 102 0 q 66 12 46 39 q 26 65 26 109 l 26 109 q 26 146 42 172 q 57 198 85 213 l 85 213 q 108 225 138 231 q 168 237 229 237 l 229 237 l 461 237 q 497 237 522 240 q 547 243 566 249 q 584 255 597 264 l 597 264 q 617 279 628 304 q 639 328 639 364 l 639 364 q 639 396 630 420 q 621 443 604 456 q 587 469 562 469 l 562 469 q 550 469 542 466 q 533 463 525 457 l 525 457 q 508 443 503 417 q 498 391 498 349 l 498 349 l 498 264 l 371 264 l 371 317 q 371 363 367 395 q 362 427 342 450 l 342 450 q 330 465 309 474 q 288 483 258 483 l 258 483 q 238 483 209 477 q 180 471 164 457 l 164 457 q 162 454 159 446 q 156 437 155 434 l 155 434 q 150 427 148 415 q 145 402 145 387 l 145 387 q 145 354 154 342 q 162 329 175 329 l 175 329 q 185 329 191 335 q 197 340 200 351 q 203 361 203 378 l 203 378 q 203 400 195 412 q 187 423 172 423 l 172 423 q 162 423 152 419 q 142 415 132 409 l 132 409 l 78 433 q 102 458 138 468 q 174 478 209 478 l 209 478 q 238 478 262 467 q 286 456 301 432 q 316 408 316 368 l 316 368 q 316 336 303 308 q 289 280 259 263 q 229 245 177 245 l 177 245 q 111 245 72 282 q 33 319 33 391 l 33 391 q 33 445 58 487 q 83 529 134 553 q 185 577 261 577 z"},"ഝ":{"ha":1428,"x_min":33,"x_max":1394,"o":"m 589 577 l 589 577 q 642 577 685 565 q 728 553 759 528 l 759 528 q 803 494 823 440 q 843 386 843 296 l 843 296 l 843 204 q 843 179 847 158 q 850 136 860 123 l 860 123 q 868 112 880 106 q 891 100 905 100 l 905 100 q 919 100 929 105 q 939 110 946 117 l 946 117 q 959 130 964 153 q 969 175 969 215 l 969 215 l 969 566 l 1110 566 l 1110 227 q 1110 176 1114 151 q 1118 126 1132 112 l 1132 112 q 1139 106 1150 103 q 1160 100 1167 100 l 1167 100 q 1189 100 1209 117 q 1228 133 1240 169 q 1251 205 1251 263 l 1251 263 q 1251 308 1243 350 q 1234 392 1218 433 q 1202 474 1180 514 l 1180 514 l 1296 578 q 1327 532 1349 484 q 1370 435 1382 380 q 1394 324 1394 258 l 1394 258 q 1394 179 1369 118 q 1344 57 1297 23 q 1250 -11 1183 -11 l 1183 -11 q 1136 -11 1099 5 q 1062 21 1027 61 l 1027 61 l 1051 67 q 1034 45 1014 27 q 993 9 966 -1 q 938 -11 901 -11 l 901 -11 q 851 -11 816 4 q 780 18 756 42 l 756 42 q 737 63 725 88 q 713 113 708 148 q 702 182 702 226 l 702 226 l 702 289 q 702 330 698 360 q 693 389 684 409 q 675 428 661 441 l 661 441 q 647 454 628 462 q 608 470 580 470 l 580 470 q 561 470 546 467 q 530 464 517 458 l 517 458 l 504 453 q 470 435 447 399 q 423 363 411 317 q 399 270 399 219 l 399 219 q 399 171 406 145 q 412 118 424 108 q 435 98 449 98 l 449 98 q 463 98 475 108 q 486 118 493 144 q 499 170 499 217 l 499 217 q 499 271 487 318 q 475 364 454 399 q 432 433 404 451 l 404 451 l 386 459 q 373 465 357 468 q 341 471 328 471 l 328 471 q 274 471 241 448 q 208 424 193 383 q 177 342 177 291 l 177 291 q 177 244 187 203 q 196 162 213 126 q 230 89 252 53 l 252 53 l 143 -12 q 111 27 87 72 q 62 117 48 172 q 33 227 33 297 l 33 297 q 33 343 46 392 q 59 441 91 484 q 122 526 177 552 q 232 577 317 577 l 317 577 q 366 577 405 565 q 444 553 479 530 l 479 530 l 493 508 q 564 461 602 393 q 640 324 640 221 l 640 221 q 640 142 618 91 q 596 39 553 14 q 510 -12 448 -12 l 448 -12 q 387 -12 345 16 q 303 43 281 95 q 258 147 258 221 l 258 221 q 258 285 275 337 q 292 388 325 430 q 358 471 408 506 l 408 506 l 427 528 q 464 553 506 565 q 548 577 589 577 z"},"ഞ":{"ha":1276,"x_min":34,"x_max":1243,"o":"m 323 577 l 323 577 q 391 577 439 554 q 486 531 525 479 l 525 479 l 525 412 l 572 209 l 572 0 l 431 0 l 431 296 q 431 362 423 393 q 415 424 398 440 l 398 440 q 386 453 369 460 q 351 466 323 466 l 323 466 q 279 466 242 443 q 205 419 183 370 q 160 320 160 241 l 160 241 l 160 232 q 160 174 167 145 q 174 115 186 105 q 198 95 210 95 l 210 95 q 222 95 231 103 q 239 110 244 126 q 248 142 248 170 l 248 170 q 248 213 238 230 q 228 247 205 247 l 205 247 q 184 247 163 230 q 142 213 114 173 l 114 173 l 93 275 q 118 304 158 327 q 197 350 244 350 l 244 350 q 291 350 322 329 q 352 307 368 269 q 383 230 383 179 l 383 179 q 383 116 364 74 q 344 32 307 10 q 269 -12 215 -12 l 215 -12 q 165 -12 124 13 q 83 37 59 94 q 34 150 34 245 l 34 245 q 34 356 71 430 q 108 504 174 541 q 240 577 323 577 z m 701 577 l 701 577 q 739 577 778 566 q 817 554 853 530 l 853 530 l 867 508 q 939 461 978 393 q 1016 324 1016 221 l 1016 221 q 1016 142 994 91 q 971 39 929 14 q 886 -12 824 -12 l 824 -12 q 763 -12 721 16 q 678 43 656 95 q 634 147 634 221 l 634 221 q 634 286 651 337 q 668 388 701 429 q 734 470 784 505 l 784 505 l 805 528 q 839 552 881 565 q 922 577 973 577 l 973 577 q 1051 577 1104 553 q 1156 528 1187 487 q 1217 445 1230 394 q 1243 343 1243 291 l 1243 291 q 1243 226 1228 171 q 1213 116 1188 72 q 1163 27 1131 -12 l 1131 -12 l 1022 52 q 1043 85 1060 121 q 1077 156 1088 197 q 1099 237 1099 283 l 1099 283 q 1099 340 1085 382 q 1070 423 1040 447 q 1010 471 963 471 l 963 471 q 942 471 926 468 q 909 464 895 458 l 895 458 l 881 454 q 845 435 822 398 q 798 361 787 315 q 775 268 775 219 l 775 219 q 775 171 781 145 q 787 118 799 108 q 810 98 824 98 l 824 98 q 839 98 851 108 q 862 118 869 144 q 875 170 875 217 l 875 217 q 875 271 863 318 q 850 365 828 400 q 806 434 778 452 l 778 452 l 761 459 q 753 463 745 466 q 736 468 725 470 q 714 471 698 471 l 698 471 q 671 471 651 463 q 631 455 617 445 l 617 445 q 591 423 582 389 q 572 355 572 295 l 572 295 l 572 27 l 446 27 l 446 267 l 476 470 q 499 500 530 525 q 560 549 602 563 q 643 577 701 577 z"},"ട":{"ha":484,"x_min":9,"x_max":469,"o":"m 251 577 l 251 577 q 314 577 366 565 q 418 553 469 531 l 469 531 l 409 431 q 369 448 333 457 q 297 465 253 465 l 253 465 q 221 465 202 456 q 182 447 173 433 q 164 418 164 403 l 164 403 q 164 387 168 377 q 172 367 180 360 l 180 360 q 192 350 209 347 q 225 343 248 343 l 248 343 l 260 343 q 309 343 348 331 q 386 318 412 293 l 412 293 q 437 272 450 243 q 463 213 463 173 l 463 173 q 463 121 438 79 q 413 36 361 12 q 309 -12 226 -12 l 226 -12 q 169 -12 113 0 q 56 11 9 35 l 9 35 l 69 136 q 95 124 119 116 q 143 108 169 104 q 195 100 224 100 l 224 100 q 259 100 280 109 q 301 118 311 133 q 320 148 320 166 l 320 166 q 320 182 315 195 q 309 208 297 216 l 297 216 q 286 223 273 227 q 260 230 233 230 l 233 230 l 230 230 q 175 230 131 245 q 86 259 60 287 l 60 287 q 42 307 32 335 q 22 362 22 396 l 22 396 q 22 448 48 489 q 73 530 124 554 q 175 577 251 577 z"},"ഠ":{"ha":577,"x_min":32,"x_max":544,"o":"m 288 577 l 288 577 q 370 577 427 543 q 484 508 514 442 q 544 376 544 282 l 544 282 q 544 188 514 122 q 484 56 427 22 q 370 -12 288 -12 l 288 -12 q 205 -12 148 24 q 91 59 62 125 q 32 191 32 282 l 32 282 q 32 378 63 444 q 93 509 150 543 q 207 577 288 577 z m 288 100 l 288 100 q 324 100 349 121 q 373 141 386 181 q 398 221 398 282 l 398 282 q 398 343 386 383 q 373 423 349 444 q 325 465 289 465 l 289 465 q 236 465 207 421 q 178 377 178 282 l 178 282 q 178 192 206 146 q 234 100 288 100 z"},"ഡ":{"ha":1042,"x_min":33,"x_max":1009,"o":"m 515 -12 l 515 -12 q 466 -12 431 3 q 396 17 371 41 l 371 41 q 352 61 340 86 q 328 111 322 146 q 315 180 315 225 l 315 225 l 315 350 q 315 396 311 415 q 307 433 299 445 l 299 445 q 292 456 281 461 q 270 466 255 466 l 255 466 q 234 466 216 451 q 198 435 187 400 q 176 365 176 305 l 176 305 q 176 255 185 212 q 194 169 210 130 q 226 90 248 49 l 248 49 l 132 -14 q 104 31 82 80 q 59 129 46 185 q 33 241 33 307 l 33 307 q 33 389 59 450 q 84 510 135 544 q 185 577 258 577 l 258 577 q 306 577 342 565 q 377 552 402 526 l 402 526 q 423 506 434 480 q 445 454 451 420 q 456 386 456 343 l 456 343 l 456 215 q 456 175 460 155 q 464 135 473 121 l 473 121 q 481 110 493 105 q 504 100 520 100 l 520 100 q 532 100 544 105 q 555 109 562 117 l 562 117 q 574 130 579 152 q 583 174 583 214 l 583 214 l 583 565 l 724 565 l 724 226 q 724 175 728 150 q 732 125 747 111 l 747 111 q 754 105 764 102 q 774 99 782 99 l 782 99 q 804 99 823 116 q 842 132 854 168 q 866 204 866 262 l 866 262 q 866 307 858 349 q 849 391 833 432 q 817 473 794 514 l 794 514 l 911 577 q 941 532 963 483 q 985 433 997 378 q 1009 322 1009 257 l 1009 257 q 1009 178 984 117 q 959 56 912 22 q 865 -12 798 -12 l 798 -12 q 751 -12 714 4 q 677 20 643 61 l 643 61 l 667 66 q 637 29 604 9 q 570 -12 515 -12 z"},"ഢ":{"ha":1155,"x_min":33,"x_max":1121,"o":"m 515 -11 l 515 -11 q 466 -11 431 3 q 396 17 371 42 l 371 42 q 352 62 340 87 q 328 112 322 147 q 315 181 315 226 l 315 226 l 315 351 q 315 396 311 415 q 307 434 299 446 l 299 446 q 292 457 281 462 q 270 466 255 466 l 255 466 q 234 466 216 451 q 198 436 187 401 q 176 366 176 306 l 176 306 q 176 256 185 213 q 194 170 210 131 q 226 91 248 50 l 248 50 l 132 -13 q 104 32 82 81 q 59 130 46 186 q 33 242 33 308 l 33 308 q 33 390 59 451 q 84 511 134 545 q 184 578 258 578 l 258 578 q 306 578 342 566 q 377 553 402 527 l 402 527 q 423 507 434 481 q 445 454 451 421 q 456 387 456 344 l 456 344 l 456 217 q 456 176 460 156 q 464 135 473 122 l 473 122 q 481 111 493 106 q 504 100 520 100 l 520 100 q 532 100 544 105 q 555 110 562 117 l 562 117 q 574 131 579 153 q 583 175 583 215 l 583 215 l 583 566 l 724 566 l 724 302 l 667 67 q 638 31 604 10 q 570 -11 515 -11 z m 939 577 l 939 577 q 990 577 1031 553 q 1072 528 1097 472 q 1121 416 1121 321 l 1121 321 q 1121 211 1084 137 q 1046 62 981 25 q 916 -12 832 -12 l 832 -12 q 763 -12 716 12 q 669 35 630 87 l 630 87 l 610 213 l 609 511 l 724 511 l 724 269 q 724 205 732 174 q 740 142 757 125 l 757 125 q 769 113 787 106 q 805 99 832 99 l 832 99 q 877 99 914 123 q 950 146 973 196 q 995 246 995 324 l 995 324 l 995 334 q 995 391 989 420 q 982 449 970 460 q 958 470 944 470 l 944 470 q 933 470 925 463 q 916 456 912 440 q 907 423 907 395 l 907 395 q 907 354 917 337 q 927 319 949 319 l 949 319 q 971 319 992 336 q 1013 353 1040 393 l 1040 393 l 1062 291 q 1037 262 997 239 q 957 215 910 215 l 910 215 q 865 215 834 237 q 802 258 787 297 q 772 335 772 386 l 772 386 q 772 448 792 491 q 811 534 848 556 q 885 577 939 577 z"},"ണ":{"ha":1161,"x_min":34,"x_max":1128,"o":"m 323 577 l 323 577 q 391 577 438 554 q 485 531 524 478 l 524 478 l 483 493 q 512 535 552 556 q 591 577 637 577 l 637 577 q 682 577 718 559 q 754 541 784 502 l 784 502 l 762 506 q 795 544 831 561 q 867 577 915 577 l 915 577 q 982 577 1030 544 q 1077 510 1103 450 q 1128 389 1128 308 l 1128 308 q 1128 242 1115 186 q 1101 129 1080 80 q 1058 31 1030 -13 l 1030 -13 l 912 50 q 935 91 951 132 q 967 173 976 216 q 985 258 985 303 l 985 303 q 985 364 973 400 q 960 435 940 451 q 920 466 899 466 l 899 466 q 892 466 883 463 q 873 459 865 453 l 865 453 q 850 438 847 414 q 843 390 843 339 l 843 339 l 843 0 l 702 0 l 702 344 q 702 390 698 412 q 694 434 681 448 l 681 448 q 673 457 663 462 q 653 466 636 466 l 636 466 q 623 466 612 461 q 601 456 593 448 l 593 448 q 580 434 576 413 q 571 391 571 341 l 571 341 l 571 0 l 430 0 l 430 297 q 430 362 423 393 q 415 424 398 440 l 398 440 q 386 453 369 460 q 352 466 323 466 l 323 466 q 279 466 242 443 q 205 419 183 370 q 160 320 160 241 l 160 241 l 160 232 q 160 174 167 145 q 174 115 186 105 q 198 95 210 95 l 210 95 q 222 95 231 103 q 239 110 244 126 q 248 142 248 170 l 248 170 q 248 213 238 230 q 228 247 205 247 l 205 247 q 184 247 163 230 q 142 213 114 173 l 114 173 l 93 275 q 118 304 158 327 q 197 350 244 350 l 244 350 q 291 350 322 329 q 352 307 368 269 q 383 231 383 179 l 383 179 q 383 117 364 75 q 344 32 307 10 q 269 -12 215 -12 l 215 -12 q 165 -12 124 13 q 83 37 59 94 q 34 150 34 244 l 34 244 q 34 356 71 430 q 108 504 174 541 q 240 577 323 577 z"},"ത":{"ha":900,"x_min":33,"x_max":867,"o":"m 448 -12 l 448 -12 q 387 -12 345 16 q 303 43 281 95 q 258 147 258 221 l 258 221 q 258 286 275 337 q 292 388 326 429 q 359 470 409 505 l 409 505 l 429 528 q 463 552 504 565 q 545 577 597 577 l 597 577 q 675 577 728 553 q 780 528 811 487 q 842 445 855 394 q 867 343 867 291 l 867 291 q 867 226 852 171 q 837 116 812 72 q 787 27 755 -12 l 755 -12 l 646 52 q 667 85 684 121 q 701 156 712 197 q 723 237 723 283 l 723 283 q 723 339 709 381 q 694 423 664 447 q 634 471 587 471 l 587 471 q 567 471 550 468 q 533 465 519 458 l 519 458 l 505 454 q 469 435 446 399 q 423 362 411 315 q 399 268 399 219 l 399 219 q 399 171 406 145 q 412 118 424 108 q 435 98 449 98 l 449 98 q 463 98 475 108 q 486 118 493 144 q 499 170 499 217 l 499 217 q 499 271 488 318 q 476 364 455 399 q 433 433 405 451 l 405 451 l 386 459 q 374 465 358 468 q 341 471 328 471 l 328 471 q 274 471 241 447 q 208 423 193 383 q 177 342 177 291 l 177 291 q 177 244 187 203 q 196 162 213 126 q 230 89 252 53 l 252 53 l 143 -12 q 111 27 87 72 q 62 117 48 172 q 33 227 33 297 l 33 297 q 33 343 46 392 q 59 441 91 484 q 122 526 177 552 q 232 577 316 577 l 316 577 q 365 577 405 565 q 444 553 479 530 l 479 530 l 493 508 q 564 461 602 393 q 640 324 640 221 l 640 221 q 640 142 618 91 q 596 39 553 14 q 510 -12 448 -12 z"},"ഥ":{"ha":783,"x_min":51,"x_max":735,"o":"m 51 565 l 193 565 l 193 110 l 332 110 l 332 0 l 51 0 l 51 565 z m 513 577 l 513 577 q 569 577 607 563 q 645 549 671 523 l 671 523 q 709 488 722 439 q 735 389 735 311 l 735 311 l 735 0 l 288 0 l 288 306 q 288 361 294 400 q 299 439 313 469 q 326 498 350 522 l 350 522 q 376 548 415 563 q 454 577 513 577 z m 511 466 l 511 466 q 492 466 478 460 q 464 454 455 444 l 455 444 q 440 426 435 397 q 429 367 429 310 l 429 310 l 429 110 l 593 110 l 593 306 q 593 367 588 396 q 583 425 568 444 l 568 444 q 559 454 544 460 q 529 466 511 466 z"},"ദ":{"ha":564,"x_min":36,"x_max":535,"o":"m 332 577 l 332 577 q 396 577 440 556 q 483 535 506 498 q 528 461 528 414 l 528 414 q 528 363 508 331 q 487 299 441 277 l 441 277 l 445 285 q 486 269 511 233 q 535 197 535 145 l 535 145 q 535 71 492 30 q 449 -12 360 -12 l 360 -12 q 335 -12 310 -8 q 284 -5 261 1 l 261 1 l 281 106 q 295 102 308 100 q 321 98 335 98 l 335 98 q 366 98 380 113 q 393 128 393 157 l 393 157 q 393 174 388 187 q 382 200 372 209 l 372 209 q 362 218 346 223 q 329 227 301 227 l 301 227 l 281 227 l 281 334 l 297 334 q 324 334 340 339 q 356 344 365 352 l 365 352 q 376 360 381 373 q 386 386 386 403 l 386 403 q 386 433 371 450 q 355 467 324 467 l 324 467 q 277 467 245 437 q 212 406 195 352 q 178 297 178 226 l 178 226 q 178 171 184 120 q 190 68 200 25 l 200 25 l 66 -4 q 53 46 45 108 q 36 170 36 227 l 36 227 q 36 336 70 414 q 103 492 169 535 q 235 577 332 577 z"},"ധ":{"ha":782,"x_min":33,"x_max":749,"o":"m 529 -12 l 529 -12 q 499 -12 474 -4 q 449 3 428 19 q 407 34 385 56 l 385 56 l 400 58 q 367 21 331 5 q 294 -12 246 -12 l 246 -12 q 179 -12 131 22 q 83 56 58 117 q 33 178 33 257 l 33 257 q 33 323 46 380 q 58 436 81 485 q 103 534 131 579 l 131 579 l 249 515 q 226 475 210 436 q 194 396 185 354 q 176 311 176 262 l 176 262 q 176 204 189 168 q 201 132 222 116 q 242 99 264 99 l 264 99 q 275 99 284 102 q 292 105 297 109 l 297 109 q 310 122 316 146 q 321 169 321 216 l 321 216 l 321 565 l 462 565 l 462 214 q 462 164 467 143 q 471 121 484 109 l 484 109 q 489 104 498 102 q 506 99 518 99 l 518 99 q 538 99 559 115 q 579 130 593 166 q 606 202 606 263 l 606 263 q 606 308 598 352 q 589 395 574 437 q 558 478 534 515 l 534 515 l 650 579 q 681 531 703 481 q 724 431 737 376 q 749 321 749 260 l 749 260 q 749 182 725 121 q 700 59 651 24 q 602 -12 529 -12 z"},"ന":{"ha":782,"x_min":33,"x_max":749,"o":"m 253 577 l 253 577 q 285 577 309 570 q 333 562 354 548 q 375 533 397 509 l 397 509 l 382 507 q 415 545 451 561 q 487 577 536 577 l 536 577 q 604 577 652 544 q 699 510 724 450 q 749 389 749 308 l 749 308 q 749 242 737 186 q 724 129 702 81 q 680 32 650 -14 l 650 -14 l 533 50 q 556 91 573 131 q 589 170 598 212 q 606 254 606 303 l 606 303 q 606 362 594 398 q 581 433 561 450 q 541 466 518 466 l 518 466 q 508 466 500 463 q 491 460 485 456 l 485 456 q 472 444 467 420 q 461 396 461 349 l 461 349 l 461 0 l 320 0 l 320 351 q 320 401 315 423 q 310 444 298 456 l 298 456 q 293 461 285 464 q 276 466 264 466 l 264 466 q 243 466 223 451 q 203 435 190 399 q 176 363 176 302 l 176 302 q 176 258 185 214 q 193 170 209 129 q 225 88 247 50 l 247 50 l 132 -14 q 102 34 80 84 q 58 134 46 189 q 33 244 33 306 l 33 306 q 33 383 58 445 q 82 506 131 542 q 180 577 253 577 z"},"ഩ":{"ha":892,"x_min":34,"x_max":859,"o":"m 323 577 l 323 577 q 391 577 438 554 q 485 531 524 478 l 524 478 l 482 495 q 515 541 556 559 q 597 577 646 577 l 646 577 q 713 577 761 544 q 809 510 834 450 q 859 389 859 308 l 859 308 q 859 241 846 185 q 833 128 811 80 q 789 32 761 -14 l 761 -14 l 643 50 q 666 91 683 131 q 699 170 708 212 q 716 254 716 303 l 716 303 q 716 362 704 398 q 691 433 671 450 q 651 466 628 466 l 628 466 q 618 466 610 463 q 601 460 595 456 l 595 456 q 581 444 577 420 q 572 396 572 350 l 572 350 l 572 0 l 431 0 l 431 296 q 431 362 423 393 q 415 424 398 440 l 398 440 q 386 453 369 460 q 351 466 323 466 l 323 466 q 279 466 242 443 q 205 419 183 370 q 160 320 160 241 l 160 241 l 160 232 q 160 174 167 145 q 174 115 186 105 q 198 95 210 95 l 210 95 q 222 95 231 103 q 239 110 244 126 q 248 142 248 170 l 248 170 q 248 213 238 230 q 228 247 205 247 l 205 247 q 184 247 163 230 q 142 213 114 173 l 114 173 l 93 275 q 118 304 158 327 q 197 350 244 350 l 244 350 q 291 350 322 329 q 352 307 368 269 q 383 230 383 179 l 383 179 q 383 116 364 74 q 344 32 307 10 q 269 -12 215 -12 l 215 -12 q 165 -12 124 13 q 83 37 59 94 q 34 150 34 245 l 34 245 q 34 356 71 430 q 108 504 174 541 q 240 577 323 577 z"},"പ":{"ha":766,"x_min":27,"x_max":715,"o":"m 219 367 l 219 367 q 287 367 328 340 q 369 313 388 271 q 406 229 406 184 l 406 184 q 406 152 396 123 q 385 94 374 74 l 374 74 l 366 110 l 574 110 l 574 565 l 715 565 l 715 0 l 290 0 l 245 66 q 254 83 262 110 q 270 137 270 174 l 270 174 q 270 209 259 233 q 247 257 220 257 l 220 257 q 202 257 191 247 q 179 236 174 218 q 168 199 168 177 l 168 177 q 168 129 181 99 q 194 69 207 39 l 207 39 l 92 -12 q 63 30 45 76 q 27 121 27 180 l 27 180 q 27 237 50 278 q 73 319 117 343 q 160 367 219 367 z"},"ഫ":{"ha":976,"x_min":27,"x_max":928,"o":"m 219 367 l 219 367 q 287 367 328 340 q 369 313 388 271 q 406 229 406 184 l 406 184 q 406 152 396 123 q 385 94 374 74 l 374 74 l 363 110 l 537 110 l 537 0 l 290 0 l 245 66 q 254 83 262 110 q 270 137 270 174 l 270 174 q 270 209 259 233 q 247 257 220 257 l 220 257 q 202 257 191 247 q 179 236 174 218 q 168 199 168 177 l 168 177 q 168 129 181 99 q 194 69 207 39 l 207 39 l 92 -12 q 63 31 45 76 q 27 121 27 180 l 27 180 q 27 237 50 278 q 73 319 117 343 q 160 367 219 367 z m 706 577 l 706 577 q 762 577 801 563 q 839 549 865 523 l 865 523 q 902 488 915 439 q 928 389 928 311 l 928 311 l 928 0 l 481 0 l 481 306 q 481 361 487 400 q 493 439 506 469 q 519 498 543 522 l 543 522 q 569 548 609 563 q 648 577 706 577 z m 705 466 l 705 466 q 685 466 671 460 q 657 454 649 444 l 649 444 q 633 426 628 397 q 623 367 623 310 l 623 310 l 623 110 l 787 110 l 787 306 q 787 367 782 396 q 776 425 761 444 l 761 444 q 752 454 737 460 q 722 466 705 466 z"},"ബ":{"ha":1134,"x_min":34,"x_max":1083,"o":"m 323 577 l 323 577 q 391 577 438 554 q 485 531 525 477 l 525 477 l 548 400 l 572 279 l 572 0 l 431 0 l 431 296 q 431 362 423 393 q 415 424 398 440 l 398 440 q 386 453 369 460 q 351 466 323 466 l 323 466 q 279 466 242 443 q 205 419 183 370 q 160 320 160 241 l 160 241 l 160 232 q 160 174 167 145 q 174 115 186 105 q 198 95 210 95 l 210 95 q 222 95 231 103 q 239 110 244 127 q 248 143 248 170 l 248 170 q 248 213 238 230 q 228 247 205 247 l 205 247 q 184 247 163 230 q 142 213 114 173 l 114 173 l 93 275 q 118 304 158 327 q 197 350 244 350 l 244 350 q 291 350 322 329 q 352 307 368 269 q 383 230 383 179 l 383 179 q 383 116 364 74 q 344 32 307 10 q 269 -12 215 -12 l 215 -12 q 165 -12 124 13 q 83 37 59 94 q 34 150 34 245 l 34 245 q 34 356 71 430 q 108 504 174 541 q 240 577 323 577 z m 942 565 l 1083 565 l 1083 0 l 719 0 l 652 68 q 677 114 691 152 q 705 190 710 227 q 715 263 715 303 l 715 303 q 715 362 703 398 q 691 433 671 450 q 651 466 628 466 l 628 466 q 618 466 610 463 q 601 460 595 456 l 595 456 q 581 444 577 420 q 572 396 572 351 l 572 351 l 572 7 l 442 7 l 442 236 l 472 423 l 482 495 q 515 541 556 559 q 596 577 646 577 l 646 577 q 713 577 761 544 q 808 510 833 450 q 858 389 858 308 l 858 308 q 858 263 852 225 q 845 187 834 155 q 822 122 805 92 l 805 92 l 780 110 l 942 110 l 942 565 z"},"ഭ":{"ha":604,"x_min":36,"x_max":579,"o":"m 368 577 l 368 577 q 433 577 480 560 q 527 542 553 508 q 579 474 579 425 l 579 425 q 579 397 571 373 q 562 349 541 333 l 541 333 q 523 318 493 311 q 463 304 421 304 l 421 304 l 421 304 q 409 304 401 303 q 392 301 386 297 l 386 297 q 381 293 378 288 q 375 283 375 276 l 375 276 q 375 260 390 256 q 404 251 421 251 l 421 251 l 419 251 q 463 251 491 243 q 519 234 536 220 l 536 220 q 557 203 568 180 q 578 157 578 126 l 578 126 q 578 88 561 57 q 543 25 503 7 q 462 -12 393 -12 l 393 -12 q 366 -12 339 -9 q 312 -6 286 0 q 260 6 236 15 l 236 15 l 278 113 q 308 105 334 100 q 360 95 386 95 l 386 95 q 420 95 433 103 q 446 111 446 125 l 446 125 q 446 137 438 144 q 429 150 407 150 l 407 150 l 408 150 q 360 150 330 159 q 299 167 281 186 l 281 186 q 265 201 255 225 q 244 248 244 275 l 244 275 q 244 307 255 331 q 266 354 287 370 l 287 370 q 306 384 331 393 q 356 401 402 401 l 402 401 l 405 401 q 425 401 435 406 q 445 411 445 426 l 445 426 q 445 446 424 457 q 403 467 365 467 l 365 467 q 297 467 256 438 q 214 408 196 354 q 178 300 178 226 l 178 226 q 178 171 184 120 q 190 68 200 25 l 200 25 l 66 -4 q 53 46 45 108 q 36 170 36 227 l 36 227 q 36 335 70 413 q 104 491 178 534 q 252 577 368 577 z"},"മ":{"ha":663,"x_min":45,"x_max":618,"o":"m 326 577 l 326 577 q 407 577 460 557 q 513 537 547 503 l 547 503 q 571 478 587 446 q 603 413 611 368 q 618 323 618 260 l 618 260 l 618 0 l 45 0 l 45 261 q 45 327 54 373 q 62 418 78 450 q 94 482 119 506 l 119 506 q 153 540 203 559 q 253 577 326 577 z m 250 461 l 250 461 q 236 461 224 451 q 212 441 203 423 l 203 423 q 194 405 190 376 q 185 347 185 294 l 185 294 l 185 66 l 159 69 q 195 117 225 172 q 254 226 271 283 q 288 339 288 392 l 288 392 q 288 416 285 431 q 281 446 273 454 q 264 461 250 461 z m 427 359 l 427 359 q 427 314 416 272 q 405 229 384 188 q 363 146 334 100 l 334 100 l 319 106 q 336 108 359 109 q 382 110 395 110 l 395 110 l 479 110 l 479 285 q 479 345 468 382 q 457 419 437 442 q 416 464 383 477 l 383 477 l 384 480 q 403 460 415 429 q 427 397 427 359 z"},"യ":{"ha":912,"x_min":35,"x_max":877,"o":"m 588 -12 l 588 -12 q 532 -12 490 1 q 448 14 409 41 l 409 41 q 404 45 400 54 q 396 63 391 68 l 391 68 q 344 103 317 150 q 289 196 278 247 q 266 297 266 347 l 266 347 q 266 384 272 414 q 277 444 287 468 l 287 468 l 312 502 q 328 530 352 547 q 376 563 405 570 q 434 577 463 577 l 463 577 q 559 577 608 517 q 657 457 657 349 l 657 349 q 657 252 620 178 q 582 103 519 56 l 519 56 q 512 51 505 44 q 498 37 490 32 l 490 32 q 454 11 416 0 q 377 -12 326 -12 l 326 -12 q 249 -12 194 15 q 139 41 104 88 q 68 134 52 195 q 35 255 35 324 l 35 324 q 35 402 58 459 q 80 516 128 547 q 175 577 246 577 l 246 577 q 296 577 338 553 q 379 529 410 483 l 410 483 l 311 424 q 297 448 281 459 q 264 469 250 469 l 250 469 q 225 469 209 453 q 193 437 185 406 q 177 375 177 331 l 177 331 q 177 253 197 200 q 217 147 252 121 q 287 94 331 94 l 331 94 q 354 94 372 99 q 389 103 405 110 l 405 110 q 412 114 418 115 q 423 116 428 120 l 428 120 q 458 143 478 181 q 497 218 506 263 q 515 307 515 349 l 515 349 q 515 395 508 421 q 500 447 488 457 q 476 467 462 467 l 462 467 q 447 467 434 457 q 421 447 414 422 q 407 396 407 349 l 407 349 q 407 311 415 269 q 422 227 438 190 q 453 153 477 129 l 477 129 q 483 123 491 120 q 498 117 505 112 l 505 112 q 520 104 540 100 q 559 95 582 95 l 582 95 q 633 95 667 118 q 700 141 717 187 q 733 233 733 303 l 733 303 q 733 359 718 415 q 702 470 675 525 l 675 525 l 798 578 q 837 516 857 448 q 877 380 877 310 l 877 310 q 877 249 864 191 q 851 133 820 88 q 788 42 731 15 q 674 -12 588 -12 z"},"ര":{"ha":658,"x_min":33,"x_max":625,"o":"m 324 577 l 324 577 q 401 577 458 551 q 514 525 551 478 q 588 431 607 370 q 625 308 625 236 l 625 236 q 625 148 603 93 q 581 38 539 13 q 496 -12 432 -12 l 432 -12 q 368 -12 329 17 q 290 45 273 94 q 255 143 255 205 l 255 205 q 255 303 295 355 q 335 407 410 407 l 410 407 q 453 407 484 382 q 515 357 536 317 q 556 277 566 230 l 566 230 l 512 224 q 507 246 499 265 q 490 283 477 295 q 463 306 445 306 l 445 306 q 418 306 406 282 q 393 257 393 200 l 393 200 q 393 165 399 142 q 404 118 414 107 q 424 96 439 96 l 439 96 q 455 96 466 108 q 476 120 482 150 q 487 179 487 232 l 487 232 q 487 252 486 271 q 485 290 483 306 l 483 306 q 482 311 481 319 q 480 327 479 331 l 479 331 q 475 365 456 396 q 436 427 404 446 q 372 465 331 465 l 331 465 q 278 465 244 444 q 210 423 194 383 q 177 343 177 289 l 177 289 q 177 241 187 201 q 196 160 214 123 q 231 86 255 49 l 255 49 l 145 -13 q 113 25 88 71 q 62 117 48 172 q 33 227 33 296 l 33 296 q 33 353 50 404 q 67 454 103 493 q 138 532 194 555 q 249 577 324 577 z"},"റ":{"ha":589,"x_min":32,"x_max":557,"o":"m 296 577 l 296 577 q 369 577 419 554 q 469 530 500 490 q 530 449 544 399 q 557 348 557 293 l 557 293 q 557 227 542 172 q 527 117 501 72 q 475 26 442 -13 l 442 -13 l 331 51 q 355 85 373 122 q 390 158 400 200 q 410 242 410 293 l 410 293 q 410 345 397 384 q 384 422 359 444 q 334 465 299 465 l 299 465 q 262 465 235 445 q 208 425 193 386 q 178 347 178 294 l 178 294 q 178 244 188 203 q 197 161 214 124 q 231 87 256 51 l 256 51 l 144 -14 q 112 25 87 71 q 61 116 47 172 q 32 227 32 296 l 32 296 q 32 346 46 396 q 60 446 91 487 q 121 528 172 553 q 222 577 296 577 z"},"ല":{"ha":742,"x_min":48,"x_max":691,"o":"m 550 565 l 691 565 l 691 0 l 48 0 l 48 310 q 48 390 62 437 q 76 483 102 514 l 102 514 q 127 543 167 560 q 207 577 263 577 l 263 577 q 319 577 360 560 q 401 543 426 512 l 426 512 q 455 477 467 431 q 478 384 478 311 l 478 311 l 478 212 l 189 212 l 189 110 l 550 110 l 550 565 z m 263 467 l 263 467 q 222 467 206 435 q 189 402 189 341 l 189 341 l 189 322 l 337 322 l 337 340 q 337 403 320 435 q 302 467 263 467 z"},"ള":{"ha":642,"x_min":31,"x_max":614,"o":"m 340 467 l 340 467 q 305 467 274 461 q 242 454 216 442 q 190 429 173 413 q 156 396 151 376 l 151 376 q 149 369 151 365 q 152 360 151 353 l 151 353 q 150 346 149 332 q 147 318 147 300 l 147 300 q 147 262 157 244 q 167 226 186 226 l 186 226 q 202 226 210 242 q 218 257 218 282 l 218 282 q 218 301 214 313 q 210 325 202 331 q 194 337 183 337 l 183 337 q 168 337 155 332 q 142 327 125 313 l 125 313 l 63 338 q 84 362 109 382 q 134 402 163 414 q 191 426 219 426 l 219 426 q 264 426 292 408 q 320 390 334 358 q 347 325 347 281 l 347 281 q 347 240 333 205 q 318 170 284 148 q 250 126 194 126 l 194 126 q 145 126 109 148 q 72 169 52 211 q 31 253 31 315 l 31 315 q 31 367 48 414 q 65 461 103 498 q 141 535 203 556 q 264 577 353 577 l 353 577 q 430 577 487 557 q 544 536 576 497 q 607 458 607 404 l 607 404 q 607 358 585 328 q 563 297 522 281 q 480 264 420 261 l 420 261 l 387 314 l 387 335 l 390 335 q 407 335 422 339 q 436 343 447 351 l 447 351 q 455 357 460 368 q 465 379 465 393 l 465 393 q 465 419 450 435 q 434 451 406 459 q 377 467 340 467 z m 614 156 l 614 156 q 614 113 597 83 q 580 53 554 34 l 554 34 q 535 22 513 15 q 491 7 461 4 q 430 0 388 0 l 388 0 l 280 0 q 242 0 225 -2 q 208 -5 199 -10 l 199 -10 q 187 -16 182 -24 q 176 -33 176 -44 l 176 -44 q 176 -55 181 -64 q 186 -73 195 -80 l 195 -80 q 205 -85 223 -88 q 241 -92 278 -92 l 278 -92 l 594 -92 l 594 -203 l 280 -203 q 212 -203 171 -195 q 129 -187 103 -172 l 103 -172 q 71 -153 53 -122 q 34 -92 34 -49 l 34 -49 q 34 -9 50 22 q 66 53 97 74 l 97 74 q 117 87 140 95 q 163 102 198 106 q 232 110 284 110 l 284 110 l 374 110 q 406 110 424 113 q 441 115 452 124 l 452 124 q 462 131 467 142 q 472 153 472 168 l 472 168 q 472 184 465 197 q 458 209 446 216 l 446 216 q 437 222 424 225 q 410 227 386 227 l 386 227 l 387 227 l 387 326 l 519 291 q 562 272 588 239 q 614 205 614 156 z"},"ഴ":{"ha":606,"x_min":29,"x_max":577,"o":"m 226 418 l 226 418 q 226 491 271 534 q 316 577 399 577 l 399 577 q 462 577 501 551 q 540 525 559 485 q 577 444 577 402 l 577 402 q 577 329 549 275 q 521 220 466 190 q 411 159 330 159 l 330 159 l 301 159 q 218 159 157 188 q 95 217 62 272 q 29 326 29 402 l 29 402 q 29 446 42 491 q 55 535 78 578 l 78 578 l 201 530 q 189 499 180 469 q 171 438 171 404 l 171 404 q 171 354 188 321 q 205 288 236 272 q 266 256 305 256 l 305 256 l 329 256 q 366 256 390 276 q 414 295 426 329 q 438 362 438 404 l 438 404 q 438 439 428 457 q 417 475 398 475 l 398 475 q 388 475 380 468 q 371 461 366 448 q 361 434 361 414 l 361 414 q 361 384 372 352 q 383 319 397 285 q 411 251 422 214 q 433 176 433 135 l 433 135 q 433 98 419 64 q 405 30 370 9 q 335 -12 272 -12 l 272 -12 q 237 -12 200 -5 q 162 1 126 15 l 126 15 l 169 116 q 193 107 211 103 q 229 99 245 99 l 245 99 q 277 99 288 118 q 299 137 299 155 l 299 155 q 299 184 288 216 q 277 248 263 282 q 248 315 237 350 q 226 384 226 418 z"},"വ":{"ha":835,"x_min":32,"x_max":784,"o":"m 296 577 l 296 577 q 369 577 419 554 q 468 531 498 492 q 528 452 541 404 q 554 355 554 304 l 554 304 q 554 246 542 199 q 529 152 507 110 q 484 68 454 28 l 454 28 l 496 110 l 643 110 l 643 565 l 784 565 l 784 0 l 408 0 l 341 68 q 359 95 375 129 q 391 162 401 203 q 410 244 410 293 l 410 293 q 410 345 397 384 q 384 422 359 444 q 334 465 299 465 l 299 465 q 262 465 235 445 q 208 425 193 387 q 178 348 178 294 l 178 294 q 178 244 188 203 q 197 161 214 124 q 231 87 256 50 l 256 50 l 144 -14 q 112 24 87 70 q 61 116 47 172 q 32 227 32 296 l 32 296 q 32 346 46 396 q 60 446 91 487 q 121 528 172 553 q 222 577 296 577 z"},"ശ":{"ha":907,"x_min":33,"x_max":875,"o":"m 571 577 l 571 577 q 645 577 702 552 q 759 527 798 481 q 836 435 856 373 q 875 311 875 236 l 875 236 q 875 148 853 93 q 831 38 788 13 q 745 -12 682 -12 l 682 -12 q 618 -12 579 17 q 540 45 523 94 q 505 143 505 205 l 505 205 q 505 303 545 355 q 584 407 659 407 l 659 407 q 702 407 733 382 q 764 357 785 317 q 805 277 815 230 l 815 230 l 761 224 q 757 246 748 265 q 739 283 726 295 q 712 306 693 306 l 693 306 q 667 306 655 282 q 642 257 642 200 l 642 200 q 642 165 647 142 q 652 118 663 107 q 673 96 688 96 l 688 96 q 703 96 714 108 q 725 120 731 150 q 736 179 736 232 l 736 232 q 736 252 735 271 q 734 290 732 306 l 732 306 q 732 311 732 319 q 732 327 730 331 l 730 331 q 726 365 707 396 q 688 426 656 446 q 624 465 579 465 l 579 465 q 551 465 532 460 q 513 455 496 441 l 496 441 q 473 420 464 384 q 455 347 455 276 l 455 276 l 455 225 q 455 161 444 116 q 432 71 402 41 l 402 41 q 376 15 341 2 q 305 -12 256 -12 l 256 -12 q 182 -12 133 22 q 83 55 58 116 q 33 176 33 258 l 33 258 q 33 324 46 381 q 59 437 82 486 q 104 534 132 579 l 132 579 l 248 516 q 226 476 210 437 q 194 397 185 354 q 176 311 176 261 l 176 261 q 176 201 187 166 q 198 131 216 116 q 234 100 254 100 l 254 100 q 268 100 279 105 q 290 110 297 121 l 297 121 q 306 135 309 154 q 312 172 312 209 l 312 209 l 312 302 q 312 389 335 445 q 358 500 403 531 l 403 531 q 433 554 473 566 q 513 577 571 577 z"},"ഷ":{"ha":1027,"x_min":27,"x_max":976,"o":"m 219 367 l 219 367 q 287 367 328 340 q 369 313 388 271 q 406 229 406 184 l 406 184 q 406 152 396 123 q 385 94 374 74 l 374 74 l 365 110 l 590 110 l 621 0 l 290 0 l 245 66 q 254 83 262 110 q 270 137 270 174 l 270 174 q 270 209 259 233 q 247 257 220 257 l 220 257 q 202 257 191 247 q 179 236 174 218 q 168 199 168 177 l 168 177 q 168 129 181 99 q 194 69 207 39 l 207 39 l 92 -12 q 63 30 45 76 q 27 121 27 180 l 27 180 q 27 237 50 278 q 73 319 117 343 q 160 367 219 367 z m 976 0 l 574 0 l 574 413 q 574 431 573 443 q 571 454 566 461 l 566 461 q 563 466 559 468 q 554 470 548 470 l 548 470 q 532 470 523 455 q 513 440 513 412 l 513 412 q 513 388 519 370 q 524 352 543 342 q 561 331 597 331 l 597 331 l 630 331 q 671 331 703 352 q 735 373 760 408 q 785 443 804 484 q 823 525 838 565 l 838 565 l 976 565 l 976 0 z m 554 577 l 554 577 q 592 577 619 568 q 646 559 664 541 l 664 541 q 688 519 699 485 q 710 450 710 396 l 710 396 l 710 110 l 837 110 l 837 287 q 837 309 838 326 q 839 343 841 359 q 842 374 843 390 l 843 390 l 846 377 q 826 331 793 297 q 760 263 720 246 q 680 228 636 228 l 636 228 l 587 228 q 517 228 473 253 q 428 278 407 320 q 385 361 385 412 l 385 412 q 385 456 405 494 q 424 531 462 554 q 499 577 554 577 z"},"സ":{"ha":1042,"x_min":33,"x_max":1009,"o":"m 529 577 l 529 577 q 576 577 612 563 q 647 549 671 524 l 671 524 q 691 505 703 480 q 715 454 721 421 q 727 387 727 340 l 727 340 l 727 215 q 727 170 731 151 q 735 132 743 120 l 743 120 q 750 109 762 105 q 773 100 787 100 l 787 100 q 809 100 827 116 q 844 131 855 166 q 866 201 866 261 l 866 261 q 866 310 858 354 q 849 397 833 437 q 817 476 794 516 l 794 516 l 910 579 q 939 534 961 486 q 983 437 996 381 q 1009 324 1009 258 l 1009 258 q 1009 176 984 116 q 958 55 908 22 q 858 -12 786 -12 l 786 -12 q 737 -12 702 1 q 666 14 639 39 l 639 39 q 621 59 609 86 q 597 112 592 147 q 586 181 586 222 l 586 222 l 586 350 q 586 390 583 411 q 579 431 569 444 l 569 444 q 561 455 550 461 q 538 466 523 466 l 523 466 q 510 466 499 462 q 487 457 481 449 l 481 449 q 469 435 464 413 q 459 391 459 351 l 459 351 l 459 0 l 318 0 l 318 339 q 318 391 314 416 q 310 441 295 454 l 295 454 q 289 460 279 463 q 268 466 261 466 l 261 466 q 239 466 220 450 q 200 433 188 397 q 176 361 176 303 l 176 303 q 176 259 185 217 q 193 174 209 133 q 225 92 248 51 l 248 51 l 132 -12 q 101 35 79 84 q 57 132 45 188 q 33 244 33 308 l 33 308 q 33 389 58 450 q 83 510 131 544 q 178 577 244 577 l 244 577 q 291 577 328 561 q 365 545 400 504 l 400 504 l 376 499 q 405 536 440 557 q 474 577 529 577 z"},"ഹ":{"ha":1027,"x_min":27,"x_max":995,"o":"m 219 367 l 219 367 q 287 367 328 340 q 369 313 388 271 q 406 229 406 184 l 406 184 q 406 152 396 123 q 385 94 374 74 l 374 74 l 365 110 l 561 110 l 623 0 l 290 0 l 245 66 q 254 83 262 110 q 270 137 270 174 l 270 174 q 270 209 259 233 q 247 257 220 257 l 220 257 q 202 257 191 247 q 179 236 174 218 q 168 199 168 177 l 168 177 q 168 129 181 99 q 194 69 207 39 l 207 39 l 92 -12 q 63 30 45 76 q 27 121 27 180 l 27 180 q 27 237 50 278 q 73 319 117 343 q 160 367 219 367 z m 734 577 l 734 577 q 807 577 857 554 q 907 530 938 490 q 968 449 982 399 q 995 348 995 293 l 995 293 q 995 226 980 171 q 964 115 938 70 q 912 24 880 -14 l 880 -14 l 770 50 q 793 84 811 121 q 829 157 839 200 q 849 242 849 293 l 849 293 q 849 345 836 384 q 823 422 798 444 q 773 465 737 465 l 737 465 q 700 465 673 445 q 646 425 632 386 q 617 347 617 294 l 617 294 q 617 246 626 207 q 634 167 650 133 q 666 99 685 68 l 685 68 l 620 0 l 587 0 l 567 40 q 543 74 521 112 q 499 149 485 196 q 471 242 471 303 l 471 303 q 471 351 485 400 q 498 449 529 489 q 560 528 610 553 q 660 577 734 577 z"},"ഺ":{"ha":596,"x_min":16,"x_max":577,"o":"m 173 110 l 577 110 l 577 0 l 389 0 l 389 -202 l 249 -202 l 249 0 l 89 0 l 16 94 l 195 573 l 331 530 l 173 110 z"},"഻":{"ha":0,"x_min":-328,"x_max":-231,"o":"m -328 599 l -328 864 l -231 864 l -231 599 l -328 599 z"},"഼":{"ha":0,"x_min":-248,"x_max":12,"o":"m -248 729 l -248 729 q -248 788 -214 826 q -180 864 -118 864 l -118 864 q -56 864 -22 827 q 12 789 12 729 l 12 729 q 12 668 -21 630 q -55 592 -118 592 l -118 592 q -181 592 -214 630 q -248 667 -248 729 z m -153 730 l -153 730 q -153 703 -144 690 q -135 677 -118 677 l -118 677 q -100 677 -91 690 q -82 703 -82 729 l -82 729 q -82 753 -91 767 q -100 780 -118 780 l -118 780 q -135 780 -144 767 q -153 754 -153 730 z"},"ഽ":{"ha":433,"x_min":-58,"x_max":490,"o":"m 324 802 l 324 802 q 374 802 407 781 q 440 759 460 724 q 480 689 490 648 l 490 648 l 362 621 q 358 646 353 662 q 348 677 341 685 q 333 692 323 692 l 323 692 q 315 692 309 689 q 302 685 298 678 l 298 678 q 293 669 291 653 q 288 636 288 605 l 288 605 l 288 -8 q 288 -79 276 -128 q 264 -177 224 -208 l 224 -208 q 203 -224 175 -234 q 147 -244 109 -244 l 109 -244 q 59 -244 26 -222 q -8 -201 -27 -165 q -47 -130 -58 -89 l -58 -89 l 70 -62 q 74 -87 80 -103 q 85 -119 93 -126 q 100 -134 109 -134 l 109 -134 q 119 -134 125 -130 q 131 -126 134 -119 l 134 -119 q 141 -108 143 -90 q 145 -72 145 -44 l 145 -44 l 145 567 q 145 635 157 686 q 169 736 210 767 l 210 767 q 231 783 258 793 q 285 802 324 802 z"},"ാ":{"ha":465,"x_min":15,"x_max":429,"o":"m 429 285 l 429 285 q 429 213 419 158 q 408 103 384 65 q 360 27 320 8 q 280 -12 221 -12 l 221 -12 q 164 -12 127 5 q 90 22 68 50 q 45 77 33 113 q 21 148 15 185 l 15 185 l 157 210 q 162 179 170 153 q 177 127 190 112 q 202 97 223 97 l 223 97 q 245 97 259 118 q 272 138 279 180 q 285 222 285 287 l 285 287 q 285 348 279 388 q 272 428 259 448 q 246 468 224 468 l 224 468 q 206 468 193 454 q 180 440 172 416 q 164 391 159 356 l 159 356 l 17 382 q 27 420 41 455 q 55 490 79 518 q 103 545 139 561 q 175 577 229 577 l 229 577 q 286 577 325 556 q 364 535 387 497 q 410 458 420 405 q 429 351 429 285 z"},"ി":{"ha":244,"x_min":-205,"x_max":193,"o":"m -11 852 l -11 852 q 31 852 67 841 q 102 829 127 806 l 127 806 q 153 784 167 753 q 181 722 187 680 q 193 638 193 581 l 193 581 l 193 0 l 51 0 l 51 553 q 51 594 50 628 q 48 662 42 688 q 35 713 24 725 l 24 725 q 17 734 8 738 q -1 742 -15 742 l -15 742 q -30 742 -41 734 q -53 726 -58 713 q -64 700 -64 682 l -64 682 q -64 669 -62 657 q -61 645 -59 637 l -59 637 l -198 621 q -201 633 -203 650 q -205 666 -205 685 l -205 685 q -205 740 -180 777 q -156 814 -112 833 q -69 852 -11 852 z"},"ീ":{"ha":244,"x_min":-244,"x_max":193,"o":"m -66 852 l -66 852 q -8 852 35 837 q 78 822 114 793 l 114 793 q 161 752 177 693 q 193 633 193 538 l 193 538 l 193 0 l 51 0 l 51 517 q 51 587 46 632 q 41 676 30 703 q 18 729 -2 746 l -2 746 q -21 755 -42 760 q -64 764 -87 764 l -87 764 q -101 764 -113 759 q -126 754 -133 743 q -141 732 -141 713 l -141 713 q -141 693 -132 684 q -124 674 -110 674 l -110 674 q -92 674 -85 686 q -79 697 -79 716 l -79 716 q -79 741 -91 761 q -104 780 -121 794 l -121 794 l -12 781 q -2 771 6 751 q 14 730 14 704 l 14 704 q 14 671 1 644 q -13 616 -40 600 q -68 583 -112 583 l -112 583 q -152 583 -182 598 q -213 612 -228 641 q -244 669 -244 711 l -244 711 q -244 751 -225 783 q -207 814 -167 833 q -128 852 -66 852 z"},"ു":{"ha":321,"x_min":-21,"x_max":328,"o":"m 153 -238 l 153 -238 q 68 -238 24 -186 q -21 -135 -21 -53 l -21 -53 q -21 3 -1 45 q 18 86 56 109 q 94 132 152 132 l 152 132 q 210 132 249 110 q 288 87 308 46 q 328 4 328 -54 l 328 -54 q 328 -110 307 -151 q 286 -193 248 -215 q 209 -238 153 -238 z m 154 -135 l 154 -135 q 176 -135 189 -115 q 202 -96 202 -53 l 202 -53 q 202 -11 190 9 q 178 28 155 28 l 155 28 q 130 28 118 9 q 105 -11 105 -54 l 105 -54 q 105 -96 118 -115 q 131 -135 154 -135 z m 126 577 l 126 577 q 181 577 215 554 q 248 530 263 491 q 278 452 278 407 l 278 407 q 278 332 264 261 q 249 189 224 101 l 224 101 l 93 116 q 111 190 123 258 q 135 325 135 390 l 135 390 q 135 423 124 444 q 112 465 83 465 l 83 465 q 73 465 62 464 q 51 462 41 459 l 41 459 l 19 564 q 40 568 66 573 q 92 577 126 577 z"},"ൂ":{"ha":321,"x_min":-21,"x_max":328,"o":"m 154 -238 l 154 -238 q 69 -238 24 -186 q -21 -135 -21 -53 l -21 -53 q -21 3 -1 45 q 18 86 57 109 q 95 132 152 132 l 152 132 q 210 132 249 110 q 288 87 308 46 q 328 4 328 -54 l 328 -54 q 328 -110 307 -151 q 286 -193 248 -215 q 209 -238 154 -238 z m 154 40 l 154 40 q 125 40 103 19 q 81 -2 81 -54 l 81 -54 q 81 -105 102 -125 q 122 -146 154 -146 l 154 -146 q 184 -146 205 -126 q 226 -107 226 -54 l 226 -54 q 226 -3 206 19 q 186 40 154 40 z m 154 -99 l 154 -99 q 108 -99 85 -69 q 61 -40 61 14 l 61 14 q 61 34 70 56 q 79 77 95 101 l 95 101 l 142 74 q 129 63 117 52 q 105 40 105 24 l 105 24 q 105 9 112 0 q 119 -10 130 -14 q 141 -19 154 -19 l 154 -19 q 172 -19 183 -13 q 194 -7 199 3 q 204 12 204 22 l 204 22 q 204 36 196 50 q 187 63 170 72 l 170 72 l 215 101 q 234 77 241 57 q 248 36 248 14 l 248 14 q 248 -17 239 -42 q 229 -68 209 -83 q 188 -99 154 -99 z m 126 577 l 126 577 q 181 577 215 554 q 248 530 263 491 q 278 452 278 407 l 278 407 q 278 332 264 261 q 249 189 224 101 l 224 101 l 93 116 q 111 190 123 258 q 135 325 135 390 l 135 390 q 135 423 124 444 q 112 465 83 465 l 83 465 q 73 465 62 464 q 51 462 41 459 l 41 459 l 19 564 q 40 568 66 573 q 92 577 126 577 z"},"ൃ":{"ha":260,"x_min":-132,"x_max":258,"o":"m 52 -335 l 52 -335 q -5 -335 -46 -317 q -88 -299 -110 -262 q -132 -226 -132 -172 l -132 -172 q -132 -107 -90 -65 q -48 -24 37 -24 l 37 -24 q 74 -24 111 -38 q 147 -52 181 -82 l 181 -82 l 143 -169 q 120 -148 97 -137 q 74 -127 48 -127 l 48 -127 q 26 -127 13 -139 q 0 -152 0 -177 l 0 -177 q 0 -199 13 -212 q 26 -225 49 -225 l 49 -225 q 74 -225 90 -214 q 105 -203 113 -180 q 120 -158 120 -123 l 120 -123 q 120 -101 117 -75 q 113 -50 104 -13 q 94 23 77 79 l 77 79 q 59 135 47 192 q 35 248 35 309 l 35 309 q 35 383 53 446 q 70 509 95 565 l 95 565 l 242 565 q 220 516 205 475 q 190 433 183 395 q 176 357 176 316 l 176 316 q 176 268 185 224 q 194 179 211 123 l 211 123 q 228 68 238 26 q 248 -17 253 -52 q 258 -87 258 -120 l 258 -120 q 258 -197 231 -244 q 204 -291 157 -313 q 110 -335 52 -335 z"},"ൄ":{"ha":260,"x_min":-244,"x_max":258,"o":"m -16 -335 l -16 -335 q -89 -335 -140 -313 q -191 -291 -217 -250 q -244 -209 -244 -153 l -244 -153 q -244 -95 -212 -59 q -180 -24 -127 -24 l -127 -24 q -96 -24 -78 -38 q -61 -52 -47 -74 l -47 -74 l -65 -68 q -51 -47 -32 -35 q -13 -24 10 -24 l 10 -24 q 38 -24 55 -34 q 72 -45 81 -62 q 90 -79 94 -98 q 97 -118 97 -136 l 97 -136 l 97 -174 l 21 -174 l 21 -155 q 21 -136 16 -127 q 11 -118 0 -118 l 0 -118 q -10 -118 -15 -126 q -21 -135 -21 -153 l -21 -153 l -21 -174 l -96 -174 l -96 -152 q -96 -136 -100 -127 q -105 -118 -115 -118 l -115 -118 q -125 -118 -131 -126 q -137 -135 -137 -151 l -137 -151 q -137 -187 -106 -207 q -76 -227 -18 -227 l -18 -227 q 44 -227 80 -202 q 116 -178 116 -119 l 116 -119 q 116 -96 113 -71 q 110 -47 101 -10 q 92 26 76 80 l 76 80 q 60 134 48 190 q 35 245 35 309 l 35 309 q 35 383 53 446 q 70 509 95 565 l 95 565 l 242 565 q 220 516 205 475 q 190 433 183 395 q 176 357 176 316 l 176 316 q 176 268 185 224 q 194 179 210 124 l 210 124 q 228 68 239 27 q 249 -14 254 -48 q 258 -82 258 -119 l 258 -119 q 258 -183 228 -231 q 198 -279 138 -307 q 77 -335 -16 -335 z"},"െ":{"ha":636,"x_min":34,"x_max":603,"o":"m 217 -12 l 217 -12 q 166 -12 125 13 q 83 37 59 92 q 34 146 34 237 l 34 237 q 34 312 54 374 q 74 436 112 482 q 150 527 206 552 q 262 577 333 577 l 333 577 q 407 577 459 554 q 510 530 542 489 q 574 448 589 397 q 603 346 603 291 l 603 291 q 603 226 588 171 q 572 115 547 70 q 521 25 489 -14 l 489 -14 l 379 50 q 402 84 420 120 q 438 156 448 197 q 458 238 458 288 l 458 288 q 458 342 444 382 q 429 422 400 444 q 370 466 323 466 l 323 466 q 275 466 238 437 q 201 407 181 355 q 160 303 160 234 l 160 234 q 160 175 167 145 q 174 115 186 105 q 198 95 210 95 l 210 95 q 222 95 231 103 q 239 110 244 126 q 248 142 248 169 l 248 169 q 248 212 238 230 q 228 247 205 247 l 205 247 q 184 247 163 230 q 142 212 114 172 l 114 172 l 93 275 q 118 304 157 327 q 196 350 243 350 l 243 350 q 290 350 321 329 q 352 307 368 269 q 383 231 383 179 l 383 179 q 383 118 364 76 q 344 34 308 11 q 271 -12 217 -12 z"},"േ":{"ha":541,"x_min":32,"x_max":513,"o":"m 313 -12 l 313 -12 q 251 -12 200 5 q 149 21 111 58 q 73 94 53 151 q 32 207 32 286 l 32 286 q 32 360 54 415 q 76 469 115 505 q 153 541 207 559 q 261 577 326 577 l 326 577 q 396 577 437 556 q 478 535 496 501 q 513 466 513 424 l 513 424 q 513 381 495 351 q 477 321 446 305 q 414 289 373 289 l 373 289 q 321 289 290 307 q 259 325 246 355 q 233 385 233 420 l 233 420 q 233 443 240 466 q 247 488 254 500 l 254 500 l 363 508 q 349 493 341 472 q 333 451 333 428 l 333 428 q 333 405 342 394 q 350 382 365 382 l 365 382 q 382 382 389 393 q 396 403 396 422 l 396 422 q 396 445 384 461 q 371 477 343 477 l 343 477 q 330 477 315 477 q 300 476 291 476 l 291 476 q 255 474 228 451 q 200 427 185 385 q 170 343 170 285 l 170 285 q 170 228 182 186 q 193 143 219 119 q 244 94 284 89 l 284 89 q 294 88 309 88 q 323 88 334 88 l 334 88 q 356 88 368 95 q 380 102 386 114 q 391 126 391 142 l 391 142 q 391 162 384 173 q 377 184 361 184 l 361 184 q 345 184 336 172 q 327 160 327 137 l 327 137 q 327 111 335 92 q 343 72 358 55 l 358 55 l 242 72 q 237 84 232 104 q 227 124 227 144 l 227 144 q 227 175 240 206 q 252 237 283 257 q 314 277 367 277 l 367 277 q 408 277 440 261 q 471 245 489 215 q 507 184 507 140 l 507 140 q 507 99 489 64 q 470 29 428 9 q 385 -12 313 -12 z"},"ൈ":{"ha":1272,"x_min":34,"x_max":1239,"o":"m 217 -12 l 217 -12 q 166 -12 125 13 q 83 37 59 92 q 34 146 34 237 l 34 237 q 34 312 54 374 q 74 436 112 482 q 150 527 206 552 q 262 577 333 577 l 333 577 q 407 577 459 554 q 510 530 542 489 q 574 448 589 397 q 603 346 603 291 l 603 291 q 603 226 588 171 q 572 115 547 70 q 521 25 489 -14 l 489 -14 l 379 50 q 402 84 420 120 q 438 156 448 197 q 458 238 458 288 l 458 288 q 458 342 444 382 q 429 422 400 444 q 370 466 323 466 l 323 466 q 275 466 238 437 q 201 407 181 355 q 160 303 160 234 l 160 234 q 160 175 167 145 q 174 115 186 105 q 198 95 210 95 l 210 95 q 222 95 231 103 q 239 110 244 126 q 248 142 248 169 l 248 169 q 248 212 238 230 q 228 247 205 247 l 205 247 q 184 247 163 230 q 142 212 114 172 l 114 172 l 93 275 q 118 304 157 327 q 196 350 243 350 l 243 350 q 290 350 321 329 q 352 307 368 269 q 383 231 383 179 l 383 179 q 383 118 364 76 q 344 34 308 11 q 271 -12 217 -12 z m 853 -12 l 853 -12 q 802 -12 761 13 q 719 37 695 92 q 670 146 670 237 l 670 237 q 670 312 690 374 q 710 436 748 482 q 786 527 842 552 q 898 577 969 577 l 969 577 q 1043 577 1095 554 q 1146 530 1178 489 q 1210 448 1225 397 q 1239 346 1239 291 l 1239 291 q 1239 226 1224 171 q 1208 115 1183 70 q 1157 25 1125 -14 l 1125 -14 l 1015 50 q 1038 84 1056 120 q 1074 156 1084 197 q 1094 238 1094 288 l 1094 288 q 1094 342 1080 382 q 1065 422 1036 444 q 1006 466 959 466 l 959 466 q 911 466 874 437 q 837 407 817 355 q 796 303 796 234 l 796 234 q 796 175 803 145 q 810 115 822 105 q 834 95 846 95 l 846 95 q 858 95 867 103 q 875 110 880 126 q 884 142 884 169 l 884 169 q 884 212 874 230 q 864 247 841 247 l 841 247 q 820 247 799 230 q 778 212 750 172 l 750 172 l 729 275 q 754 304 793 327 q 832 350 879 350 l 879 350 q 926 350 957 329 q 988 307 1004 269 q 1019 231 1019 179 l 1019 179 q 1019 118 1000 76 q 980 34 944 11 q 907 -12 853 -12 z"},"ൊ":{"ha":1281,"x_min":34,"x_max":1246,"o":"m 217 -12 l 217 -12 q 166 -12 125 13 q 83 37 59 92 q 34 146 34 237 l 34 237 q 34 312 54 374 q 74 436 112 482 q 150 527 206 552 q 262 577 333 577 l 333 577 q 407 577 459 554 q 510 530 542 489 q 574 448 589 397 q 603 346 603 291 l 603 291 q 603 226 588 171 q 572 115 547 70 q 521 25 489 -14 l 489 -14 l 379 50 q 402 84 420 120 q 438 156 448 197 q 458 238 458 288 l 458 288 q 458 342 444 382 q 429 422 400 444 q 370 466 323 466 l 323 466 q 275 466 238 437 q 201 407 181 355 q 160 303 160 234 l 160 234 q 160 175 167 145 q 174 115 186 105 q 198 95 210 95 l 210 95 q 222 95 231 103 q 239 110 244 126 q 248 142 248 169 l 248 169 q 248 212 238 230 q 228 247 205 247 l 205 247 q 184 247 163 230 q 142 212 114 172 l 114 172 l 93 275 q 118 304 157 327 q 196 350 243 350 l 243 350 q 290 350 321 329 q 352 307 368 269 q 383 231 383 179 l 383 179 q 383 118 364 76 q 344 34 308 11 q 271 -12 217 -12 z m 736 208 l 736 208 q 697 208 675 231 q 652 254 652 295 l 652 295 q 652 337 674 360 q 695 383 736 383 l 736 383 q 776 383 798 361 q 819 338 819 295 l 819 295 q 819 254 797 231 q 775 208 736 208 z m 1245 285 l 1245 285 q 1245 213 1235 158 q 1224 103 1200 65 q 1176 27 1136 8 q 1096 -12 1037 -12 l 1037 -12 q 980 -12 943 5 q 906 22 884 50 q 861 77 849 113 q 837 148 831 185 l 831 185 l 973 210 q 978 179 986 153 q 993 127 1006 112 q 1018 97 1039 97 l 1039 97 q 1061 97 1075 118 q 1088 138 1095 180 q 1101 222 1101 287 l 1101 287 q 1101 348 1095 388 q 1088 428 1075 448 q 1062 468 1040 468 l 1040 468 q 1022 468 1009 454 q 996 440 988 416 q 980 391 975 356 l 975 356 l 833 382 q 843 420 857 455 q 871 490 895 518 q 919 545 955 561 q 991 577 1045 577 l 1045 577 q 1102 577 1141 556 q 1180 535 1203 497 q 1226 458 1236 405 q 1245 351 1245 285 z"},"ോ":{"ha":1162,"x_min":32,"x_max":1126,"o":"m 313 -12 l 313 -12 q 251 -12 200 5 q 149 21 111 58 q 73 94 53 151 q 32 207 32 286 l 32 286 q 32 360 54 415 q 76 469 115 505 q 153 541 207 559 q 261 577 326 577 l 326 577 q 396 577 437 556 q 478 535 496 501 q 513 466 513 424 l 513 424 q 513 381 495 351 q 477 321 446 305 q 414 289 373 289 l 373 289 q 321 289 290 307 q 259 325 246 355 q 233 385 233 420 l 233 420 q 233 443 240 466 q 247 488 254 500 l 254 500 l 363 508 q 349 493 341 472 q 333 451 333 428 l 333 428 q 333 405 342 394 q 350 382 365 382 l 365 382 q 382 382 389 393 q 396 403 396 422 l 396 422 q 396 445 384 461 q 371 477 343 477 l 343 477 q 330 477 315 477 q 300 476 291 476 l 291 476 q 255 474 228 451 q 200 427 185 385 q 170 343 170 285 l 170 285 q 170 228 182 186 q 193 143 219 119 q 244 94 284 89 l 284 89 q 294 88 309 88 q 323 88 334 88 l 334 88 q 356 88 368 95 q 380 102 386 114 q 391 126 391 142 l 391 142 q 391 162 384 173 q 377 184 361 184 l 361 184 q 345 184 336 172 q 327 160 327 137 l 327 137 q 327 111 335 92 q 343 72 358 55 l 358 55 l 242 72 q 237 84 232 104 q 227 124 227 144 l 227 144 q 227 175 240 206 q 252 237 283 257 q 314 277 367 277 l 367 277 q 408 277 440 261 q 471 245 489 215 q 507 184 507 140 l 507 140 q 507 99 489 64 q 470 29 428 9 q 385 -12 313 -12 z m 616 208 l 616 208 q 577 208 555 231 q 532 254 532 295 l 532 295 q 532 337 554 360 q 575 383 616 383 l 616 383 q 656 383 678 361 q 699 338 699 295 l 699 295 q 699 254 677 231 q 655 208 616 208 z m 1126 285 l 1126 285 q 1126 213 1116 158 q 1105 103 1081 65 q 1057 27 1017 8 q 977 -12 918 -12 l 918 -12 q 861 -12 824 5 q 787 22 765 50 q 742 77 730 113 q 718 148 712 185 l 712 185 l 854 210 q 859 179 867 153 q 874 127 887 112 q 899 97 920 97 l 920 97 q 942 97 956 118 q 969 138 976 180 q 982 222 982 287 l 982 287 q 982 348 976 388 q 969 428 956 448 q 943 468 921 468 l 921 468 q 903 468 890 454 q 877 440 869 416 q 861 391 856 356 l 856 356 l 714 382 q 724 420 738 455 q 752 490 776 518 q 800 545 836 561 q 872 577 926 577 l 926 577 q 983 577 1022 556 q 1061 535 1084 497 q 1107 458 1117 405 q 1126 351 1126 285 z"},"ൌ":{"ha":1495,"x_min":34,"x_max":1462,"o":"m 217 -12 l 217 -12 q 166 -12 125 13 q 83 37 59 92 q 34 146 34 237 l 34 237 q 34 312 54 374 q 74 436 112 482 q 150 527 206 552 q 262 577 333 577 l 333 577 q 407 577 459 554 q 510 530 542 489 q 574 448 589 397 q 603 346 603 291 l 603 291 q 603 226 588 171 q 572 115 547 70 q 521 25 489 -14 l 489 -14 l 379 50 q 402 84 420 120 q 438 156 448 197 q 458 238 458 288 l 458 288 q 458 342 444 382 q 429 422 400 444 q 370 466 323 466 l 323 466 q 275 466 238 437 q 201 407 181 355 q 160 303 160 234 l 160 234 q 160 175 167 145 q 174 115 186 105 q 198 95 210 95 l 210 95 q 222 95 231 103 q 239 110 244 126 q 248 142 248 169 l 248 169 q 248 212 238 230 q 228 247 205 247 l 205 247 q 184 247 163 230 q 142 212 114 172 l 114 172 l 93 275 q 118 304 157 327 q 196 350 243 350 l 243 350 q 290 350 321 329 q 352 307 368 269 q 383 231 383 179 l 383 179 q 383 118 364 76 q 344 34 308 11 q 271 -12 217 -12 z m 737 208 l 737 208 q 698 208 676 231 q 653 254 653 295 l 653 295 q 653 337 675 360 q 696 383 737 383 l 737 383 q 777 383 799 361 q 820 338 820 295 l 820 295 q 820 254 798 231 q 776 208 737 208 z m 1275 577 l 1275 577 q 1335 577 1377 545 q 1418 513 1440 454 q 1462 395 1462 313 l 1462 313 q 1462 206 1434 134 q 1406 61 1348 25 q 1289 -12 1198 -12 l 1198 -12 q 1142 -12 1098 -2 q 1053 8 1008 29 l 1008 29 l 1063 131 q 1090 118 1121 110 q 1152 101 1184 101 l 1184 101 q 1235 101 1265 124 q 1294 147 1307 194 q 1320 240 1320 310 l 1320 310 q 1320 395 1304 431 q 1287 467 1263 467 l 1263 467 q 1254 467 1249 464 q 1243 460 1238 453 l 1238 453 q 1232 444 1230 431 q 1228 417 1228 383 l 1228 383 l 1228 268 l 1088 268 l 1088 361 q 1088 400 1087 419 q 1085 437 1079 448 l 1079 448 q 1075 458 1067 463 q 1058 467 1049 467 l 1049 467 q 1028 467 1016 446 q 1003 424 1003 387 l 1003 387 q 1003 359 1007 333 q 1011 307 1016 287 l 1016 287 l 881 259 q 873 288 868 323 q 862 357 862 391 l 862 391 q 862 439 880 481 q 897 523 935 550 q 972 577 1034 577 l 1034 577 q 1080 577 1111 562 q 1142 547 1167 515 l 1167 515 l 1144 515 q 1169 548 1199 563 q 1228 577 1275 577 z"},"്":{"ha":0,"x_min":-275,"x_max":67,"o":"m -105 597 l -105 597 q -167 597 -204 618 q -242 639 -258 676 q -275 713 -275 759 l -275 759 q -275 784 -270 803 q -266 822 -261 835 l -261 835 l -140 816 q -143 805 -145 792 q -148 778 -148 766 l -148 766 q -148 743 -143 728 q -138 713 -127 707 q -117 700 -101 700 l -101 700 q -86 700 -76 707 q -66 714 -60 728 q -55 742 -55 765 l -55 765 q -55 779 -57 792 q -59 805 -61 816 l -61 816 l 55 835 q 59 823 63 804 q 67 784 67 760 l 67 760 q 67 713 51 676 q 35 639 -3 618 q -41 597 -105 597 z"},"ൎ":{"ha":0,"x_min":-349,"x_max":-197,"o":"m -349 836 l -197 836 l -205 638 l -341 638 l -349 836 z"},"൏":{"ha":1097,"x_min":40,"x_max":1060,"o":"m 525 577 l 525 577 q 594 577 641 554 q 687 531 727 478 l 727 478 l 684 495 q 718 541 758 559 q 798 577 845 577 l 845 577 q 911 577 960 540 q 1008 502 1034 428 q 1060 353 1060 245 l 1060 245 q 1060 86 1008 -24 q 955 -134 844 -191 q 732 -248 552 -248 l 552 -248 q 435 -248 349 -222 q 262 -197 203 -151 q 144 -105 108 -44 q 72 17 56 89 q 40 161 40 240 l 40 240 q 40 315 58 396 q 75 477 107 558 l 107 558 l 226 516 q 201 450 186 378 q 171 306 171 239 l 171 239 q 171 176 183 121 q 194 65 220 19 q 245 -27 289 -60 q 333 -94 398 -112 q 463 -130 552 -130 l 552 -130 q 668 -130 740 -102 q 811 -74 850 -23 q 888 27 902 96 q 916 165 916 247 l 916 247 q 916 327 904 376 q 892 424 873 445 q 854 466 830 466 l 830 466 q 820 466 812 463 q 804 460 797 456 l 797 456 q 784 444 779 420 q 774 396 774 350 l 774 350 l 774 0 l 633 0 l 633 296 q 633 362 625 393 q 617 424 600 440 l 600 440 q 588 453 571 460 q 553 466 525 466 l 525 466 q 481 466 445 443 q 408 419 385 370 q 362 320 362 241 l 362 241 l 362 232 q 362 174 369 145 q 376 115 388 105 q 400 95 413 95 l 413 95 q 425 95 433 103 q 441 110 446 126 q 450 142 450 170 l 450 170 q 450 213 440 230 q 430 247 408 247 l 408 247 q 386 247 365 230 q 344 213 317 173 l 317 173 l 295 275 q 321 304 360 327 q 399 350 446 350 l 446 350 q 493 350 524 329 q 554 307 570 269 q 585 230 585 179 l 585 179 q 585 116 566 74 q 546 32 509 10 q 471 -12 418 -12 l 418 -12 q 368 -12 327 13 q 285 37 261 94 q 236 150 236 245 l 236 245 q 236 356 274 430 q 311 504 377 541 q 442 577 525 577 z"},"ൔ":{"ha":574,"x_min":46,"x_max":562,"o":"m 172 801 l 172 801 q 206 801 233 792 q 260 782 273 768 l 273 768 q 296 745 305 715 q 313 684 313 633 l 313 633 l 313 500 q 313 464 317 431 q 321 398 337 364 q 352 330 384 291 l 384 291 l 402 273 q 430 239 473 192 q 515 145 562 96 l 562 96 l 515 0 l 46 0 l 46 261 q 46 327 54 373 q 62 418 78 450 q 93 482 118 506 l 118 506 q 152 538 200 557 q 248 575 304 575 l 304 575 q 364 575 410 553 q 456 531 482 488 q 508 444 508 380 l 508 380 q 508 320 481 278 q 453 236 417 200 l 417 200 l 394 182 q 376 163 357 143 q 338 122 319 104 q 299 86 280 70 l 280 70 l 290 104 q 309 107 328 108 q 347 109 352 109 l 352 109 l 353 109 q 356 109 373 108 q 390 107 410 106 q 429 105 440 103 l 440 103 l 440 61 q 407 96 381 123 q 355 150 333 178 l 333 178 l 300 214 q 255 263 230 308 q 205 353 195 403 q 185 453 185 515 l 185 515 l 185 619 q 185 646 181 659 q 177 672 168 680 l 168 680 q 164 684 155 687 q 145 690 132 690 l 132 690 q 121 690 110 689 q 99 687 89 685 l 89 685 l 66 787 q 90 795 117 798 q 144 801 172 801 z m 185 263 l 185 66 l 148 67 q 178 97 208 129 q 237 161 265 195 q 292 228 313 263 l 313 263 l 340 295 q 353 314 365 337 q 376 360 376 387 l 376 387 q 376 413 366 433 q 356 452 337 463 q 317 473 288 473 l 288 473 q 258 473 235 458 q 212 443 202 418 l 202 418 q 196 403 192 387 q 188 370 187 342 q 185 314 185 263 l 185 263 z"},"ൕ":{"ha":912,"x_min":34,"x_max":882,"o":"m 604 -12 l 604 -12 q 560 -12 526 -6 q 491 0 463 12 q 435 23 408 41 l 408 41 q 403 45 399 54 q 394 63 389 68 l 389 68 q 344 103 317 150 q 289 196 278 247 q 266 298 266 347 l 266 347 q 266 384 272 414 q 277 444 287 468 l 287 468 l 312 502 q 328 530 352 547 q 375 563 405 570 q 434 577 463 577 l 463 577 q 558 577 607 517 q 656 457 656 349 l 656 349 q 656 284 640 230 q 624 176 594 133 q 563 89 519 56 l 519 56 q 512 51 505 44 q 498 37 490 32 l 490 32 q 454 11 416 0 q 377 -12 325 -12 l 325 -12 q 249 -12 194 15 q 139 41 104 88 q 68 134 51 195 q 34 255 34 324 l 34 324 q 34 402 57 459 q 80 516 128 547 q 175 577 246 577 l 246 577 q 296 577 338 553 q 379 529 409 483 l 409 483 l 310 424 q 297 448 281 459 q 264 469 250 469 l 250 469 q 225 469 209 453 q 193 437 185 406 q 176 375 176 331 l 176 331 q 176 253 197 200 q 217 147 252 121 q 287 94 330 94 l 330 94 q 354 94 371 99 q 388 103 404 110 l 404 110 q 411 114 417 115 q 422 116 428 120 l 428 120 q 457 143 477 181 q 496 218 506 263 q 515 307 515 349 l 515 349 q 515 395 507 421 q 499 447 487 457 q 475 467 462 467 l 462 467 q 446 467 434 457 q 421 447 414 422 q 407 396 407 349 l 407 349 q 407 311 415 269 q 422 227 438 191 q 453 154 476 129 l 476 129 q 483 123 491 120 q 498 117 505 112 l 505 112 q 519 104 541 100 q 562 95 592 95 l 592 95 q 642 95 675 114 q 707 133 723 167 q 738 200 738 244 l 738 244 q 738 275 733 306 q 727 337 713 373 q 699 408 675 453 l 675 453 q 653 500 637 535 q 621 569 613 599 q 604 629 604 661 l 604 661 q 604 699 621 731 q 637 763 672 782 q 707 801 763 801 l 763 801 q 797 801 822 797 q 847 792 863 787 l 863 787 l 842 682 q 831 685 819 688 q 807 690 792 690 l 792 690 q 767 690 756 677 q 744 663 744 644 l 744 644 q 744 628 749 612 q 753 595 765 569 q 777 543 799 501 l 799 501 q 830 441 848 396 q 866 351 874 313 q 882 275 882 234 l 882 234 q 882 198 873 163 q 864 128 845 97 q 826 65 794 41 q 762 16 715 2 q 668 -12 604 -12 z"},"ൖ":{"ha":682,"x_min":29,"x_max":653,"o":"m 251 184 l 251 184 q 251 161 258 142 q 265 122 281 111 q 296 100 320 100 l 320 100 q 348 100 363 116 q 377 132 377 158 l 377 158 q 377 190 369 217 q 360 244 349 273 q 337 302 329 337 q 321 371 321 416 l 321 416 q 321 462 340 499 q 358 536 394 557 q 430 577 479 577 l 479 577 q 541 577 579 551 q 617 525 635 485 q 653 444 653 403 l 653 403 q 653 332 626 277 q 599 222 542 191 q 484 160 394 160 l 394 160 l 345 160 q 308 160 279 164 q 249 168 218 178 l 218 178 l 175 188 q 136 205 103 234 q 70 263 50 305 q 29 346 29 402 l 29 402 q 29 446 41 491 q 53 535 78 578 l 78 578 l 199 531 q 186 502 178 470 q 169 437 169 406 l 169 406 q 169 374 178 352 q 187 329 193 310 l 193 310 l 241 279 q 261 270 290 263 q 319 256 344 256 l 344 256 l 392 256 q 434 256 461 275 q 488 293 501 327 q 514 361 514 404 l 514 404 q 514 439 504 457 q 494 475 475 475 l 475 475 q 465 475 457 468 q 449 461 444 448 q 439 434 439 414 l 439 414 q 439 384 450 351 q 461 318 475 284 q 489 249 500 214 q 511 178 511 142 l 511 142 q 511 115 503 88 q 494 60 473 38 q 452 16 416 2 q 380 -12 325 -12 l 325 -12 q 269 -12 225 8 q 180 28 155 70 q 129 111 129 180 l 129 180 q 129 220 140 263 q 151 305 171 354 q 191 403 213 461 l 213 461 q 234 508 247 542 q 259 575 266 600 q 272 624 272 645 l 272 645 q 272 664 260 677 q 247 690 222 690 l 222 690 q 213 690 202 689 q 191 687 179 684 l 179 684 l 155 787 q 179 795 209 798 q 239 801 267 801 l 267 801 q 327 801 357 780 q 387 759 398 728 q 409 697 409 667 l 409 667 q 409 645 403 620 q 397 594 387 564 q 376 534 359 496 q 342 457 319 406 l 319 406 q 295 355 282 320 q 268 285 262 261 q 255 237 253 219 q 251 201 251 184 z"},"ൗ":{"ha":659,"x_min":26,"x_max":626,"o":"m 439 577 l 439 577 q 499 577 541 545 q 582 513 604 454 q 626 395 626 313 l 626 313 q 626 206 598 134 q 570 61 512 25 q 453 -12 362 -12 l 362 -12 q 306 -12 262 -2 q 217 8 172 29 l 172 29 l 227 131 q 254 118 285 110 q 316 101 348 101 l 348 101 q 399 101 429 124 q 458 147 471 194 q 484 240 484 310 l 484 310 q 484 395 468 431 q 451 467 427 467 l 427 467 q 418 467 413 464 q 407 460 402 453 l 402 453 q 396 444 394 431 q 392 417 392 383 l 392 383 l 392 268 l 252 268 l 252 361 q 252 400 251 419 q 249 437 243 448 l 243 448 q 239 458 231 463 q 222 467 213 467 l 213 467 q 192 467 180 446 q 167 424 167 387 l 167 387 q 167 359 171 333 q 175 307 180 287 l 180 287 l 45 259 q 37 288 32 323 q 26 357 26 391 l 26 391 q 26 439 44 481 q 61 523 99 550 q 136 577 198 577 l 198 577 q 244 577 275 562 q 306 547 331 515 l 331 515 l 308 515 q 333 548 363 563 q 392 577 439 577 z"},"൘":{"ha":1040,"x_min":33,"x_max":1001,"o":"m 515 -12 l 515 -12 q 471 -12 434 8 q 397 28 366 70 l 366 70 l 389 57 q 359 22 326 5 q 292 -12 246 -12 l 246 -12 q 176 -12 129 24 q 81 60 57 122 q 33 183 33 260 l 33 260 q 33 321 45 376 q 57 430 79 480 q 101 530 131 577 l 131 577 l 246 514 q 224 476 208 435 q 192 394 184 351 q 176 308 176 263 l 176 263 q 176 203 188 167 q 200 131 219 115 q 238 99 258 99 l 258 99 q 271 99 279 103 q 287 106 292 111 l 292 111 q 303 125 307 145 q 310 164 310 208 l 310 208 l 310 565 l 451 565 l 451 223 q 451 176 457 154 q 462 132 473 117 l 473 117 q 481 109 492 104 q 503 99 516 99 l 516 99 q 531 99 541 104 q 551 109 558 117 l 558 117 q 570 131 574 155 q 578 178 578 220 l 578 220 l 578 565 l 719 565 l 719 251 l 659 62 q 630 23 595 6 q 559 -12 515 -12 z m 793 -12 l 793 -12 q 743 -12 707 6 q 671 24 639 63 l 639 63 l 587 250 l 587 555 l 719 555 l 719 228 q 719 180 724 153 q 729 125 743 110 l 743 110 q 751 105 759 102 q 767 99 778 99 l 778 99 q 806 99 824 128 q 841 156 849 206 q 857 255 857 317 l 857 317 q 857 384 850 446 q 842 507 823 560 q 803 612 768 652 q 732 691 678 713 q 623 734 544 734 l 544 734 q 491 734 439 727 q 386 719 343 710 l 343 710 l 323 821 q 362 831 397 837 q 431 843 470 846 q 508 849 556 849 l 556 849 q 652 849 726 825 q 799 801 851 756 q 903 711 937 646 q 970 581 986 501 q 1001 420 1001 325 l 1001 325 q 1001 214 979 139 q 956 63 910 26 q 863 -12 793 -12 z"},"൙":{"ha":986,"x_min":33,"x_max":967,"o":"m 322 577 l 322 577 q 402 577 459 550 q 516 522 552 474 q 588 426 606 364 q 624 301 624 230 l 624 230 q 624 141 602 88 q 580 35 538 12 q 495 -12 434 -12 l 434 -12 q 370 -12 332 13 q 294 38 278 76 q 261 114 261 156 l 261 156 q 261 208 282 247 q 302 286 340 311 l 340 311 q 361 325 388 334 q 414 342 447 346 q 480 350 521 350 l 521 350 l 681 350 l 681 240 l 529 240 q 482 240 460 235 q 438 229 424 218 l 424 218 q 410 208 404 192 q 397 175 397 155 l 397 155 q 397 132 407 117 q 417 101 436 101 l 436 101 q 450 101 461 112 q 472 123 478 150 q 484 177 484 225 l 484 225 q 484 239 484 255 q 483 271 481 282 l 481 282 l 478 305 q 474 349 457 386 q 439 422 408 444 q 376 465 329 465 l 329 465 q 277 465 243 444 q 209 423 193 383 q 177 343 177 289 l 177 289 q 177 241 187 201 q 196 160 214 123 q 231 86 255 49 l 255 49 l 145 -13 q 113 25 88 71 q 62 117 48 172 q 33 227 33 296 l 33 296 q 33 352 50 403 q 67 453 103 493 q 138 532 193 555 q 248 577 322 577 z m 810 565 l 810 565 q 868 565 902 543 q 936 521 952 486 q 967 451 967 411 l 967 411 q 967 370 952 337 q 937 304 911 283 l 911 283 q 890 266 867 257 q 844 248 812 244 q 780 240 733 240 l 733 240 l 572 240 l 573 350 l 751 350 q 781 350 798 354 q 814 357 822 364 l 822 364 q 832 372 837 383 q 841 393 841 412 l 841 412 q 841 433 832 446 q 822 458 808 458 l 808 458 q 790 458 782 443 q 773 428 773 404 l 773 404 q 773 371 784 348 q 794 324 808 306 l 808 306 l 686 299 q 672 319 662 351 q 651 382 651 412 l 651 412 q 651 463 673 497 q 694 530 730 548 q 766 565 810 565 z"},"൚":{"ha":938,"x_min":33,"x_max":893,"o":"m 601 577 l 601 577 q 682 577 735 557 q 788 537 822 503 l 822 503 q 846 478 862 446 q 878 413 886 368 q 893 323 893 260 l 893 260 l 893 0 l 457 0 l 457 100 q 483 139 508 187 q 532 234 548 287 q 563 340 563 392 l 563 392 q 563 416 560 431 q 556 446 548 454 q 539 461 525 461 l 525 461 q 511 461 499 451 q 487 441 478 423 l 478 423 q 469 403 465 372 q 460 341 460 286 l 460 286 l 460 230 l 320 230 l 320 351 q 320 401 315 423 q 310 444 298 456 l 298 456 q 293 461 285 464 q 276 466 264 466 l 264 466 q 243 466 223 451 q 203 435 190 399 q 176 363 176 302 l 176 302 q 176 257 185 214 q 193 170 209 129 q 225 88 247 50 l 247 50 l 132 -14 q 102 34 80 84 q 58 134 46 189 q 33 244 33 306 l 33 306 q 33 383 58 445 q 82 506 132 542 q 181 577 256 577 l 256 577 q 288 577 314 570 q 340 563 364 545 q 388 527 412 496 l 412 496 l 381 488 q 405 517 438 537 q 470 556 510 567 q 550 577 601 577 z m 702 359 l 702 359 q 702 314 691 272 q 680 229 659 188 q 638 146 609 100 l 609 100 l 594 106 q 611 108 634 109 q 657 110 670 110 l 670 110 l 754 110 l 754 285 q 754 345 743 382 q 732 419 712 442 q 691 464 658 477 l 658 477 l 658 480 q 677 460 690 429 q 702 397 702 359 z"},"൛":{"ha":836,"x_min":51,"x_max":803,"o":"m 539 -12 l 539 -12 q 466 -12 417 11 q 367 34 337 73 q 307 112 294 161 q 281 210 281 261 l 281 261 q 281 319 293 367 q 305 414 328 456 q 351 497 381 537 l 381 537 l 339 455 l 192 455 l 192 0 l 51 0 l 51 565 l 427 565 l 494 498 q 476 471 461 437 q 445 403 435 363 q 425 322 425 272 l 425 272 q 425 221 438 182 q 451 143 476 122 q 501 100 536 100 l 536 100 q 573 100 600 121 q 627 141 642 180 q 657 218 657 271 l 657 271 q 657 322 648 363 q 638 404 621 442 q 603 479 579 515 l 579 515 l 691 579 q 723 542 749 496 q 774 450 789 395 q 803 339 803 269 l 803 269 q 803 219 789 170 q 775 120 745 79 q 714 37 664 13 q 613 -12 539 -12 z"},"൜":{"ha":1300,"x_min":33,"x_max":1267,"o":"m 780 577 l 780 577 q 831 577 867 563 q 903 549 926 527 l 926 527 q 947 507 960 480 q 973 452 979 418 q 985 383 985 341 l 985 341 l 985 214 q 985 170 989 151 q 993 132 1001 120 l 1001 120 q 1008 109 1020 105 q 1031 100 1045 100 l 1045 100 q 1067 100 1085 116 q 1102 131 1113 166 q 1124 201 1124 261 l 1124 261 q 1124 310 1116 354 q 1107 397 1091 437 q 1074 476 1052 516 l 1052 516 l 1168 579 q 1197 534 1219 485 q 1241 436 1254 380 q 1267 324 1267 258 l 1267 258 q 1267 176 1242 116 q 1216 55 1166 22 q 1115 -12 1043 -12 l 1043 -12 q 995 -12 960 1 q 924 14 897 39 l 897 39 q 879 59 867 86 q 855 112 850 147 q 844 181 844 222 l 844 222 l 844 352 q 844 384 841 406 q 837 428 828 443 l 828 443 q 822 454 811 460 q 800 466 783 466 l 783 466 q 767 466 756 461 q 745 455 739 445 l 739 445 q 728 431 725 410 q 722 389 722 358 l 722 358 l 722 225 q 722 183 716 148 q 710 113 697 86 q 683 59 662 38 l 662 38 q 640 16 605 2 q 569 -12 520 -12 l 520 -12 q 469 -12 434 2 q 398 16 374 38 l 374 38 q 354 60 341 87 q 328 114 322 149 q 315 183 315 225 l 315 225 l 315 351 q 315 398 311 416 q 307 433 299 445 l 299 445 q 292 456 281 461 q 270 466 255 466 l 255 466 q 234 466 216 451 q 198 435 187 400 q 176 364 176 304 l 176 304 q 176 255 185 212 q 194 169 210 130 q 226 90 248 49 l 248 49 l 132 -14 q 104 31 82 80 q 59 129 46 185 q 33 241 33 307 l 33 307 q 33 389 59 450 q 84 510 135 544 q 185 577 258 577 l 258 577 q 306 577 342 565 q 377 552 403 526 l 403 526 q 424 506 435 480 q 446 453 452 419 q 457 384 457 340 l 457 340 l 457 214 q 457 182 460 160 q 463 137 473 122 l 473 122 q 479 112 490 106 q 501 100 518 100 l 518 100 q 535 100 546 106 q 556 111 562 120 l 562 120 q 572 134 576 156 q 579 177 579 211 l 579 211 l 579 339 q 579 383 586 418 q 592 452 605 480 q 618 507 638 527 l 638 527 q 661 548 696 563 q 731 577 780 577 z"},"൝":{"ha":1714,"x_min":8,"x_max":1681,"o":"m 665 577 l 665 577 q 716 577 752 563 q 788 549 811 527 l 811 527 q 832 507 845 480 q 858 452 865 418 q 871 383 871 341 l 871 341 l 871 214 q 871 182 874 160 q 877 137 886 122 l 886 122 q 892 112 904 106 q 915 100 932 100 l 932 100 q 948 100 959 106 q 970 111 976 120 l 976 120 q 986 134 990 156 q 993 177 993 211 l 993 211 l 993 339 q 993 383 999 418 q 1005 452 1018 480 q 1031 507 1052 527 l 1052 527 q 1075 548 1110 563 q 1144 577 1194 577 l 1194 577 q 1245 577 1281 563 q 1317 549 1339 527 l 1339 527 q 1360 507 1373 480 q 1386 452 1392 418 q 1398 383 1398 341 l 1398 341 l 1398 214 q 1398 170 1402 151 q 1406 132 1415 120 l 1415 120 q 1422 109 1433 105 q 1444 100 1458 100 l 1458 100 q 1480 100 1498 116 q 1516 131 1527 166 q 1538 201 1538 261 l 1538 261 q 1538 310 1529 354 q 1520 397 1504 437 q 1488 476 1465 516 l 1465 516 l 1582 579 q 1611 534 1633 485 q 1655 436 1668 380 q 1681 324 1681 258 l 1681 258 q 1681 176 1655 116 q 1629 55 1579 22 q 1529 -12 1457 -12 l 1457 -12 q 1408 -12 1373 1 q 1337 14 1311 39 l 1311 39 q 1292 59 1280 86 q 1268 112 1263 147 q 1257 181 1257 222 l 1257 222 l 1257 352 q 1257 384 1254 406 q 1251 428 1242 443 l 1242 443 q 1236 454 1225 460 q 1213 466 1196 466 l 1196 466 q 1180 466 1169 461 q 1158 455 1152 445 l 1152 445 q 1142 431 1139 410 q 1135 389 1135 358 l 1135 358 l 1135 225 q 1135 183 1129 148 q 1123 113 1110 86 q 1097 59 1076 38 l 1076 38 q 1053 16 1018 2 q 983 -12 933 -12 l 933 -12 q 883 -12 847 2 q 811 16 788 38 l 788 38 q 767 60 754 87 q 741 114 735 149 q 729 183 729 225 l 729 225 l 729 354 q 729 386 726 407 q 722 428 713 443 l 713 443 q 707 454 696 460 q 685 466 668 466 l 668 466 q 652 466 641 461 q 630 455 624 445 l 624 445 q 613 431 610 410 q 607 389 607 358 l 607 358 l 607 227 q 607 155 593 112 q 578 68 550 40 l 550 40 q 526 16 492 2 q 457 -12 412 -12 l 412 -12 q 359 -12 322 8 q 285 27 261 61 l 261 61 l 281 60 q 258 34 233 18 q 208 2 182 -5 q 156 -12 126 -12 l 126 -12 q 90 -12 63 -5 q 35 2 8 16 l 8 16 l 51 118 q 70 110 89 105 q 108 99 129 99 l 129 99 q 142 99 155 102 q 167 104 177 111 l 177 111 q 192 125 196 150 q 200 175 200 226 l 200 226 l 200 562 l 341 565 l 341 216 q 341 175 346 153 q 351 131 362 117 l 362 117 q 369 110 380 105 q 391 100 404 100 l 404 100 q 418 100 429 104 q 439 108 447 119 l 447 119 q 457 131 461 151 q 465 171 465 209 l 465 209 l 465 339 q 465 383 472 418 q 478 452 491 480 q 503 507 523 527 l 523 527 q 546 548 581 563 q 616 577 665 577 z"},"൞":{"ha":1216,"x_min":33,"x_max":1190,"o":"m 322 577 l 322 577 q 402 577 459 550 q 516 522 552 474 q 588 426 606 364 q 624 301 624 230 l 624 230 q 624 141 602 88 q 580 35 538 12 q 495 -12 434 -12 l 434 -12 q 370 -12 332 13 q 294 38 278 76 q 261 114 261 156 l 261 156 q 261 208 282 247 q 302 286 340 311 l 340 311 q 361 325 388 334 q 414 342 447 346 q 480 350 521 350 l 521 350 l 565 350 l 565 240 l 529 240 q 482 240 460 235 q 438 229 424 218 l 424 218 q 410 208 404 192 q 397 175 397 155 l 397 155 q 397 132 407 117 q 417 101 436 101 l 436 101 q 450 101 461 112 q 472 123 478 150 q 484 177 484 225 l 484 225 q 484 240 484 256 q 483 271 481 282 l 481 282 l 478 305 q 474 349 457 386 q 439 422 408 444 q 377 465 329 465 l 329 465 q 277 465 243 444 q 209 423 193 383 q 177 343 177 289 l 177 289 q 177 241 187 201 q 196 160 214 123 q 231 86 255 49 l 255 49 l 145 -13 q 113 25 88 71 q 62 117 48 172 q 33 227 33 296 l 33 296 q 33 352 50 403 q 67 453 103 493 q 138 532 193 555 q 248 577 322 577 z m 998 199 l 998 199 q 931 199 890 226 q 848 253 830 295 q 811 337 811 382 l 811 382 q 811 414 822 443 q 832 471 843 491 l 843 491 l 852 455 l 705 455 l 735 496 q 746 480 757 454 q 768 427 768 397 l 768 397 q 768 344 747 310 q 726 275 686 258 q 645 240 585 240 l 585 240 l 564 240 l 564 350 l 591 350 q 617 350 630 357 q 643 364 648 376 q 653 388 653 405 l 653 405 q 653 422 646 439 q 639 456 634 465 l 634 465 l 669 565 l 927 565 l 972 499 q 963 483 955 456 q 947 429 947 392 l 947 392 q 947 357 959 333 q 970 308 997 308 l 997 308 q 1015 308 1027 319 q 1038 329 1044 348 q 1049 366 1049 389 l 1049 389 q 1049 436 1037 466 q 1025 496 1010 526 l 1010 526 l 1126 578 q 1155 536 1173 491 q 1190 445 1190 385 l 1190 385 q 1190 329 1167 287 q 1144 245 1101 222 q 1058 199 998 199 z"},"ൟ":{"ha":1214,"x_min":22,"x_max":1192,"o":"m 22 271 l 22 271 q 22 333 56 372 q 89 410 151 410 l 151 410 q 212 410 247 372 q 282 333 282 271 l 282 271 q 282 209 249 171 q 215 133 151 133 l 151 133 q 89 133 56 171 q 22 209 22 271 z m 117 272 l 117 272 q 117 246 126 232 q 134 218 151 218 l 151 218 q 170 218 179 232 q 187 245 187 272 l 187 272 q 187 298 179 311 q 170 324 151 324 l 151 324 q 135 324 126 311 q 117 298 117 272 z m 932 271 l 932 271 q 932 333 966 372 q 1000 410 1062 410 l 1062 410 q 1122 410 1157 372 q 1192 333 1192 271 l 1192 271 q 1192 209 1159 171 q 1125 133 1062 133 l 1062 133 q 999 133 966 171 q 932 209 932 271 z m 1027 272 l 1027 272 q 1027 246 1036 232 q 1044 218 1062 218 l 1062 218 q 1080 218 1089 232 q 1097 245 1097 272 l 1097 272 q 1097 298 1089 311 q 1080 324 1062 324 l 1062 324 q 1045 324 1036 311 q 1027 298 1027 272 z m 602 577 l 602 577 q 679 577 736 551 q 792 525 829 478 q 866 431 885 370 q 903 308 903 236 l 903 236 q 903 148 881 93 q 859 38 817 13 q 774 -12 710 -12 l 710 -12 q 646 -12 607 17 q 568 45 551 94 q 533 143 533 205 l 533 205 q 533 303 573 355 q 613 407 688 407 l 688 407 q 731 407 762 382 q 792 357 813 317 q 834 277 844 230 l 844 230 l 790 224 q 785 246 777 265 q 768 283 755 295 q 741 306 723 306 l 723 306 q 696 306 684 282 q 671 257 671 200 l 671 200 q 671 165 676 142 q 681 118 692 107 q 702 96 716 96 l 716 96 q 733 96 744 108 q 754 120 760 150 q 765 179 765 232 l 765 232 q 765 252 764 271 q 763 290 760 306 l 760 306 q 760 311 759 319 q 758 327 757 331 l 757 331 q 752 365 733 396 q 713 427 682 446 q 650 465 609 465 l 609 465 q 556 465 522 444 q 488 423 472 383 q 455 343 455 289 l 455 289 q 455 241 465 201 q 474 160 492 123 q 509 86 532 49 l 532 49 l 423 -13 q 391 25 366 71 q 340 117 326 172 q 311 227 311 296 l 311 296 q 311 353 328 404 q 345 454 381 493 q 416 532 472 555 q 527 577 602 577 z"},"ൠ":{"ha":815,"x_min":29,"x_max":786,"o":"m 601 577 l 601 577 q 686 577 736 519 q 786 461 786 353 l 786 353 q 786 285 767 238 q 747 190 714 157 l 714 157 q 672 112 617 91 q 562 69 484 67 l 484 67 l 443 76 l 362 74 l 326 68 q 246 71 195 92 q 143 113 104 157 l 104 157 q 69 191 49 239 q 29 287 29 357 l 29 357 q 29 422 52 472 q 75 521 119 549 q 162 577 221 577 l 221 577 q 274 577 313 555 q 351 533 371 494 q 391 454 391 403 l 391 403 q 391 340 371 301 q 351 262 317 244 q 282 226 237 226 l 237 226 q 207 226 176 241 q 144 255 118 277 q 91 298 74 319 l 74 319 l 112 412 q 129 383 143 364 q 156 345 171 336 q 185 326 203 326 l 203 326 q 228 326 242 344 q 256 362 256 408 l 256 408 q 256 440 244 457 q 232 473 216 473 l 216 473 q 199 473 187 463 q 174 452 167 429 q 160 406 160 366 l 160 366 q 160 346 163 327 q 166 307 169 292 l 169 292 l 170 259 q 183 233 207 216 q 231 198 262 187 q 292 176 324 172 q 355 167 383 167 l 383 167 l 434 167 q 459 167 490 171 q 521 175 552 186 q 582 196 607 214 q 632 232 646 259 l 646 259 l 646 292 q 650 307 653 326 q 655 345 655 367 l 655 367 q 655 406 649 429 q 642 452 631 463 q 619 473 603 473 l 603 473 q 585 473 573 456 q 560 438 560 400 l 560 400 q 560 360 574 343 q 587 326 609 326 l 609 326 q 629 326 644 335 q 658 344 672 363 q 685 382 703 412 l 703 412 l 741 319 q 726 298 700 277 q 673 255 641 241 q 609 226 575 226 l 575 226 q 532 226 498 244 q 464 261 445 299 q 425 336 425 396 l 425 396 q 425 454 448 495 q 470 535 510 556 q 549 577 601 577 z m 406 -255 l 406 -255 q 310 -255 239 -234 q 168 -214 130 -169 q 91 -125 91 -52 l 91 -52 q 91 -3 113 32 q 135 66 173 87 q 211 108 259 118 q 307 128 360 128 l 360 128 l 453 128 q 508 128 557 118 q 605 108 643 87 q 681 66 703 32 q 724 -3 724 -53 l 724 -53 q 724 -121 687 -166 q 650 -211 579 -233 q 508 -255 406 -255 z m 408 -145 l 408 -145 q 475 -145 515 -133 q 555 -122 574 -99 q 592 -77 592 -44 l 592 -44 q 592 -13 578 7 q 564 27 539 39 q 514 50 482 56 q 450 61 413 61 l 413 61 l 404 61 q 352 61 311 51 q 270 41 247 19 q 223 -4 223 -43 l 223 -43 q 223 -78 242 -100 q 260 -123 301 -134 q 342 -145 408 -145 z m 471 37 l 471 37 q 497 37 514 27 q 530 16 539 0 q 548 -16 552 -35 q 555 -54 555 -71 l 555 -71 l 555 -108 l 478 -108 l 478 -89 q 478 -73 476 -62 q 474 -52 462 -52 l 462 -52 q 451 -52 448 -62 q 445 -72 445 -89 l 445 -89 l 445 -108 l 369 -108 l 369 -89 q 369 -72 366 -62 q 363 -52 353 -52 l 353 -52 q 342 -52 339 -62 q 336 -73 336 -89 l 336 -89 l 336 -108 l 260 -108 l 260 -72 q 260 -55 263 -36 q 266 -17 275 0 q 283 16 300 27 q 316 37 343 37 l 343 37 q 366 37 380 29 q 394 20 407 6 l 407 6 q 422 23 437 30 q 452 37 471 37 z"},"ൡ":{"ha":1161,"x_min":34,"x_max":1142,"o":"m 323 577 l 323 577 q 391 577 438 555 q 485 532 523 481 l 523 481 l 541 382 l 572 226 l 572 0 l 431 0 l 431 296 q 431 362 423 393 q 415 424 398 440 l 398 440 q 386 453 369 460 q 351 466 323 466 l 323 466 q 279 466 242 443 q 205 419 183 370 q 160 320 160 241 l 160 241 l 160 232 q 160 174 167 145 q 174 116 186 107 q 198 97 210 97 l 210 97 q 222 97 231 104 q 239 111 244 127 q 248 143 248 171 l 248 171 q 248 213 238 230 q 228 247 205 247 l 205 247 q 184 247 163 230 q 142 213 114 173 l 114 173 l 93 275 q 118 304 158 327 q 197 350 244 350 l 244 350 q 291 350 322 329 q 352 307 368 269 q 383 230 383 179 l 383 179 q 383 116 364 74 q 344 32 307 10 q 269 -12 215 -12 l 215 -12 q 165 -12 124 13 q 83 37 59 94 q 34 150 34 245 l 34 245 q 34 356 71 430 q 108 504 174 541 q 240 577 323 577 z m 691 577 l 691 577 q 780 577 838 544 q 895 511 927 457 q 958 403 969 341 l 969 341 q 973 316 975 289 q 976 261 976 234 l 976 234 q 976 151 956 97 q 936 42 895 15 q 854 -12 791 -12 l 791 -12 q 732 -12 693 13 q 654 38 635 82 q 616 125 616 185 l 616 185 q 616 291 682 348 q 747 404 857 404 l 857 404 q 874 404 885 404 q 896 403 904 402 l 904 402 l 930 400 q 992 388 1040 349 q 1088 310 1115 248 q 1142 185 1142 99 l 1142 99 q 1142 41 1129 -13 q 1116 -67 1085 -109 q 1053 -151 999 -176 q 945 -201 863 -201 l 863 -201 q 829 -201 801 -196 q 773 -191 743 -182 l 743 -182 l 780 -75 q 803 -82 822 -85 q 841 -88 863 -88 l 863 -88 q 910 -88 939 -70 q 968 -53 983 -24 q 998 5 1004 39 q 1009 72 1009 103 l 1009 103 q 1009 150 1003 185 q 996 219 981 245 q 966 270 941 286 l 941 286 l 897 294 q 888 297 877 298 q 865 299 854 299 l 854 299 q 818 299 796 284 q 773 269 764 244 q 754 218 754 184 l 754 184 q 754 155 759 137 q 764 118 773 109 q 782 100 796 100 l 796 100 q 820 100 832 127 q 843 153 843 232 l 843 232 q 843 268 839 299 q 834 329 826 354 l 826 354 l 819 377 q 807 407 787 427 q 766 446 742 456 q 718 465 691 465 l 691 465 q 671 465 652 461 q 633 457 616 444 l 616 444 q 601 434 592 417 q 582 400 577 370 q 572 340 572 288 l 572 288 l 572 212 l 467 455 q 495 497 527 524 q 558 551 598 564 q 638 577 691 577 z"},"ൢ":{"ha":0,"x_min":-729,"x_max":-21,"o":"m -522 27 l -522 27 q -473 27 -425 8 q -378 -11 -350 -62 l -350 -62 l -318 -162 l -318 -333 l -432 -333 l -432 -181 q -432 -148 -436 -122 q -441 -97 -456 -82 l -456 -82 q -467 -69 -484 -63 q -502 -57 -526 -57 l -526 -57 q -547 -57 -566 -64 q -586 -71 -601 -87 q -616 -103 -625 -130 l -625 -130 q -628 -142 -628 -154 q -629 -166 -629 -189 l -629 -189 q -629 -228 -620 -242 q -611 -257 -596 -257 l -596 -257 q -583 -257 -575 -246 q -567 -236 -567 -210 l -567 -210 q -567 -187 -574 -176 q -582 -165 -600 -165 l -600 -165 q -618 -165 -634 -178 q -651 -192 -671 -219 l -671 -219 l -697 -155 q -669 -126 -637 -106 q -606 -87 -576 -87 l -576 -87 q -521 -87 -494 -120 q -468 -153 -468 -210 l -468 -210 q -468 -267 -497 -302 q -526 -337 -589 -337 l -589 -337 q -655 -337 -692 -293 q -729 -250 -729 -173 l -729 -173 q -729 -108 -701 -63 q -674 -19 -627 4 q -580 27 -522 27 z m -219 27 l -219 27 q -165 27 -120 5 q -75 -18 -48 -62 q -22 -107 -22 -174 l -22 -174 q -22 -255 -55 -296 q -89 -337 -154 -337 l -154 -337 q -199 -337 -227 -319 q -255 -301 -267 -270 q -280 -239 -280 -201 l -280 -201 q -280 -157 -265 -128 q -251 -99 -225 -85 q -200 -72 -168 -72 l -168 -72 q -141 -72 -118 -84 q -96 -97 -78 -122 q -60 -148 -48 -188 l -48 -188 l -97 -193 q -106 -169 -117 -155 q -129 -142 -145 -142 l -145 -142 q -161 -142 -171 -155 q -182 -168 -182 -201 l -182 -201 q -182 -230 -173 -243 q -165 -257 -150 -257 l -150 -257 q -135 -257 -128 -238 q -121 -219 -121 -179 l -121 -179 q -121 -168 -121 -157 q -122 -146 -123 -137 l -123 -137 l -129 -113 q -141 -88 -159 -76 q -177 -64 -194 -60 q -212 -57 -225 -57 l -225 -57 q -243 -57 -257 -61 q -272 -65 -283 -73 l -283 -73 q -300 -87 -309 -113 q -319 -139 -318 -190 l -318 -190 l -417 -140 q -412 -73 -380 -37 q -349 -1 -305 13 q -261 27 -219 27 z"},"ൣ":{"ha":0,"x_min":-729,"x_max":90,"o":"m -522 27 l -522 27 q -473 27 -425 8 q -378 -11 -350 -62 l -350 -62 l -318 -162 l -318 -333 l -432 -333 l -432 -181 q -432 -148 -436 -122 q -441 -97 -456 -82 l -456 -82 q -467 -69 -484 -63 q -502 -57 -526 -57 l -526 -57 q -547 -57 -566 -64 q -586 -71 -601 -87 q -616 -103 -625 -130 l -625 -130 q -628 -142 -628 -154 q -629 -166 -629 -189 l -629 -189 q -629 -228 -620 -242 q -611 -257 -596 -257 l -596 -257 q -583 -257 -575 -246 q -567 -236 -567 -210 l -567 -210 q -567 -187 -574 -176 q -582 -165 -600 -165 l -600 -165 q -618 -165 -634 -178 q -651 -192 -671 -219 l -671 -219 l -697 -155 q -669 -126 -637 -106 q -606 -87 -576 -87 l -576 -87 q -521 -87 -494 -120 q -468 -153 -468 -210 l -468 -210 q -468 -267 -497 -302 q -526 -337 -589 -337 l -589 -337 q -655 -337 -692 -293 q -729 -250 -729 -173 l -729 -173 q -729 -108 -701 -63 q -674 -19 -627 4 q -580 27 -522 27 z m -219 27 l -219 27 q -166 27 -122 5 q -78 -18 -52 -62 q -26 -107 -26 -173 l -26 -173 q -26 -228 -40 -264 q -55 -301 -83 -319 q -111 -337 -152 -337 l -152 -337 q -201 -337 -229 -318 q -257 -300 -268 -270 q -280 -241 -280 -207 l -280 -207 q -280 -139 -236 -102 q -192 -65 -112 -65 l -112 -65 q -101 -65 -90 -65 q -79 -66 -68 -68 l -68 -68 q -27 -72 9 -91 q 45 -111 68 -149 q 90 -187 90 -248 l 90 -248 q 90 -282 83 -310 q 76 -338 66 -359 l 66 -359 l -25 -327 q -19 -312 -15 -294 q -11 -276 -11 -247 l -11 -247 q -11 -210 -22 -184 q -34 -158 -65 -144 l -65 -144 l -85 -139 q -92 -137 -99 -136 q -107 -135 -114 -135 l -114 -135 q -141 -135 -161 -151 q -182 -168 -182 -208 l -182 -208 q -182 -232 -173 -244 q -165 -257 -151 -257 l -151 -257 q -135 -257 -128 -238 q -121 -219 -121 -178 l -121 -178 q -121 -162 -121 -152 q -122 -143 -124 -133 l -124 -133 l -127 -116 q -138 -92 -154 -79 q -170 -67 -188 -62 q -207 -57 -225 -57 l -225 -57 q -245 -57 -258 -61 q -272 -65 -283 -73 l -283 -73 q -300 -87 -309 -113 q -319 -139 -318 -190 l -318 -190 l -414 -140 q -410 -89 -388 -56 q -367 -23 -337 -5 q -307 13 -275 20 q -244 27 -219 27 z"},"൦":{"ha":499,"x_min":35,"x_max":464,"o":"m 251 35 l 251 35 q 184 35 136 62 q 88 89 62 144 q 35 199 35 282 l 35 282 q 35 364 62 419 q 88 474 136 502 q 184 530 250 530 l 250 530 q 321 530 369 501 q 416 471 440 416 q 464 361 464 282 l 464 282 q 464 202 438 147 q 412 91 365 63 q 317 35 251 35 z m 250 145 l 250 145 q 272 145 289 159 q 305 172 315 203 q 324 234 324 283 l 324 283 q 324 356 304 388 q 283 420 250 420 l 250 420 q 218 420 197 388 q 175 356 175 282 l 175 282 q 175 209 196 177 q 217 145 250 145 z"},"൧":{"ha":783,"x_min":11,"x_max":736,"o":"m 338 -92 l 338 -203 l 262 -203 q 188 -203 148 -195 q 107 -187 81 -172 l 81 -172 q 48 -153 30 -122 q 11 -92 11 -49 l 11 -49 q 11 -9 27 22 q 43 52 74 73 l 74 73 q 93 86 117 94 q 140 102 175 106 q 209 110 261 110 l 261 110 l 366 110 l 430 0 l 252 0 q 216 0 201 -2 q 185 -4 175 -9 l 175 -9 q 164 -14 159 -23 q 153 -32 153 -45 l 153 -45 q 153 -67 172 -80 l 172 -80 q 182 -86 201 -89 q 219 -92 255 -92 l 255 -92 l 338 -92 z m 514 577 l 514 577 q 570 577 608 563 q 646 549 672 523 l 672 523 q 709 488 723 439 q 736 389 736 311 l 736 311 l 736 0 l 289 0 l 289 306 q 289 361 295 400 q 300 439 314 469 q 327 498 351 522 l 351 522 q 377 548 416 563 q 455 577 514 577 z m 512 466 l 512 466 q 492 466 479 460 q 465 454 456 444 l 456 444 q 441 426 436 397 q 430 367 430 310 l 430 310 l 430 110 l 594 110 l 594 306 q 594 367 589 396 q 584 425 569 444 l 569 444 q 560 454 545 460 q 530 466 512 466 z"},"൨":{"ha":724,"x_min":32,"x_max":705,"o":"m 296 577 l 296 577 q 369 577 419 554 q 468 531 498 492 q 528 452 541 404 q 554 355 554 304 l 554 304 q 554 246 542 199 q 529 152 507 110 q 484 68 454 28 l 454 28 l 496 110 l 705 110 l 705 0 l 408 0 l 341 68 q 359 95 375 129 q 391 162 401 203 q 410 244 410 293 l 410 293 q 410 345 397 384 q 384 422 359 444 q 334 465 299 465 l 299 465 q 262 465 235 445 q 208 425 193 387 q 178 348 178 294 l 178 294 q 178 244 188 203 q 197 161 214 124 q 231 87 256 50 l 256 50 l 144 -14 q 112 24 87 70 q 61 116 47 172 q 32 227 32 296 l 32 296 q 32 346 46 396 q 60 446 91 487 q 121 528 172 553 q 222 577 296 577 z"},"൩":{"ha":911,"x_min":33,"x_max":892,"o":"m 253 577 l 253 577 q 285 577 309 570 q 333 562 354 548 q 375 533 397 509 l 397 509 l 382 507 q 415 545 451 561 q 487 577 536 577 l 536 577 q 604 577 652 544 q 699 510 724 450 q 749 389 749 308 l 749 308 q 749 255 740 213 q 731 171 713 134 q 695 97 666 57 l 666 57 l 666 0 l 609 0 l 542 68 q 568 113 582 152 q 596 190 601 227 q 606 263 606 303 l 606 303 q 606 362 594 398 q 581 433 561 450 q 541 466 518 466 l 518 466 q 508 466 500 463 q 491 460 485 456 l 485 456 q 472 444 467 420 q 461 396 461 350 l 461 350 l 461 0 l 320 0 l 320 352 q 320 402 315 423 q 310 444 298 456 l 298 456 q 293 461 285 464 q 276 466 264 466 l 264 466 q 243 466 223 451 q 203 435 190 399 q 176 363 176 302 l 176 302 q 176 258 185 214 q 193 170 209 129 q 225 88 247 50 l 247 50 l 132 -14 q 102 34 80 84 q 58 134 46 189 q 33 244 33 306 l 33 306 q 33 383 58 445 q 82 506 131 542 q 180 577 253 577 z m 634 0 l 676 110 l 892 110 l 892 0 l 634 0 z"},"൪":{"ha":693,"x_min":33,"x_max":688,"o":"m 323 577 l 323 577 q 395 577 446 554 q 497 530 537 488 l 537 488 q 588 438 613 372 q 637 305 637 227 l 637 227 q 637 150 616 97 q 594 43 550 16 q 505 -12 438 -12 l 438 -12 q 375 -12 334 15 q 292 42 271 87 q 249 131 249 184 l 249 184 q 249 248 273 297 q 297 345 343 390 q 389 435 456 487 l 456 487 q 494 515 514 535 q 533 554 540 573 q 547 592 547 618 l 547 618 q 547 639 541 659 q 535 679 526 691 l 526 691 l 652 748 q 668 721 678 692 q 688 662 688 627 l 688 627 q 688 582 671 545 q 654 508 618 474 q 582 439 524 397 l 524 397 q 481 363 451 329 q 421 294 405 258 q 389 221 389 178 l 389 178 q 389 144 400 120 q 411 96 439 96 l 439 96 q 459 96 471 107 q 483 118 489 143 q 494 167 494 207 l 494 207 q 494 270 477 329 q 460 387 421 425 l 421 425 q 405 444 382 457 q 358 469 330 469 l 330 469 q 282 469 248 449 q 214 428 196 389 q 177 350 177 294 l 177 294 q 177 243 186 202 q 195 161 213 124 q 230 87 254 50 l 254 50 l 145 -14 q 113 25 88 71 q 62 116 48 172 q 33 227 33 296 l 33 296 q 33 350 50 401 q 66 451 101 491 q 135 530 191 554 q 246 577 323 577 z"},"൫":{"ha":901,"x_min":38,"x_max":863,"o":"m 458 731 l 458 731 q 560 731 636 699 q 712 666 763 606 q 813 546 838 466 q 863 386 863 291 l 863 291 q 863 219 853 142 q 842 64 816 -11 l 816 -11 l 693 28 q 706 68 713 111 q 720 153 724 196 q 727 239 727 283 l 727 283 q 727 361 710 423 q 692 485 658 529 q 624 573 574 596 q 524 619 459 619 l 459 619 q 378 619 314 581 q 250 542 212 463 q 174 383 174 259 l 174 259 q 174 188 187 129 q 200 70 226 26 q 251 -18 291 -41 q 330 -65 383 -65 l 383 -65 q 459 -65 494 -28 q 528 8 528 72 l 528 72 q 528 108 519 135 q 510 161 490 177 q 470 192 441 192 l 441 192 l 434 192 l 434 299 l 437 299 q 463 299 477 303 q 490 306 499 311 l 499 311 q 512 320 518 334 q 524 348 524 369 l 524 369 q 524 399 510 415 q 496 431 469 431 l 469 431 q 441 431 421 412 q 401 392 391 355 q 381 318 381 263 l 381 263 q 381 206 395 150 q 409 94 431 40 l 431 40 l 305 -4 q 275 60 257 127 q 238 193 238 271 l 238 271 q 238 353 268 414 q 297 475 351 509 q 404 543 475 543 l 475 543 q 539 543 581 521 q 623 498 644 461 q 665 423 665 375 l 665 375 q 665 348 657 322 q 649 296 629 275 q 609 254 573 238 l 573 238 l 560 257 q 604 240 637 189 q 669 138 669 66 l 669 66 q 669 -14 636 -68 q 602 -122 540 -149 q 477 -177 393 -177 l 393 -177 q 280 -177 201 -126 q 122 -76 80 20 q 38 116 38 253 l 38 253 q 38 374 71 465 q 104 555 162 614 q 220 673 296 702 q 372 731 458 731 z"},"൬":{"ha":1040,"x_min":33,"x_max":1001,"o":"m 515 577 l 515 577 q 559 577 595 560 q 630 542 659 503 l 659 503 l 719 315 l 719 0 l 578 0 l 578 346 q 578 387 574 411 q 570 434 558 448 l 558 448 q 551 457 541 462 q 531 466 516 466 l 516 466 q 503 466 492 461 q 481 456 473 448 l 473 448 q 462 434 457 412 q 451 389 451 343 l 451 343 l 451 0 l 310 0 l 310 358 q 310 401 307 421 q 303 441 292 454 l 292 454 q 287 459 279 463 q 271 466 258 466 l 258 466 q 238 466 219 450 q 200 434 188 398 q 176 362 176 302 l 176 302 q 176 257 184 214 q 192 171 208 131 q 224 90 246 51 l 246 51 l 131 -12 q 101 36 79 86 q 57 135 45 190 q 33 244 33 306 l 33 306 q 33 382 57 444 q 81 505 129 541 q 176 577 246 577 l 246 577 q 292 577 326 560 q 359 543 389 508 l 389 508 l 366 495 q 397 537 434 557 q 471 577 515 577 z m 793 577 l 793 577 q 897 577 949 491 q 1001 405 1001 234 l 1001 234 q 1001 85 972 -11 q 943 -107 875 -154 q 806 -201 687 -201 l 687 -201 q 669 -201 646 -199 q 622 -197 599 -193 l 599 -193 l 607 -82 q 623 -86 642 -87 q 660 -89 679 -89 l 679 -89 q 736 -89 772 -65 q 807 -42 826 1 q 844 43 851 101 q 857 159 857 229 l 857 229 q 857 301 849 354 q 841 407 824 437 q 806 466 778 466 l 778 466 q 767 466 759 463 q 751 460 743 455 l 743 455 q 729 440 724 413 q 719 385 719 337 l 719 337 l 719 10 l 587 10 l 587 315 l 639 502 q 671 541 707 559 q 743 577 793 577 z"},"൭":{"ha":653,"x_min":34,"x_max":617,"o":"m 332 577 l 332 577 q 408 577 462 550 q 516 522 551 473 q 585 423 601 356 q 617 289 617 210 l 617 210 q 617 106 597 29 q 576 -48 536 -99 q 496 -151 436 -176 q 376 -201 296 -201 l 296 -201 q 268 -201 243 -199 q 217 -198 193 -193 l 193 -193 l 203 -82 q 221 -86 241 -87 q 261 -89 278 -89 l 278 -89 q 332 -89 370 -68 q 407 -47 430 -7 q 452 32 462 88 q 472 143 472 211 l 472 211 q 472 340 431 403 q 390 466 320 466 l 320 466 q 268 466 232 436 q 196 406 178 355 q 160 304 160 238 l 160 238 l 160 230 q 160 173 167 144 q 174 115 186 105 q 198 95 211 95 l 211 95 q 223 95 231 102 q 239 109 244 125 q 248 141 248 169 l 248 169 q 248 212 238 230 q 228 247 205 247 l 205 247 q 182 247 161 229 q 139 211 111 169 l 111 169 l 94 275 q 118 304 157 327 q 195 350 243 350 l 243 350 q 290 350 321 329 q 352 307 368 269 q 383 230 383 179 l 383 179 q 383 118 364 76 q 344 34 308 11 q 271 -12 217 -12 l 217 -12 q 167 -12 125 13 q 83 37 59 92 q 34 146 34 237 l 34 237 q 34 338 69 415 q 103 492 170 535 q 236 577 332 577 z"},"൮":{"ha":830,"x_min":32,"x_max":778,"o":"m 296 577 l 296 577 q 369 577 419 554 q 468 531 498 492 q 528 452 541 404 q 554 355 554 304 l 554 304 q 554 246 542 199 q 529 152 507 110 q 484 68 454 28 l 454 28 l 496 110 l 637 110 l 637 565 l 778 565 l 778 159 l 714 0 l 408 0 l 341 68 q 359 95 375 129 q 391 162 401 203 q 410 244 410 293 l 410 293 q 410 345 397 384 q 384 422 359 444 q 334 465 299 465 l 299 465 q 262 465 235 445 q 208 425 193 387 q 178 348 178 294 l 178 294 q 178 244 188 203 q 197 161 214 124 q 231 87 256 50 l 256 50 l 144 -14 q 112 24 87 70 q 61 116 47 172 q 32 227 32 296 l 32 296 q 32 346 46 396 q 60 446 91 487 q 121 528 172 553 q 222 577 296 577 z m 500 -201 l 500 -201 q 473 -201 446 -198 q 419 -195 396 -189 l 396 -189 l 411 -79 q 427 -83 448 -85 q 469 -88 487 -88 l 487 -88 q 534 -88 563 -77 q 592 -66 608 -45 q 624 -24 631 3 q 637 29 638 60 l 638 60 l 778 275 l 778 117 q 778 49 771 0 q 764 -50 746 -84 q 728 -119 696 -145 l 696 -145 q 664 -171 617 -186 q 569 -201 500 -201 z"},"൯":{"ha":966,"x_min":33,"x_max":961,"o":"m 255 577 l 255 577 q 288 577 314 570 q 339 562 364 545 q 389 528 417 501 l 417 501 l 461 235 l 461 0 l 320 0 l 320 354 q 320 402 315 423 q 310 444 298 456 l 298 456 q 293 461 285 464 q 276 466 264 466 l 264 466 q 243 466 223 451 q 203 435 190 399 q 176 363 176 302 l 176 302 q 176 258 185 214 q 193 170 209 129 q 225 88 247 50 l 247 50 l 132 -14 q 102 34 80 84 q 58 134 46 189 q 33 244 33 306 l 33 306 q 33 383 58 445 q 82 506 132 542 q 181 577 255 577 z m 580 577 l 580 577 q 661 577 715 553 q 769 528 810 485 l 810 485 q 859 435 885 370 q 910 304 910 227 l 910 227 q 910 150 889 97 q 867 43 823 16 q 779 -12 711 -12 l 711 -12 q 648 -12 606 15 q 564 42 543 87 q 522 131 522 184 l 522 184 q 522 248 546 297 q 570 345 616 390 q 662 435 729 487 l 729 487 q 767 515 787 535 q 806 554 813 573 q 820 592 820 618 l 820 618 q 820 639 814 659 q 808 679 799 691 l 799 691 l 925 748 q 941 721 951 692 q 961 662 961 627 l 961 627 q 961 582 944 545 q 927 508 891 474 q 855 439 797 397 l 797 397 q 755 363 725 329 q 694 294 678 258 q 662 221 662 178 l 662 178 q 662 144 673 120 q 684 96 712 96 l 712 96 q 732 96 744 107 q 755 118 761 143 q 767 167 767 207 l 767 207 q 767 274 748 330 q 729 386 691 424 l 691 424 q 674 443 648 456 q 622 469 581 469 l 581 469 q 562 469 542 464 q 522 458 506 445 l 506 445 q 489 431 479 412 q 469 393 465 364 q 461 334 461 290 l 461 290 l 461 17 l 327 17 l 327 309 l 361 466 q 386 498 415 523 q 444 548 484 563 q 523 577 580 577 z"},"൰":{"ha":877,"x_min":-22,"x_max":844,"o":"m 147 565 l 288 565 l 288 163 l 285 119 q 285 36 275 -20 q 264 -77 238 -118 l 238 -118 q 213 -156 168 -178 q 123 -201 58 -201 l 58 -201 q 36 -201 16 -199 q -4 -197 -22 -192 l -22 -192 l -12 -83 q -2 -85 12 -87 q 26 -89 39 -89 l 39 -89 q 69 -89 87 -81 q 104 -74 117 -60 l 117 -60 q 137 -38 142 0 q 147 38 147 101 l 147 101 l 147 565 z m 630 -12 l 630 -12 q 585 -12 549 4 q 513 19 480 57 l 480 57 l 505 70 q 472 26 441 7 q 409 -12 367 -12 l 367 -12 q 332 -12 307 -2 q 281 8 262 27 q 242 46 225 72 l 225 72 l 168 258 l 169 560 l 288 529 l 288 220 q 288 175 293 153 q 297 131 309 117 l 309 117 q 316 108 327 104 q 338 99 354 99 l 354 99 q 368 99 379 104 q 390 109 397 117 l 397 117 q 410 131 415 153 q 419 175 419 224 l 419 224 l 419 565 l 561 565 l 561 226 q 561 173 564 149 q 566 124 580 111 l 580 111 q 587 105 597 102 q 606 99 614 99 l 614 99 q 637 99 657 116 q 676 133 689 170 q 701 206 701 263 l 701 263 q 701 308 693 351 q 684 394 669 435 q 653 476 630 514 l 630 514 l 745 577 q 777 530 799 480 q 820 430 832 375 q 844 320 844 257 l 844 257 q 844 181 820 120 q 796 59 749 24 q 701 -12 630 -12 z"},"൱":{"ha":789,"x_min":33,"x_max":750,"o":"m 255 577 l 255 577 q 287 577 312 570 q 337 562 361 546 q 385 529 412 501 l 412 501 l 461 235 l 461 0 l 320 0 l 320 354 q 320 402 315 423 q 310 444 298 456 l 298 456 q 293 461 285 464 q 276 466 264 466 l 264 466 q 243 466 223 451 q 203 435 190 399 q 176 363 176 302 l 176 302 q 176 258 185 214 q 193 170 209 129 q 225 88 247 50 l 247 50 l 132 -14 q 102 34 80 84 q 58 134 46 189 q 33 244 33 306 l 33 306 q 33 383 58 445 q 82 506 132 542 q 181 577 255 577 z m 537 577 l 537 577 q 609 577 657 539 q 704 501 727 425 q 750 349 750 234 l 750 234 q 750 85 721 -11 q 692 -108 624 -154 q 556 -201 437 -201 l 437 -201 q 417 -201 394 -199 q 370 -197 346 -193 l 346 -193 l 355 -82 q 370 -86 390 -87 q 409 -89 429 -89 l 429 -89 q 486 -89 522 -65 q 557 -42 576 1 q 594 43 601 102 q 607 160 607 230 l 607 230 q 607 302 599 355 q 590 408 572 437 q 553 466 524 466 l 524 466 q 512 466 503 464 q 494 461 486 455 l 486 455 q 471 441 466 414 q 461 387 461 338 l 461 338 l 461 10 l 329 10 l 329 310 l 381 502 q 414 540 451 559 q 488 577 537 577 z"},"൲":{"ha":1230,"x_min":34,"x_max":1211,"o":"m 1053 565 l 1053 565 q 1111 565 1146 543 q 1180 521 1196 486 q 1211 451 1211 411 l 1211 411 q 1211 370 1196 337 q 1181 304 1155 283 l 1155 283 q 1134 266 1111 257 q 1088 248 1056 244 q 1024 240 977 240 l 977 240 l 822 240 l 823 350 l 995 350 q 1025 350 1042 354 q 1058 357 1066 364 l 1066 364 q 1076 372 1081 383 q 1085 393 1085 412 l 1085 412 q 1085 433 1076 446 q 1066 458 1052 458 l 1052 458 q 1034 458 1025 443 q 1016 428 1016 404 l 1016 404 q 1016 371 1027 348 q 1038 324 1052 306 l 1052 306 l 930 299 q 915 319 905 351 q 895 382 895 412 l 895 412 q 895 463 917 497 q 938 530 974 548 q 1010 565 1053 565 z m 256 577 l 256 577 q 288 577 313 570 q 338 563 362 547 q 385 530 412 503 l 412 503 l 462 227 l 462 0 l 321 0 l 321 354 q 321 402 316 423 q 311 444 299 456 l 299 456 q 294 461 286 464 q 277 466 265 466 l 265 466 q 244 466 224 451 q 204 435 191 399 q 177 363 177 302 l 177 302 q 177 258 186 214 q 194 170 210 129 q 226 88 248 50 l 248 50 l 133 -14 q 103 34 81 84 q 59 134 47 189 q 34 244 34 306 l 34 306 q 34 383 59 445 q 83 506 133 542 q 182 577 256 577 z m 574 577 l 574 577 q 644 577 698 551 q 752 525 790 479 q 828 432 848 368 q 868 304 868 228 l 868 228 q 868 141 845 88 q 822 35 780 12 q 738 -12 677 -12 l 677 -12 q 613 -12 575 13 q 537 38 521 76 q 504 114 504 156 l 504 156 q 504 208 525 247 q 545 286 584 311 l 584 311 q 604 325 630 334 q 656 342 689 346 q 722 350 764 350 l 764 350 l 960 350 l 960 240 l 770 240 q 725 240 703 235 q 681 229 667 218 l 667 218 q 653 208 647 192 q 641 175 641 155 l 641 155 q 641 132 651 117 q 660 101 679 101 l 679 101 q 693 101 704 112 q 715 123 721 149 q 727 175 727 222 l 727 222 q 727 237 727 252 q 727 266 725 279 l 725 279 l 718 317 q 712 354 697 388 q 682 422 654 444 q 625 466 578 466 l 578 466 q 560 466 541 462 q 521 457 503 442 l 503 442 q 487 429 479 412 q 470 394 466 366 q 462 337 462 294 l 462 294 l 462 199 l 383 235 l 373 481 q 395 509 422 531 q 449 553 487 565 q 524 577 574 577 z"},"൳":{"ha":621,"x_min":33,"x_max":599,"o":"m 215 -12 l 215 -12 q 161 -12 120 14 q 79 39 56 92 q 33 145 33 227 l 33 227 q 33 305 58 364 q 82 423 131 460 l 131 460 q 165 486 207 502 q 248 517 303 524 q 357 531 430 531 l 430 531 l 599 531 l 599 417 l 425 417 q 374 417 337 414 q 299 410 272 402 q 244 394 222 380 l 222 380 q 199 365 185 343 q 170 321 163 299 l 163 299 l 163 261 q 161 253 160 244 q 159 234 159 221 l 159 221 q 159 169 166 142 q 173 115 185 105 q 196 95 209 95 l 209 95 q 221 95 230 102 q 238 109 243 125 q 247 141 247 169 l 247 169 q 247 212 237 230 q 227 247 205 247 l 205 247 q 182 247 160 229 q 138 211 110 169 l 110 169 l 85 267 q 110 300 151 325 q 192 350 243 350 l 243 350 q 290 350 321 329 q 351 307 367 269 q 382 230 382 179 l 382 179 q 382 117 363 75 q 344 32 307 10 q 270 -12 215 -12 z"},"൴":{"ha":822,"x_min":33,"x_max":788,"o":"m 407 789 l 548 789 l 548 195 q 548 171 550 154 q 551 136 555 124 q 559 112 567 104 l 567 104 q 572 101 579 99 q 585 97 594 97 l 594 97 q 609 97 621 108 q 632 119 639 146 q 645 172 645 218 l 645 218 q 645 263 636 304 q 626 345 606 379 q 586 412 556 436 q 526 460 485 470 l 485 470 l 451 466 q 442 466 433 467 q 423 468 413 468 l 413 468 q 356 468 310 454 q 263 439 230 410 q 196 381 178 338 q 160 295 160 237 l 160 237 l 160 223 q 160 169 167 141 q 173 113 185 104 q 197 95 210 95 l 210 95 q 222 95 230 102 q 238 109 243 125 q 247 141 247 170 l 247 170 q 247 213 237 230 q 227 247 205 247 l 205 247 q 182 247 161 229 q 139 211 111 169 l 111 169 l 85 267 q 111 300 152 325 q 192 350 243 350 l 243 350 q 290 350 321 329 q 351 307 367 269 q 382 231 382 179 l 382 179 q 382 118 363 76 q 344 34 307 11 q 270 -12 216 -12 l 216 -12 q 165 -12 124 13 q 83 37 58 90 q 33 142 33 228 l 33 228 q 33 314 61 380 q 88 445 139 489 q 190 532 260 555 q 330 577 415 577 l 415 577 q 432 577 446 578 q 459 578 472 576 l 472 576 l 509 572 q 561 565 611 540 q 661 514 701 470 q 741 425 765 363 q 788 301 788 222 l 788 222 q 788 152 766 100 q 744 47 701 18 q 657 -12 594 -12 l 594 -12 q 549 -12 518 0 q 487 12 464 33 l 464 33 q 443 55 430 84 q 417 112 412 150 q 407 188 407 238 l 407 238 l 407 789 z"},"൵":{"ha":1076,"x_min":34,"x_max":1071,"o":"m 323 577 l 323 577 q 391 577 438 554 q 485 531 523 479 l 523 479 l 546 384 l 572 226 l 572 0 l 431 0 l 431 296 q 431 362 423 393 q 415 424 398 440 l 398 440 q 386 453 369 460 q 351 466 323 466 l 323 466 q 279 466 242 443 q 205 419 183 370 q 160 320 160 241 l 160 241 l 160 232 q 160 174 167 145 q 174 115 186 105 q 198 95 210 95 l 210 95 q 222 95 231 103 q 239 110 244 126 q 248 142 248 170 l 248 170 q 248 213 238 230 q 228 247 205 247 l 205 247 q 184 247 163 230 q 142 213 114 173 l 114 173 l 93 275 q 118 304 158 327 q 197 350 244 350 l 244 350 q 291 350 322 329 q 352 307 368 269 q 383 230 383 179 l 383 179 q 383 116 364 74 q 344 32 307 10 q 269 -12 215 -12 l 215 -12 q 165 -12 124 13 q 83 37 59 94 q 34 150 34 245 l 34 245 q 34 356 71 430 q 108 504 174 541 q 240 577 323 577 z m 690 577 l 690 577 q 771 577 825 553 q 879 528 920 485 l 920 485 q 970 435 995 370 q 1020 304 1020 227 l 1020 227 q 1020 150 999 97 q 977 43 933 16 q 889 -12 821 -12 l 821 -12 q 758 -12 717 15 q 675 42 654 87 q 633 131 633 184 l 633 184 q 633 248 657 297 q 681 345 727 390 q 773 435 840 487 l 840 487 q 878 515 897 535 q 916 554 923 573 q 930 592 930 618 l 930 618 q 930 639 924 659 q 918 679 909 691 l 909 691 l 1036 748 q 1052 721 1062 692 q 1071 662 1071 627 l 1071 627 q 1071 582 1055 545 q 1038 508 1002 474 q 966 439 907 397 l 907 397 q 865 363 835 329 q 804 294 789 258 q 773 221 773 178 l 773 178 q 773 144 784 120 q 795 96 822 96 l 822 96 q 843 96 855 107 q 866 118 872 143 q 877 167 877 207 l 877 207 q 877 274 859 330 q 840 386 801 424 l 801 424 q 784 443 759 456 q 733 469 692 469 l 692 469 q 673 469 653 464 q 633 458 616 445 l 616 445 q 600 431 590 412 q 579 393 576 364 q 572 334 572 290 l 572 290 l 572 17 l 438 17 l 438 309 l 472 466 q 497 498 526 523 q 554 548 594 563 q 634 577 690 577 z"},"൶":{"ha":1165,"x_min":27,"x_max":1120,"o":"m 219 367 l 219 367 q 287 367 328 340 q 369 313 388 271 q 406 229 406 184 l 406 184 q 406 152 396 123 q 385 94 374 74 l 374 74 l 366 110 l 591 110 l 621 0 l 290 0 l 245 66 q 254 83 262 110 q 270 137 270 174 l 270 174 q 270 209 259 233 q 247 257 220 257 l 220 257 q 202 257 191 247 q 179 236 174 218 q 168 199 168 177 l 168 177 q 168 129 181 99 q 194 69 207 39 l 207 39 l 92 -12 q 63 30 45 76 q 27 121 27 180 l 27 180 q 27 237 50 278 q 73 319 117 343 q 160 367 219 367 z m 828 577 l 828 577 q 909 577 962 557 q 1015 537 1049 503 l 1049 503 q 1074 478 1090 446 q 1105 413 1113 368 q 1120 323 1120 260 l 1120 260 l 1120 0 l 548 0 l 548 261 q 548 327 556 373 q 564 418 580 450 q 596 482 621 506 l 621 506 q 655 540 705 559 q 755 577 828 577 z m 752 461 l 752 461 q 738 461 726 451 q 714 441 706 423 l 706 423 q 697 405 692 376 q 687 347 687 294 l 687 294 l 687 66 l 661 69 q 697 117 727 172 q 756 226 774 283 q 791 339 791 392 l 791 392 q 791 416 787 431 q 783 446 775 454 q 766 461 752 461 z m 929 359 l 929 359 q 929 314 918 272 q 907 229 887 188 q 866 146 836 100 l 836 100 l 822 106 q 838 108 861 109 q 884 110 897 110 l 897 110 l 981 110 l 981 285 q 981 345 971 382 q 960 419 939 442 q 918 464 885 477 l 885 477 l 886 480 q 905 460 917 429 q 929 397 929 359 z"},"൷":{"ha":1516,"x_min":27,"x_max":1496,"o":"m 219 367 l 219 367 q 287 367 328 340 q 369 313 388 271 q 406 229 406 184 l 406 184 q 406 152 396 123 q 385 94 374 74 l 374 74 l 365 110 l 561 110 l 618 0 l 290 0 l 245 66 q 254 83 262 110 q 270 137 270 174 l 270 174 q 270 209 259 233 q 247 257 220 257 l 220 257 q 202 257 191 247 q 179 236 174 218 q 168 199 168 177 l 168 177 q 168 129 181 99 q 194 69 207 39 l 207 39 l 92 -12 q 63 30 45 76 q 27 121 27 180 l 27 180 q 27 237 50 278 q 73 319 117 343 q 160 367 219 367 z m 693 577 l 693 577 q 726 577 751 570 q 775 563 799 547 q 822 530 849 503 l 849 503 l 900 316 l 900 231 l 759 231 l 759 354 q 759 402 754 423 q 749 444 737 456 l 737 456 q 732 461 723 464 q 714 466 703 466 l 703 466 q 682 466 662 451 q 642 435 629 400 q 615 364 615 304 l 615 304 q 615 242 631 183 q 646 123 676 68 l 676 68 l 611 0 l 547 0 l 528 88 q 510 121 498 154 q 485 187 479 225 q 472 263 472 308 l 472 308 q 472 384 497 445 q 521 506 571 542 q 620 577 693 577 z m 1022 577 l 1022 577 q 1092 577 1147 551 q 1202 525 1241 478 q 1279 431 1300 368 q 1320 304 1320 228 l 1320 228 q 1320 141 1297 88 q 1274 35 1232 12 q 1190 -12 1129 -12 l 1129 -12 q 1065 -12 1027 13 q 989 38 973 76 q 957 114 957 156 l 957 156 q 957 208 977 247 q 997 286 1036 311 l 1036 311 q 1056 325 1082 334 q 1108 342 1141 346 q 1174 350 1215 350 l 1215 350 l 1286 350 l 1286 240 l 1222 240 q 1177 240 1155 235 q 1133 229 1119 218 l 1119 218 q 1105 208 1099 192 q 1093 175 1093 155 l 1093 155 q 1093 132 1103 117 q 1112 101 1130 101 l 1130 101 q 1145 101 1156 113 q 1166 124 1172 150 q 1177 176 1177 222 l 1177 222 q 1177 237 1177 252 q 1177 266 1176 279 l 1176 279 l 1169 317 q 1164 354 1148 388 q 1132 422 1102 444 q 1072 466 1023 466 l 1023 466 q 998 466 979 462 q 960 458 940 442 l 940 442 q 926 429 917 412 q 908 394 904 366 q 900 337 900 294 l 900 294 l 900 251 l 821 235 l 813 483 q 834 511 863 533 q 891 554 930 566 q 969 577 1022 577 z m 1350 448 l 1485 476 q 1490 461 1493 441 q 1496 421 1496 400 l 1496 400 q 1496 361 1485 333 q 1473 304 1451 286 l 1451 286 q 1423 261 1382 251 q 1341 240 1273 240 l 1273 240 l 1257 240 l 1257 350 l 1264 350 q 1289 350 1307 354 q 1325 358 1336 367 l 1336 367 q 1346 375 1351 387 q 1355 399 1355 415 l 1355 415 q 1355 422 1354 431 q 1352 440 1350 448 l 1350 448 z"},"൸":{"ha":1875,"x_min":8,"x_max":1830,"o":"m 1192 577 l 1192 577 q 1214 577 1235 574 q 1255 570 1274 562 q 1293 553 1312 538 q 1331 522 1350 497 l 1350 497 l 1318 488 q 1342 517 1374 537 q 1406 556 1447 567 q 1487 577 1538 577 l 1538 577 q 1619 577 1672 557 q 1725 537 1759 503 l 1759 503 q 1783 478 1799 446 q 1815 413 1823 368 q 1830 323 1830 260 l 1830 260 l 1830 0 l 1394 0 l 1394 100 q 1420 139 1444 187 q 1468 234 1484 287 q 1500 340 1500 392 l 1500 392 q 1500 416 1497 431 q 1493 446 1484 454 q 1475 461 1461 461 l 1461 461 q 1448 461 1436 452 q 1424 442 1415 423 l 1415 423 q 1405 404 1401 374 q 1396 343 1396 286 l 1396 286 l 1396 230 l 1257 230 l 1257 352 q 1257 384 1254 406 q 1251 428 1242 443 l 1242 443 q 1236 454 1225 460 q 1213 466 1195 466 l 1195 466 q 1180 466 1169 461 q 1158 455 1152 445 l 1152 445 q 1142 431 1139 410 q 1135 389 1135 358 l 1135 358 l 1135 225 q 1135 183 1129 148 q 1123 113 1110 86 q 1097 59 1076 38 l 1076 38 q 1053 16 1018 2 q 983 -12 933 -12 l 933 -12 q 883 -12 847 2 q 811 16 788 38 l 788 38 q 767 60 754 87 q 741 114 735 149 q 729 183 729 225 l 729 225 l 729 354 q 729 386 726 407 q 722 428 713 443 l 713 443 q 707 454 696 460 q 685 466 668 466 l 668 466 q 652 466 641 461 q 630 455 624 445 l 624 445 q 613 431 610 410 q 607 389 607 358 l 607 358 l 607 227 q 607 155 593 112 q 578 68 550 40 l 550 40 q 526 16 492 2 q 457 -12 412 -12 l 412 -12 q 359 -12 322 8 q 285 27 261 61 l 261 61 l 281 60 q 258 34 233 18 q 208 2 182 -5 q 156 -12 126 -12 l 126 -12 q 90 -12 63 -5 q 35 2 8 16 l 8 16 l 51 118 q 70 110 89 105 q 108 99 129 99 l 129 99 q 142 99 155 102 q 167 104 177 111 l 177 111 q 192 125 196 150 q 200 175 200 226 l 200 226 l 200 562 l 341 565 l 341 216 q 341 175 346 153 q 351 131 362 117 l 362 117 q 369 110 380 105 q 391 100 404 100 l 404 100 q 418 100 429 104 q 439 108 447 119 l 447 119 q 457 131 461 151 q 465 170 465 209 l 465 209 l 465 339 q 465 383 472 418 q 478 452 491 480 q 503 507 523 527 l 523 527 q 546 548 581 563 q 616 577 665 577 l 665 577 q 716 577 752 563 q 788 549 811 527 l 811 527 q 832 507 845 480 q 858 452 865 418 q 871 383 871 341 l 871 341 l 871 214 q 871 182 874 160 q 877 137 886 122 l 886 122 q 892 112 904 106 q 915 100 932 100 l 932 100 q 948 100 959 106 q 970 111 976 120 l 976 120 q 986 134 990 156 q 993 177 993 211 l 993 211 l 993 339 q 993 383 999 418 q 1005 452 1018 480 q 1031 507 1052 527 l 1052 527 q 1075 548 1110 563 q 1144 577 1192 577 z m 1639 359 l 1639 359 q 1639 314 1628 272 q 1617 229 1596 188 q 1575 146 1546 100 l 1546 100 l 1531 106 q 1547 108 1571 109 q 1594 110 1607 110 l 1607 110 l 1691 110 l 1691 285 q 1691 345 1680 382 q 1669 419 1649 442 q 1628 464 1595 477 l 1595 477 l 1595 480 q 1614 460 1627 429 q 1639 397 1639 359 z"},"൹":{"ha":981,"x_min":33,"x_max":959,"o":"m 255 577 l 255 577 q 287 577 312 570 q 337 563 361 547 q 384 530 411 503 l 411 503 l 461 227 l 461 0 l 320 0 l 320 354 q 320 402 315 423 q 310 444 298 456 l 298 456 q 293 461 285 464 q 276 466 264 466 l 264 466 q 243 466 223 451 q 203 435 190 399 q 176 363 176 302 l 176 302 q 176 258 185 214 q 193 170 209 129 q 225 88 247 50 l 247 50 l 132 -14 q 102 34 80 84 q 58 134 46 189 q 33 244 33 306 l 33 306 q 33 383 58 445 q 82 506 132 542 q 181 577 255 577 z m 573 577 l 573 577 q 643 577 698 551 q 752 525 790 479 q 827 432 847 368 q 867 304 867 228 l 867 228 q 867 141 844 88 q 821 35 779 12 q 737 -12 676 -12 l 676 -12 q 612 -12 574 13 q 536 38 520 76 q 503 114 503 156 l 503 156 q 503 208 524 247 q 544 286 583 311 l 583 311 q 603 325 629 334 q 655 342 688 346 q 721 350 763 350 l 763 350 l 959 350 l 959 240 l 769 240 q 724 240 702 235 q 680 229 666 218 l 666 218 q 652 208 646 192 q 640 175 640 155 l 640 155 q 640 132 650 117 q 659 101 678 101 l 678 101 q 692 101 703 112 q 714 123 720 149 q 726 175 726 222 l 726 222 q 726 237 726 252 q 726 266 724 279 l 724 279 l 717 317 q 711 354 696 388 q 681 422 653 444 q 624 466 577 466 l 577 466 q 559 466 540 462 q 520 457 502 442 l 502 442 q 486 429 478 412 q 469 394 465 366 q 461 337 461 294 l 461 294 l 461 199 l 382 235 l 372 481 q 394 509 421 531 q 448 553 486 565 q 523 577 573 577 z"},"ൺ":{"ha":1313,"x_min":34,"x_max":1281,"o":"m 323 577 l 323 577 q 391 577 438 554 q 485 531 524 478 l 524 478 l 483 493 q 512 535 552 556 q 591 577 638 577 l 638 577 q 688 577 725 557 q 762 536 792 493 l 792 493 l 800 447 l 843 287 l 843 0 l 702 0 l 702 344 q 702 390 698 412 q 694 434 681 448 l 681 448 q 673 457 663 462 q 653 466 636 466 l 636 466 q 623 466 612 461 q 601 456 593 448 l 593 448 q 580 434 576 413 q 571 391 571 341 l 571 341 l 571 0 l 430 0 l 430 297 q 430 362 423 393 q 415 424 398 440 l 398 440 q 386 453 369 460 q 352 466 323 466 l 323 466 q 279 466 242 443 q 205 419 183 370 q 160 320 160 241 l 160 241 l 160 232 q 160 174 167 145 q 174 115 186 105 q 198 95 210 95 l 210 95 q 222 95 231 103 q 239 110 244 126 q 248 142 248 170 l 248 170 q 248 213 238 230 q 228 247 205 247 l 205 247 q 184 247 163 230 q 142 213 114 173 l 114 173 l 93 275 q 118 304 158 327 q 197 350 244 350 l 244 350 q 291 350 322 329 q 352 307 368 269 q 383 231 383 179 l 383 179 q 383 117 364 75 q 344 32 307 10 q 269 -12 215 -12 l 215 -12 q 165 -12 124 13 q 83 37 59 94 q 34 150 34 244 l 34 244 q 34 356 71 430 q 108 504 174 541 q 240 577 323 577 z m 1090 -12 l 1090 -12 q 1028 -12 987 15 q 945 41 924 92 q 903 142 903 214 l 903 214 q 903 263 914 310 q 925 356 951 401 q 977 446 1020 492 l 1020 492 l 1036 530 q 1063 562 1081 589 q 1098 615 1098 642 l 1098 642 q 1098 663 1086 677 q 1074 690 1048 690 l 1048 690 q 1039 690 1028 689 q 1016 687 1004 684 l 1004 684 l 981 787 q 1004 795 1034 798 q 1063 801 1091 801 l 1091 801 q 1150 801 1182 781 q 1213 760 1225 729 q 1237 697 1237 663 l 1237 663 q 1237 614 1213 567 q 1188 519 1145 468 l 1145 468 l 1125 447 q 1100 417 1082 379 q 1063 341 1054 298 q 1044 254 1044 209 l 1044 209 q 1044 171 1049 146 q 1053 121 1064 109 q 1074 96 1091 96 l 1091 96 q 1114 96 1126 120 q 1138 143 1138 210 l 1138 210 q 1138 258 1131 302 q 1123 346 1108 381 q 1092 416 1068 437 l 1068 437 q 1048 452 1028 461 q 1008 470 971 470 l 971 470 q 950 470 929 465 q 907 459 889 444 l 889 444 q 874 433 864 415 q 854 397 849 370 q 843 343 843 302 l 843 302 l 843 49 l 713 49 l 713 249 l 746 466 q 770 497 799 523 q 828 548 871 563 q 913 577 973 577 l 973 577 q 1013 577 1047 570 q 1080 562 1109 547 l 1109 547 q 1115 544 1122 541 q 1128 538 1134 533 l 1134 533 q 1181 505 1214 458 q 1246 410 1264 350 q 1281 290 1281 222 l 1281 222 q 1281 106 1234 47 q 1187 -12 1090 -12 z"},"ൻ":{"ha":932,"x_min":33,"x_max":900,"o":"m 253 577 l 253 577 q 285 577 310 570 q 335 563 359 548 q 382 532 407 507 l 407 507 l 461 278 l 461 0 l 320 0 l 320 354 q 320 402 315 423 q 310 444 298 456 l 298 456 q 293 461 285 464 q 276 466 264 466 l 264 466 q 243 466 223 451 q 203 435 190 399 q 176 363 176 302 l 176 302 q 176 258 185 214 q 193 170 209 129 q 225 88 247 50 l 247 50 l 132 -14 q 102 34 80 84 q 58 134 46 189 q 33 244 33 306 l 33 306 q 33 383 58 445 q 82 506 131 542 q 180 577 253 577 z m 709 -12 l 709 -12 q 647 -12 605 15 q 563 41 543 92 q 522 142 522 214 l 522 214 q 522 263 533 310 q 544 356 570 401 q 596 446 639 492 l 639 492 l 654 530 q 682 562 699 589 q 716 615 716 642 l 716 642 q 716 663 705 677 q 693 690 667 690 l 667 690 q 658 690 647 689 q 635 687 623 684 l 623 684 l 600 787 q 623 795 653 798 q 682 801 709 801 l 709 801 q 769 801 801 781 q 832 760 844 729 q 856 697 856 663 l 856 663 q 856 614 832 567 q 807 519 764 468 l 764 468 l 743 447 q 718 417 700 379 q 681 341 672 298 q 663 254 663 209 l 663 209 q 663 171 668 146 q 672 121 683 109 q 693 96 710 96 l 710 96 q 733 96 745 120 q 757 143 757 210 l 757 210 q 757 258 750 302 q 742 346 727 381 q 711 416 687 437 l 687 437 q 667 452 647 461 q 627 470 590 470 l 590 470 q 568 470 547 465 q 526 459 507 444 l 507 444 q 493 433 483 415 q 473 397 467 370 q 461 343 461 302 l 461 302 l 461 49 l 331 49 l 331 249 l 365 466 q 389 497 418 523 q 447 548 490 563 q 532 577 592 577 l 592 577 q 631 577 665 570 q 699 562 728 547 l 728 547 q 734 544 741 541 q 747 538 753 533 l 753 533 q 800 505 833 458 q 865 410 883 350 q 900 290 900 222 l 900 222 q 900 106 853 47 q 806 -12 709 -12 z"},"ർ":{"ha":661,"x_min":33,"x_max":629,"o":"m 439 -12 l 439 -12 q 376 -12 334 15 q 292 41 272 92 q 251 142 251 214 l 251 214 q 251 263 262 310 q 273 356 299 401 q 325 446 368 492 l 368 492 l 384 530 q 412 562 429 589 q 445 615 445 642 l 445 642 q 445 663 434 677 q 422 690 396 690 l 396 690 q 387 690 376 689 q 364 687 352 684 l 352 684 l 329 787 q 352 795 382 798 q 411 801 438 801 l 438 801 q 498 801 530 781 q 561 760 573 729 q 585 697 585 663 l 585 663 q 585 614 561 567 q 536 519 493 468 l 493 468 l 472 447 q 447 417 429 379 q 410 341 401 298 q 392 254 392 209 l 392 209 q 392 171 397 146 q 401 121 412 109 q 422 96 440 96 l 440 96 q 462 96 474 120 q 485 143 485 210 l 485 210 q 485 246 481 280 q 477 313 469 344 q 460 374 447 399 q 434 423 416 438 l 416 438 q 396 452 379 461 q 362 469 324 469 l 324 469 q 277 469 244 449 q 211 428 194 389 q 177 349 177 294 l 177 294 q 177 243 186 202 q 195 161 212 124 q 229 87 254 50 l 254 50 l 145 -14 q 112 25 87 70 q 62 115 48 171 q 33 226 33 296 l 33 296 q 33 348 48 398 q 63 448 97 489 q 130 529 185 553 q 240 577 320 577 l 320 577 q 361 577 395 570 q 428 562 457 547 l 457 547 q 463 545 470 542 q 476 538 482 533 l 482 533 q 529 505 562 458 q 594 410 612 350 q 629 289 629 221 l 629 221 q 629 106 582 47 q 535 -12 439 -12 z"},"ൽ":{"ha":1076,"x_min":33,"x_max":1044,"o":"m 653 577 l 653 577 q 707 577 744 571 q 781 565 810 556 q 839 546 864 533 l 864 533 l 899 520 q 973 468 1009 391 q 1044 314 1044 218 l 1044 218 q 1044 106 997 47 q 950 -12 853 -12 l 853 -12 q 791 -12 749 15 q 707 41 687 92 q 666 142 666 214 l 666 214 q 666 263 677 310 q 688 356 714 401 q 740 446 783 492 l 783 492 l 798 528 q 827 561 844 588 q 860 615 860 642 l 860 642 q 860 663 848 677 q 836 690 811 690 l 811 690 q 802 690 791 689 q 779 687 767 684 l 767 684 l 744 787 q 767 795 797 798 q 826 801 853 801 l 853 801 q 913 801 945 781 q 976 760 988 729 q 1000 697 1000 663 l 1000 663 q 1000 614 976 567 q 951 519 908 468 l 908 468 l 887 447 q 862 417 844 379 q 825 341 816 298 q 807 254 807 209 l 807 209 q 807 171 812 146 q 816 121 827 109 q 837 96 855 96 l 855 96 q 877 96 889 120 q 900 143 900 209 l 900 209 q 900 252 892 294 q 883 336 866 371 q 849 405 823 426 l 823 426 l 787 439 q 758 454 727 460 q 695 466 658 466 l 658 466 q 618 466 584 460 q 549 453 522 441 l 522 441 l 500 440 q 451 408 425 346 q 399 283 399 207 l 399 207 q 399 165 406 142 q 412 118 424 108 q 435 98 449 98 l 449 98 q 463 98 475 108 q 486 118 493 144 q 499 170 499 217 l 499 217 q 499 271 487 318 q 475 364 454 399 q 432 433 404 451 l 404 451 l 386 459 q 374 465 358 468 q 341 471 328 471 l 328 471 q 274 471 241 448 q 208 424 193 383 q 177 342 177 291 l 177 291 q 177 244 187 203 q 196 162 213 126 q 229 89 252 53 l 252 53 l 143 -12 q 111 27 87 72 q 62 117 48 172 q 33 227 33 297 l 33 297 q 33 343 46 392 q 59 441 91 484 q 122 526 177 552 q 232 577 317 577 l 317 577 q 366 577 407 565 q 447 553 482 530 l 482 530 l 495 509 q 566 461 603 393 q 640 324 640 221 l 640 221 q 640 142 618 91 q 595 39 553 14 q 510 -12 446 -12 l 446 -12 q 387 -12 345 15 q 303 42 281 93 q 258 144 258 215 l 258 215 q 258 270 271 319 q 284 367 315 409 q 345 451 399 483 l 399 483 l 432 523 q 471 551 528 564 q 585 577 653 577 z"},"ൾ":{"ha":920,"x_min":33,"x_max":887,"o":"m 700 801 l 700 801 q 760 801 791 781 q 821 760 833 729 q 844 697 844 663 l 844 663 q 844 614 819 567 q 794 519 752 468 l 752 468 l 731 447 q 706 417 688 379 q 669 341 660 298 q 651 254 651 209 l 651 209 q 651 171 655 146 q 659 121 670 109 q 681 96 698 96 l 698 96 q 720 96 732 120 q 744 143 744 210 l 744 210 q 744 246 741 280 q 737 313 729 344 q 720 374 707 398 q 694 422 675 438 l 675 438 q 655 453 636 461 q 617 468 584 468 l 584 468 q 559 468 538 462 q 516 456 500 444 l 500 444 q 474 424 465 386 q 455 348 455 281 l 455 281 l 455 220 q 455 179 450 146 q 445 112 434 86 q 423 60 403 40 l 403 40 q 377 14 341 1 q 305 -12 256 -12 l 256 -12 q 183 -12 134 22 q 84 55 59 116 q 33 176 33 258 l 33 258 q 33 324 46 381 q 59 437 81 486 q 103 534 132 579 l 132 579 l 248 516 q 226 476 210 437 q 194 397 185 354 q 176 311 176 261 l 176 261 q 176 201 187 166 q 198 131 216 116 q 234 100 255 100 l 255 100 q 269 100 280 105 q 291 110 298 121 l 298 121 q 306 133 310 151 q 314 168 314 212 l 314 212 l 314 310 q 314 395 339 450 q 363 505 407 533 l 407 533 q 440 556 480 567 q 520 577 578 577 l 578 577 q 625 577 656 570 q 687 562 715 548 l 715 548 l 742 534 q 788 505 821 458 q 853 411 870 351 q 887 290 887 222 l 887 222 q 887 106 840 47 q 793 -12 697 -12 l 697 -12 q 634 -12 593 15 q 551 41 531 92 q 510 142 510 214 l 510 214 q 510 263 521 310 q 532 356 558 401 q 584 446 627 492 l 627 492 l 642 530 q 670 562 687 589 q 704 615 704 642 l 704 642 q 704 663 692 677 q 680 690 655 690 l 655 690 q 645 690 634 689 q 622 687 611 684 l 611 684 l 588 787 q 611 795 642 798 q 673 801 700 801 z"},"ൿ":{"ha":1078,"x_min":27,"x_max":1050,"o":"m 458 577 l 458 577 q 536 577 584 542 q 632 507 655 442 q 677 376 677 285 l 677 285 q 677 183 652 117 q 627 51 578 20 q 529 -12 459 -12 l 459 -12 q 401 -12 361 9 q 320 30 296 65 l 296 65 q 265 107 252 165 q 239 222 239 290 l 239 290 q 239 431 296 504 q 352 577 458 577 z m 458 467 l 458 467 q 415 467 397 426 q 378 385 378 282 l 378 282 q 378 216 387 175 q 395 134 413 116 q 430 98 458 98 l 458 98 q 485 98 502 116 q 519 133 528 174 q 537 215 537 284 l 537 284 q 537 352 529 392 q 520 432 503 450 q 485 467 458 467 z m 198 -12 l 198 -12 q 115 -12 71 34 q 27 80 27 161 l 27 161 q 27 218 52 256 q 76 293 117 315 l 117 315 q 140 327 167 335 q 193 343 230 347 q 266 350 317 350 l 317 350 l 801 350 q 861 350 907 339 q 952 328 988 300 l 988 300 q 1016 277 1033 243 q 1050 209 1050 158 l 1050 158 q 1050 83 1010 36 q 970 -12 882 -12 l 882 -12 q 794 -12 752 37 q 710 86 710 160 l 710 160 q 710 191 716 220 q 722 248 734 279 l 734 279 q 737 287 739 297 q 741 307 744 316 l 744 316 q 755 346 771 381 q 786 416 807 460 l 807 460 q 827 507 840 540 q 853 573 861 598 q 868 623 868 644 l 868 644 q 868 664 856 677 q 843 690 817 690 l 817 690 q 809 690 798 689 q 786 687 774 684 l 774 684 l 751 787 q 775 795 805 798 q 835 801 862 801 l 862 801 q 922 801 953 781 q 984 760 996 729 q 1007 698 1007 667 l 1007 667 q 1007 646 1003 622 q 999 598 990 570 q 981 541 967 507 q 953 472 933 430 l 933 430 q 914 387 902 358 q 889 328 878 304 l 878 304 q 874 293 870 283 q 866 273 863 264 l 863 264 q 852 234 846 211 q 840 187 840 158 l 840 158 q 840 141 845 127 q 850 113 859 106 q 868 98 879 98 l 879 98 q 898 98 908 112 q 917 126 917 152 l 917 152 q 917 176 910 192 q 903 208 890 219 l 890 219 q 874 231 849 236 q 824 240 789 240 l 789 240 l 278 240 q 246 240 225 236 q 204 232 189 222 l 189 222 q 176 212 168 199 q 159 185 159 164 l 159 164 q 159 144 165 129 q 171 114 185 106 q 199 97 220 97 l 220 97 q 242 97 261 107 q 280 116 299 135 l 299 135 l 360 36 q 334 17 308 7 q 282 -4 256 -8 q 229 -12 198 -12 z"},"!":{"ha":280,"x_min":55,"x_max":224,"o":"m 201 245 l 79 245 l 55 714 l 224 714 l 201 245 z m 140 -13 l 140 -13 q 101 -13 79 10 q 56 33 56 74 l 56 74 q 56 117 77 140 q 98 162 140 162 l 140 162 q 179 162 201 140 q 223 118 223 74 l 223 74 q 223 32 200 10 q 177 -13 140 -13 z"},"\"":{"ha":468,"x_min":57,"x_max":411,"o":"m 185 542 l 75 542 l 57 800 l 204 800 l 185 542 z m 393 542 l 283 542 l 265 800 l 411 800 l 393 542 z"},"#":{"ha":549,"x_min":30,"x_max":519,"o":"m 169 0 l 65 0 l 101 196 l 30 196 l 30 299 l 121 299 l 144 416 l 53 416 l 53 519 l 162 519 l 201 713 l 305 713 l 268 519 l 344 519 l 382 713 l 486 713 l 448 519 l 519 519 l 519 416 l 429 416 l 406 299 l 496 299 l 496 196 l 385 196 l 348 0 l 243 0 l 280 196 l 206 196 l 169 0 z m 249 416 l 226 299 l 301 299 l 324 416 l 249 416 z"},"%":{"ha":792,"x_min":28,"x_max":763,"o":"m 307 0 l 199 0 l 484 714 l 592 714 l 307 0 z m 175 276 l 175 276 q 100 276 64 338 q 28 399 28 499 l 28 499 q 28 604 64 664 q 100 724 178 724 l 178 724 q 252 724 289 664 q 325 603 325 501 l 325 501 q 325 396 289 336 q 253 276 175 276 z m 177 379 l 177 379 q 194 379 202 406 q 210 433 210 500 l 210 500 q 210 566 202 594 q 194 621 177 621 l 177 621 q 161 621 153 594 q 144 566 144 501 l 144 501 q 144 433 153 406 q 161 379 177 379 z m 613 -7 l 613 -7 q 538 -7 503 54 q 467 115 467 216 l 467 216 q 467 321 503 381 q 538 441 617 441 l 617 441 q 691 441 727 380 q 763 319 763 218 l 763 218 q 763 112 727 53 q 691 -7 613 -7 z m 620 95 l 620 95 q 637 95 645 123 q 653 150 653 216 l 653 216 q 653 283 645 310 q 637 337 620 337 l 620 337 q 604 337 596 310 q 587 283 587 217 l 587 217 q 587 152 596 124 q 604 95 620 95 z"},"'":{"ha":261,"x_min":57,"x_max":204,"o":"m 185 542 l 75 542 l 57 800 l 204 800 l 185 542 z"},"(":{"ha":355,"x_min":45,"x_max":328,"o":"m 45 279 l 45 279 q 45 372 62 467 q 79 561 113 647 q 146 733 194 800 l 194 800 l 327 800 q 283 725 252 640 q 220 555 203 464 q 186 373 186 279 l 186 279 q 186 185 203 95 q 219 4 251 -81 q 282 -166 328 -244 l 328 -244 l 194 -244 q 144 -173 111 -86 q 78 0 62 93 q 45 186 45 279 z"},")":{"ha":355,"x_min":27,"x_max":309,"o":"m 309 277 l 309 277 q 309 185 292 91 q 275 -4 242 -90 q 209 -177 161 -244 l 161 -244 l 27 -244 q 72 -169 104 -84 q 135 1 152 93 q 169 184 169 278 l 169 278 q 169 373 153 463 q 136 553 105 638 q 73 722 27 800 l 27 800 l 161 800 q 211 729 244 643 q 276 557 293 464 q 309 371 309 277 z"},"*":{"ha":529,"x_min":32,"x_max":497,"o":"m 199 800 l 329 800 l 311 633 l 481 680 l 497 554 l 344 543 l 445 410 l 332 350 l 262 488 l 201 350 l 85 410 l 184 543 l 32 555 l 52 680 l 217 633 l 199 800 z"},"+":{"ha":482,"x_min":33,"x_max":448,"o":"m 300 114 l 181 114 l 181 294 l 33 294 l 33 411 l 181 411 l 181 595 l 300 595 l 300 411 l 448 411 l 448 294 l 300 294 l 300 114 z"},",":{"ha":281,"x_min":36,"x_max":222,"o":"m 74 129 l 216 129 l 222 118 q 214 66 204 23 q 194 -21 182 -59 q 170 -97 155 -134 l 155 -134 l 36 -134 q 44 -97 52 -49 q 59 -1 66 47 q 72 95 74 129 l 74 129 z"},"-":{"ha":323,"x_min":32,"x_max":291,"o":"m 291 204 l 32 204 l 32 333 l 291 333 l 291 204 z"},".":{"ha":276,"x_min":54,"x_max":221,"o":"m 138 -13 l 138 -13 q 99 -13 77 10 q 54 33 54 74 l 54 74 q 54 116 76 139 q 97 162 138 162 l 138 162 q 178 162 200 140 q 221 117 221 74 l 221 74 q 221 33 199 10 q 177 -13 138 -13 z"},"/":{"ha":432,"x_min":17,"x_max":416,"o":"m 153 -244 l 17 -244 l 280 800 l 416 800 l 153 -244 z"},":":{"ha":276,"x_min":55,"x_max":221,"o":"m 139 -13 l 139 -13 q 100 -13 78 10 q 55 33 55 74 l 55 74 q 55 116 76 139 q 97 162 139 162 l 139 162 q 179 162 200 140 q 221 117 221 74 l 221 74 q 221 33 200 10 q 178 -13 139 -13 z m 139 382 l 139 382 q 100 382 78 405 q 55 427 55 468 l 55 468 q 55 511 76 534 q 97 556 139 556 l 139 556 q 179 556 200 534 q 221 511 221 468 l 221 468 q 221 427 200 405 q 178 382 139 382 z"},";":{"ha":277,"x_min":36,"x_max":223,"o":"m 75 129 l 217 129 l 223 118 q 215 66 205 23 q 194 -21 182 -59 q 170 -97 155 -134 l 155 -134 l 36 -134 q 45 -96 53 -48 q 60 -1 66 47 q 72 94 75 129 l 75 129 z m 137 382 l 137 382 q 98 382 76 405 q 54 427 54 468 l 54 468 q 54 511 75 534 q 96 556 137 556 l 137 556 q 178 556 199 534 q 220 511 220 468 l 220 468 q 220 427 198 405 q 176 382 137 382 z"},"<":{"ha":482,"x_min":33,"x_max":449,"o":"m 449 249 l 449 119 l 33 319 l 33 400 l 449 600 l 449 471 l 199 359 l 449 249 z"},"=":{"ha":482,"x_min":32,"x_max":450,"o":"m 450 186 l 32 186 l 32 302 l 450 302 l 450 186 z m 450 403 l 32 403 l 32 518 l 450 518 l 450 403 z"},">":{"ha":482,"x_min":32,"x_max":448,"o":"m 448 320 l 32 119 l 32 248 l 283 360 l 32 470 l 32 600 l 448 400 l 448 320 z"},"?":{"ha":397,"x_min":32,"x_max":373,"o":"m 192 724 l 192 724 q 282 724 328 677 q 373 630 373 556 l 373 556 q 373 515 365 483 q 357 451 338 421 q 318 391 286 354 l 286 354 q 269 333 259 318 q 249 302 246 290 q 242 277 242 264 l 242 264 l 242 245 l 113 245 l 113 273 q 113 305 121 331 q 129 357 144 380 q 159 403 181 427 l 181 427 q 200 447 211 464 q 222 481 227 498 q 232 515 232 535 l 232 535 q 232 566 212 580 q 192 594 164 594 l 164 594 q 145 594 123 588 q 101 582 84 572 l 84 572 l 32 683 q 75 704 111 714 q 147 724 192 724 z m 178 -13 l 178 -13 q 139 -13 117 10 q 94 33 94 74 l 94 74 q 94 116 116 139 q 137 162 178 162 l 178 162 q 218 162 240 140 q 261 117 261 74 l 261 74 q 261 33 240 10 q 218 -13 178 -13 z"},"[":{"ha":339,"x_min":62,"x_max":304,"o":"m 304 -244 l 62 -244 l 62 800 l 304 800 l 304 687 l 196 687 l 196 -131 l 304 -131 l 304 -244 z"},"\\":{"ha":432,"x_min":17,"x_max":416,"o":"m 416 -244 l 280 -244 l 17 800 l 153 800 l 416 -244 z"},"]":{"ha":338,"x_min":35,"x_max":277,"o":"m 277 -244 l 35 -244 l 35 -131 l 143 -131 l 143 687 l 35 687 l 35 800 l 277 800 l 277 -244 z"},"^":{"ha":511,"x_min":16,"x_max":495,"o":"m 148 312 l 16 312 l 214 715 l 291 715 l 495 312 l 364 312 l 253 529 l 148 312 z"},"_":{"ha":378,"x_min":-2,"x_max":380,"o":"m 380 -160 l -2 -160 l -2 -90 l 380 -90 l 380 -160 z"},"{":{"ha":400,"x_min":24,"x_max":365,"o":"m 365 -125 l 365 -244 q 273 -244 226 -224 q 178 -205 161 -168 q 144 -132 144 -81 l 144 -81 l 144 135 q 144 178 115 196 q 86 214 24 216 l 24 216 l 24 343 q 85 345 115 363 q 144 381 144 424 l 144 424 l 144 637 q 144 688 161 725 q 178 761 226 781 q 273 800 365 800 l 365 800 l 365 681 q 317 681 299 663 q 281 645 281 609 l 281 609 l 281 392 q 281 344 253 318 q 224 291 168 283 l 168 283 l 168 277 q 224 269 253 243 q 281 216 281 167 l 281 167 l 281 -53 q 281 -77 289 -93 q 296 -109 315 -117 q 333 -125 365 -125 l 365 -125 z"},"|":{"ha":551,"x_min":216,"x_max":335,"o":"m 335 -244 l 216 -244 l 216 800 l 335 800 l 335 -244 z"},"}":{"ha":400,"x_min":35,"x_max":375,"o":"m 35 681 l 35 800 q 127 800 175 781 q 222 761 239 725 q 256 688 256 637 l 256 637 l 256 424 q 256 380 285 362 q 314 344 375 343 l 375 343 l 375 215 q 314 214 285 196 q 256 178 256 134 l 256 134 l 256 -81 q 256 -132 239 -168 q 221 -205 174 -224 q 126 -244 35 -244 l 35 -244 l 35 -125 q 82 -125 101 -107 q 119 -89 119 -53 l 119 -53 l 119 167 q 119 215 148 242 q 176 268 232 276 l 232 276 l 232 282 q 176 290 148 317 q 119 343 119 392 l 119 392 l 119 609 q 119 633 111 649 q 103 665 85 673 q 67 681 35 681 l 35 681 z"},"~":{"ha":482,"x_min":33,"x_max":449,"o":"m 225 297 l 225 297 q 198 311 178 317 q 158 323 137 323 l 137 323 q 110 323 84 308 q 57 292 33 264 l 33 264 l 33 387 q 56 413 83 426 q 109 439 142 439 l 142 439 q 170 439 199 431 q 228 422 257 408 l 257 408 q 282 394 304 388 q 325 382 346 382 l 346 382 q 372 382 399 398 q 426 414 449 441 l 449 441 l 449 318 q 426 292 400 279 q 373 266 341 266 l 341 266 q 311 266 284 274 q 256 282 225 297 z"}," ":{"ha":221,"x_min":0,"x_max":0,"o":""},"­":{"ha":323,"x_min":32,"x_max":291,"o":"m 291 204 l 32 204 l 32 333 l 291 333 l 291 204 z"},"–":{"ha":500,"x_min":39,"x_max":461,"o":"m 461 207 l 39 207 l 39 329 l 461 329 l 461 207 z"},"—":{"ha":1000,"x_min":39,"x_max":961,"o":"m 961 207 l 39 207 l 39 329 l 961 329 l 961 207 z"},"‘":{"ha":266,"x_min":41,"x_max":227,"o":"m 188 536 l 46 536 l 41 547 q 49 600 59 643 q 69 686 82 725 q 95 764 109 800 l 109 800 l 227 800 q 219 761 211 713 q 203 664 197 618 q 191 571 188 536 l 188 536 z"},"’":{"ha":265,"x_min":40,"x_max":226,"o":"m 79 800 l 221 800 l 226 789 q 219 737 209 694 q 198 650 186 612 q 174 574 159 536 l 159 536 l 40 536 q 46 562 52 597 q 58 632 64 670 q 69 708 73 742 q 77 776 79 800 l 79 800 z"},"“":{"ha":483,"x_min":40,"x_max":444,"o":"m 406 537 l 264 537 l 259 547 q 267 600 277 644 q 287 687 300 726 q 312 764 326 800 l 326 800 l 444 800 q 436 759 428 713 q 420 667 414 622 q 408 577 406 537 l 406 537 z m 188 537 l 46 537 l 40 547 q 49 600 59 644 q 69 687 82 726 q 94 764 109 800 l 109 800 l 227 800 q 219 761 211 713 q 203 665 197 619 q 191 572 188 537 l 188 537 z"},"”":{"ha":483,"x_min":40,"x_max":444,"o":"m 298 800 l 438 800 l 444 790 q 437 737 427 694 q 416 650 404 612 q 391 574 376 537 l 376 537 l 258 537 q 268 583 276 627 q 283 671 289 715 q 294 758 298 800 l 298 800 z m 79 800 l 221 800 l 226 790 q 219 737 209 694 q 198 650 186 612 q 174 574 159 537 l 159 537 l 40 537 q 46 562 52 597 q 58 632 64 670 q 69 708 73 742 q 77 776 79 800 l 79 800 z"},"…":{"ha":811,"x_min":55,"x_max":757,"o":"m 138 -13 l 138 -13 q 100 -13 78 10 q 55 33 55 74 l 55 74 q 55 116 77 139 q 98 162 138 162 l 138 162 q 179 162 201 140 q 222 117 222 74 l 222 74 q 222 33 200 10 q 178 -13 138 -13 z m 405 -13 l 405 -13 q 367 -13 345 10 q 322 33 322 74 l 322 74 q 322 116 344 139 q 365 162 405 162 l 405 162 q 446 162 468 140 q 489 117 489 74 l 489 74 q 489 33 467 10 q 445 -13 405 -13 z m 673 -13 l 673 -13 q 635 -13 613 10 q 590 33 590 74 l 590 74 q 590 116 612 139 q 633 162 673 162 l 673 162 q 714 162 736 140 q 757 117 757 74 l 757 74 q 757 33 735 10 q 713 -13 673 -13 z"},"×":{"ha":482,"x_min":33,"x_max":448,"o":"m 239 434 l 366 560 l 448 480 l 320 353 l 447 226 l 366 146 l 239 272 l 113 146 l 33 227 l 158 353 l 33 478 l 113 560 l 239 434 z"},"÷":{"ha":482,"x_min":33,"x_max":448,"o":"m 448 295 l 33 295 l 33 411 l 448 411 l 448 295 z m 241 85 l 241 85 q 207 85 187 106 q 167 126 167 166 l 167 166 q 167 205 187 226 q 206 247 241 247 l 241 247 q 276 247 295 226 q 314 205 314 166 l 314 166 q 314 127 295 106 q 275 85 241 85 z m 241 459 l 241 459 q 207 459 187 480 q 167 500 167 539 l 167 539 q 167 579 187 600 q 206 620 241 620 l 241 620 q 276 620 295 600 q 314 579 314 539 l 314 539 q 314 501 295 480 q 275 459 241 459 z"},"−":{"ha":482,"x_min":33,"x_max":449,"o":"m 449 295 l 33 295 l 33 411 l 449 411 l 449 295 z"},"₹":{"ha":482,"x_min":48,"x_max":438,"o":"m 345 0 l 184 0 l 49 251 l 65 353 l 88 353 q 125 353 143 360 q 161 367 171 381 l 171 381 q 184 398 189 421 q 193 444 193 480 l 193 480 q 193 519 187 543 q 180 566 164 583 l 164 583 q 154 594 137 600 q 120 605 89 605 l 89 605 l 48 605 l 48 714 l 438 714 l 438 605 l 282 605 q 301 589 315 557 q 328 525 328 479 l 328 479 q 328 413 313 369 q 298 325 265 299 q 232 272 180 258 l 180 258 l 179 279 l 345 0 z m 438 424 l 48 424 l 48 537 l 438 537 l 438 424 z"},"꠰":{"ha":257,"x_min":58,"x_max":199,"o":"m 58 0 l 58 565 l 199 565 l 199 0 l 58 0 z"},"꠱":{"ha":447,"x_min":58,"x_max":389,"o":"m 58 0 l 58 565 l 197 565 l 197 0 l 58 0 z m 250 0 l 250 565 l 389 565 l 389 0 l 250 0 z"},"꠲":{"ha":637,"x_min":58,"x_max":579,"o":"m 58 0 l 58 565 l 197 565 l 197 0 l 58 0 z m 250 0 l 250 565 l 388 565 l 388 0 l 250 0 z m 441 0 l 441 565 l 579 565 l 579 0 l 441 0 z"},"॑":{"ha":0,"x_min":-328,"x_max":-231,"o":"m -328 651 l -328 864 l -231 864 l -231 651 l -328 651 z"},"॒":{"ha":0,"x_min":-489,"x_max":-69,"o":"m -69 -93 l -69 -186 l -489 -186 l -489 -93 l -69 -93 z"},"।":{"ha":317,"x_min":115,"x_max":259,"o":"m 259 -49 l 115 -49 l 115 606 l 259 606 l 259 -49 z"},"॥":{"ha":556,"x_min":116,"x_max":497,"o":"m 497 -49 l 354 -49 l 354 606 l 497 606 l 497 -49 z m 260 -49 l 116 -49 l 116 606 l 260 606 l 260 -49 z"},"᳚":{"ha":0,"x_min":-385,"x_max":-173,"o":"m -385 651 l -385 864 l -301 864 l -301 651 l -385 651 z m -256 651 l -256 864 l -173 864 l -173 651 l -256 651 z"},"̇":{"ha":0,"x_min":-301,"x_max":-152,"o":"m -301 701 l -301 701 q -301 745 -279 762 q -257 778 -226 778 l -226 778 q -195 778 -173 762 q -152 745 -152 701 l -152 701 q -152 656 -173 640 q -195 624 -226 624 l -226 624 q -257 624 -279 640 q -301 656 -301 701 z"},"̣":{"ha":0,"x_min":-300,"x_max":-152,"o":"m -300 -136 l -300 -136 q -300 -91 -278 -75 q -256 -59 -226 -59 l -226 -59 q -195 -59 -173 -75 q -152 -91 -152 -136 l -152 -136 q -152 -180 -173 -196 q -195 -213 -226 -213 l -226 -213 q -256 -213 -278 -196 q -300 -180 -300 -136 z"},"‐":{"ha":323,"x_min":32,"x_max":291,"o":"m 291 204 l 32 204 l 32 333 l 291 333 l 291 204 z"},"​":{"ha":0,"x_min":0,"x_max":0,"o":""},"‌":{"ha":0,"x_min":0,"x_max":0,"o":""},"‍":{"ha":0,"x_min":-161,"x_max":161,"o":"m 29 -244 l -29 -244 l -29 565 l -121 474 l -161 514 l -40 631 l -161 748 l -121 788 l 0 669 l 121 788 l 161 748 l 40 631 l 161 514 l 121 474 l 29 565 l 29 -244 z"},"◌":{"ha":562,"x_min":56,"x_max":503,"o":"m 88 231 l 88 231 q 56 231 56 264 l 56 264 q 56 295 88 295 l 88 295 q 120 295 120 264 l 120 264 q 120 231 88 231 z m 137 95 l 137 95 q 105 95 105 127 l 105 127 q 105 158 137 158 l 137 158 q 168 158 168 127 l 168 127 q 168 95 137 95 z m 280 40 l 280 40 q 248 40 248 72 l 248 72 q 248 104 280 104 l 280 104 q 311 104 311 72 l 311 72 q 311 40 280 40 z m 137 369 l 137 369 q 105 369 105 401 l 105 401 q 105 432 137 432 l 137 432 q 168 432 168 401 l 168 401 q 168 369 137 369 z m 422 95 l 422 95 q 390 95 390 127 l 390 127 q 390 158 422 158 l 422 158 q 454 158 454 127 l 454 127 q 454 95 422 95 z m 280 424 l 280 424 q 248 424 248 456 l 248 456 q 248 487 280 487 l 280 487 q 311 487 311 456 l 311 456 q 311 424 280 424 z m 471 231 l 471 231 q 440 231 440 264 l 440 264 q 440 295 471 295 l 471 295 q 503 295 503 264 l 503 264 q 503 231 471 231 z m 422 369 l 422 369 q 390 369 390 401 l 390 401 q 390 432 422 432 l 422 432 q 454 432 454 401 l 454 401 q 454 369 422 369 z"},"«":{"ha":540,"x_min":26,"x_max":510,"o":"m 26 269 l 26 283 l 179 507 l 282 453 l 180 276 l 282 102 l 179 47 l 26 269 z m 254 269 l 254 283 l 406 507 l 510 453 l 409 276 l 510 102 l 406 47 l 254 269 z"},"»":{"ha":540,"x_min":30,"x_max":514,"o":"m 514 283 l 514 269 l 361 47 l 258 102 l 360 276 l 258 453 l 361 507 l 514 283 z m 286 283 l 286 269 l 133 47 l 30 102 l 131 276 l 30 453 l 133 507 l 286 283 z"},"̈":{"ha":0,"x_min":-154,"x_max":155,"o":"m -154 685 l -154 685 q -154 720 -136 738 q -118 756 -89 756 l -89 756 q -59 756 -41 737 q -23 718 -23 685 l -23 685 q -23 653 -41 634 q -59 615 -89 615 l -89 615 q -118 615 -136 634 q -154 652 -154 685 z m 23 685 l 23 685 q 23 720 41 738 q 59 756 88 756 l 88 756 q 120 756 138 737 q 155 718 155 685 l 155 685 q 155 653 138 634 q 120 615 88 615 l 88 615 q 58 615 41 634 q 23 653 23 685 z"},"̀":{"ha":0,"x_min":-406,"x_max":-163,"o":"m -406 766 l -243 766 q -233 746 -218 717 q -203 688 -188 661 q -173 634 -163 619 l -163 619 l -163 606 l -267 606 q -280 617 -299 637 q -318 657 -339 680 q -361 703 -378 723 q -396 743 -406 756 l -406 756 l -406 766 z"},"́":{"ha":0,"x_min":-328,"x_max":-85,"o":"m -85 766 l -85 756 q -94 743 -110 725 q -127 706 -146 685 q -166 663 -186 643 q -206 623 -224 606 l -224 606 l -328 606 l -328 619 q -311 646 -296 671 q -282 696 -270 720 q -258 744 -248 766 l -248 766 l -85 766 z"},"̋":{"ha":0,"x_min":-126,"x_max":241,"o":"m 241 766 l 241 756 q 235 742 220 722 q 205 702 186 681 q 167 660 147 641 q 127 621 111 606 l 111 606 l 37 606 l 37 619 q 55 652 70 681 q 84 710 94 732 q 104 754 109 766 l 109 766 l 241 766 z m 77 766 l 77 756 q 70 741 56 722 q 42 702 24 682 q 5 661 -16 642 q -38 623 -58 606 l -58 606 l -126 606 l -126 619 q -109 654 -95 682 q -81 710 -70 732 q -60 753 -54 766 l -54 766 l 77 766 z"},"̄":{"ha":0,"x_min":-142,"x_max":142,"o":"m -142 726 l 143 726 l 143 620 l -142 620 l -142 726 z"},"˙":{"ha":235,"x_min":40,"x_max":195,"o":"m 118 768 l 118 768 q 158 768 177 748 q 195 728 195 689 l 195 689 q 195 650 176 631 q 156 611 118 611 l 118 611 q 79 611 60 631 q 40 650 40 689 l 40 689 q 40 729 59 749 q 77 768 118 768 z"},"°":{"ha":362,"x_min":25,"x_max":337,"o":"m 181 425 l 181 425 q 136 425 101 444 q 66 463 46 497 q 25 530 25 574 l 25 574 q 25 619 46 653 q 66 686 102 705 q 137 724 181 724 l 181 724 q 226 724 261 706 q 296 687 317 654 q 337 620 337 574 l 337 574 q 337 530 317 497 q 296 463 261 444 q 226 425 181 425 z m 181 510 l 181 510 q 209 510 227 527 q 245 544 245 574 l 245 574 q 245 605 227 622 q 209 639 181 639 l 181 639 q 153 639 135 622 q 117 605 117 574 l 117 574 q 117 544 136 527 q 154 510 181 510 z"},"A":{"ha":547,"x_min":0,"x_max":547,"o":"m 547 0 l 386 0 l 355 158 l 194 158 l 163 0 l 0 0 l 174 714 l 371 714 l 547 0 z m 330 289 l 295 470 q 290 497 287 519 q 283 540 280 559 q 277 578 274 598 l 274 598 q 272 581 269 560 q 265 538 261 516 q 256 493 252 472 l 252 472 l 217 289 l 330 289 z"},"Á":{"ha":547,"x_min":0,"x_max":547,"o":"m 547 0 l 386 0 l 355 158 l 194 158 l 163 0 l 0 0 l 174 714 l 371 714 l 547 0 z m 330 289 l 295 470 q 290 497 287 519 q 283 540 280 559 q 277 578 274 598 l 274 598 q 272 581 269 560 q 265 538 261 516 q 256 493 252 472 l 252 472 l 217 289 l 330 289 z m 432 931 l 432 921 q 423 908 407 890 q 390 871 371 850 q 351 828 331 808 q 311 788 293 771 l 293 771 l 189 771 l 189 784 q 206 811 221 836 q 235 861 247 885 q 259 909 269 931 l 269 931 l 432 931 z"},"Ă":{"ha":547,"x_min":0,"x_max":547,"o":"m 547 0 l 386 0 l 355 158 l 194 158 l 163 0 l 0 0 l 174 714 l 371 714 l 547 0 z m 330 289 l 295 470 q 290 497 287 519 q 283 540 280 559 q 277 578 274 598 l 274 598 q 272 581 269 560 q 265 538 261 516 q 256 493 252 472 l 252 472 l 217 289 l 330 289 z m 346 944 l 431 944 q 431 892 409 853 q 387 813 352 792 q 316 771 273 771 l 273 771 q 207 771 162 815 q 117 859 117 944 l 117 944 l 203 944 q 203 919 212 905 q 221 890 237 883 q 253 875 273 875 l 273 875 q 294 875 310 882 q 326 888 336 904 q 346 919 346 944 l 346 944 z"},"Â":{"ha":547,"x_min":0,"x_max":547,"o":"m 547 0 l 386 0 l 355 158 l 194 158 l 163 0 l 0 0 l 174 714 l 371 714 l 547 0 z m 330 289 l 295 470 q 290 497 287 519 q 283 540 280 559 q 277 578 274 598 l 274 598 q 272 581 269 560 q 265 538 261 516 q 256 493 252 472 l 252 472 l 217 289 l 330 289 z m 202 931 l 346 931 q 358 909 372 885 q 386 861 404 836 q 422 810 441 784 l 441 784 l 441 771 l 354 771 q 337 785 316 805 q 294 825 274 852 l 274 852 q 253 825 232 804 q 210 783 196 771 l 196 771 l 107 771 l 107 784 q 122 803 141 831 q 159 858 177 886 q 194 913 202 931 l 202 931 z"},"Ä":{"ha":547,"x_min":0,"x_max":547,"o":"m 547 0 l 386 0 l 355 158 l 194 158 l 163 0 l 0 0 l 174 714 l 371 714 l 547 0 z m 330 289 l 295 470 q 290 497 287 519 q 283 540 280 559 q 277 578 274 598 l 274 598 q 272 581 269 560 q 265 538 261 516 q 256 493 252 472 l 252 472 l 217 289 l 330 289 z m 119 850 l 119 850 q 119 885 137 903 q 155 921 184 921 l 184 921 q 214 921 232 902 q 250 883 250 850 l 250 850 q 250 818 232 799 q 214 780 184 780 l 184 780 q 155 780 137 799 q 119 817 119 850 z m 296 850 l 296 850 q 296 885 314 903 q 332 921 361 921 l 361 921 q 393 921 411 902 q 428 883 428 850 l 428 850 q 428 818 411 799 q 393 780 361 780 l 361 780 q 331 780 314 799 q 296 818 296 850 z"},"À":{"ha":547,"x_min":0,"x_max":547,"o":"m 547 0 l 386 0 l 355 158 l 194 158 l 163 0 l 0 0 l 174 714 l 371 714 l 547 0 z m 330 289 l 295 470 q 290 497 287 519 q 283 540 280 559 q 277 578 274 598 l 274 598 q 272 581 269 560 q 265 538 261 516 q 256 493 252 472 l 252 472 l 217 289 l 330 289 z m 117 931 l 280 931 q 290 911 305 882 q 320 853 335 826 q 350 799 360 784 l 360 784 l 360 771 l 256 771 q 243 782 224 802 q 205 822 184 845 q 162 868 145 888 q 127 908 117 921 l 117 921 l 117 931 z"},"Ā":{"ha":547,"x_min":0,"x_max":547,"o":"m 547 0 l 386 0 l 355 158 l 194 158 l 163 0 l 0 0 l 174 714 l 371 714 l 547 0 z m 330 289 l 295 470 q 290 497 287 519 q 283 540 280 559 q 277 578 274 598 l 274 598 q 272 581 269 560 q 265 538 261 516 q 256 493 252 472 l 252 472 l 217 289 l 330 289 z m 132 891 l 417 891 l 417 785 l 132 785 l 132 891 z"},"Ą":{"ha":547,"x_min":0,"x_max":547,"o":"m 547 0 l 386 0 l 355 158 l 194 158 l 163 0 l 0 0 l 174 714 l 371 714 l 547 0 z m 330 289 l 295 470 q 290 497 287 519 q 283 540 280 559 q 277 578 274 598 l 274 598 q 272 581 269 560 q 265 538 261 516 q 256 493 252 472 l 252 472 l 217 289 l 330 289 z m 424 -102 l 424 -102 q 424 -120 435 -132 q 446 -145 465 -145 l 465 -145 q 479 -145 488 -141 q 496 -138 503 -135 l 503 -135 l 503 -228 q 492 -232 475 -236 q 457 -241 434 -241 l 434 -241 q 373 -241 344 -211 q 314 -181 314 -130 l 314 -130 q 314 -105 324 -79 q 334 -53 354 -29 q 374 -6 404 14 l 404 14 l 479 0 q 448 -33 436 -56 q 424 -79 424 -102 z"},"Å":{"ha":547,"x_min":0,"x_max":547,"o":"m 547 0 l 386 0 l 355 158 l 194 158 l 163 0 l 0 0 l 174 714 l 371 714 l 547 0 z m 330 289 l 295 470 q 290 497 287 519 q 283 540 280 559 q 277 578 274 598 l 274 598 q 272 581 269 560 q 265 538 261 516 q 256 493 252 472 l 252 472 l 217 289 l 330 289 z m 275 640 l 275 640 q 221 640 188 674 q 155 707 155 758 l 155 758 q 155 810 188 844 q 220 877 275 877 l 275 877 q 328 877 362 843 q 395 809 395 759 l 395 759 q 395 709 362 675 q 329 640 275 640 z m 275 716 l 275 716 q 293 716 306 728 q 319 740 319 759 l 319 759 q 319 778 307 791 q 294 803 275 803 l 275 803 q 256 803 244 791 q 231 778 231 759 l 231 759 q 231 739 243 728 q 254 716 275 716 z"},"Ã":{"ha":547,"x_min":0,"x_max":547,"o":"m 547 0 l 386 0 l 355 158 l 194 158 l 163 0 l 0 0 l 174 714 l 371 714 l 547 0 z m 330 289 l 295 470 q 290 497 287 519 q 283 540 280 559 q 277 578 274 598 l 274 598 q 272 581 269 560 q 265 538 261 516 q 256 493 252 472 l 252 472 l 217 289 l 330 289 z m 181 769 l 104 769 q 104 792 109 819 q 114 846 125 871 q 135 895 154 911 q 172 926 200 926 l 200 926 q 220 926 238 919 q 256 912 272 902 q 288 892 304 885 q 320 877 336 877 l 336 877 q 350 877 358 892 q 366 906 370 927 l 370 927 l 446 927 q 445 851 416 811 q 387 770 348 770 l 348 770 q 330 770 312 778 q 293 785 276 795 q 258 805 243 813 q 227 820 215 820 l 215 820 q 206 820 195 807 q 183 794 181 769 l 181 769 z"},"Æ":{"ha":732,"x_min":-3,"x_max":687,"o":"m 687 130 l 687 0 l 345 0 l 345 158 l 201 158 l 156 0 l -3 0 l 218 714 l 687 714 l 687 585 l 494 585 l 494 434 l 673 434 l 673 305 l 494 305 l 494 130 l 687 130 z m 319 585 l 239 289 l 346 289 l 346 585 l 319 585 z"},"B":{"ha":545,"x_min":65,"x_max":502,"o":"m 65 714 l 256 714 q 370 714 430 673 q 489 632 489 535 l 489 535 q 489 498 480 465 q 470 432 450 410 q 430 387 400 379 l 400 379 l 400 374 q 438 363 461 341 q 483 319 493 286 q 502 253 502 208 l 502 208 q 502 145 476 98 q 449 51 400 26 q 351 0 282 0 l 282 0 l 65 0 l 65 714 z m 216 432 l 261 432 q 299 432 318 452 q 337 471 337 514 l 337 514 q 337 551 318 569 q 298 587 258 587 l 258 587 l 216 587 l 216 432 z m 266 309 l 216 309 l 216 129 l 270 129 q 309 129 328 152 q 347 175 347 222 l 347 222 q 347 251 338 271 q 329 290 311 300 q 292 309 266 309 l 266 309 z"},"C":{"ha":491,"x_min":43,"x_max":465,"o":"m 311 594 l 311 594 q 283 594 262 577 q 241 559 228 527 q 214 495 207 451 q 200 407 200 355 l 200 355 q 200 278 213 226 q 225 174 251 148 q 277 121 315 121 l 315 121 q 348 121 379 133 q 409 144 444 162 l 444 162 l 444 28 q 411 9 374 0 q 336 -10 294 -10 l 294 -10 q 213 -10 157 33 q 101 75 72 157 q 43 238 43 356 l 43 356 q 43 437 61 505 q 78 572 111 621 q 143 670 191 697 q 238 724 298 724 l 298 724 q 343 724 384 712 q 425 699 465 675 l 465 675 l 424 550 q 395 569 367 582 q 339 594 311 594 z"},"Ć":{"ha":491,"x_min":43,"x_max":465,"o":"m 311 594 l 311 594 q 283 594 262 577 q 241 559 228 527 q 214 495 207 451 q 200 407 200 355 l 200 355 q 200 278 213 226 q 225 174 251 148 q 277 121 315 121 l 315 121 q 348 121 379 133 q 409 144 444 162 l 444 162 l 444 28 q 411 9 374 0 q 336 -10 294 -10 l 294 -10 q 213 -10 157 33 q 101 75 72 157 q 43 238 43 356 l 43 356 q 43 437 61 505 q 78 572 111 621 q 143 670 191 697 q 238 724 298 724 l 298 724 q 343 724 384 712 q 425 699 465 675 l 465 675 l 424 550 q 395 569 367 582 q 339 594 311 594 z m 451 931 l 451 921 q 442 908 426 890 q 409 871 390 850 q 370 828 350 808 q 330 788 312 771 l 312 771 l 208 771 l 208 784 q 225 811 240 836 q 254 861 266 885 q 278 909 288 931 l 288 931 l 451 931 z"},"Č":{"ha":491,"x_min":43,"x_max":465,"o":"m 311 594 l 311 594 q 283 594 262 577 q 241 559 228 527 q 214 495 207 451 q 200 407 200 355 l 200 355 q 200 278 213 226 q 225 174 251 148 q 277 121 315 121 l 315 121 q 348 121 379 133 q 409 144 444 162 l 444 162 l 444 28 q 411 9 374 0 q 336 -10 294 -10 l 294 -10 q 213 -10 157 33 q 101 75 72 157 q 43 238 43 356 l 43 356 q 43 437 61 505 q 78 572 111 621 q 143 670 191 697 q 238 724 298 724 l 298 724 q 343 724 384 712 q 425 699 465 675 l 465 675 l 424 550 q 395 569 367 582 q 339 594 311 594 z m 365 771 l 221 771 q 213 790 196 818 q 178 845 159 873 q 140 901 126 918 l 126 918 l 126 931 l 215 931 q 230 917 252 897 q 273 876 293 851 l 293 851 q 314 878 335 897 q 356 916 373 931 l 373 931 l 460 931 l 460 918 q 446 899 428 872 q 410 845 393 819 q 376 792 365 771 l 365 771 z"},"Ç":{"ha":491,"x_min":43,"x_max":465,"o":"m 311 594 l 311 594 q 283 594 262 577 q 241 559 228 527 q 214 495 207 451 q 200 407 200 355 l 200 355 q 200 278 213 226 q 225 174 251 148 q 277 121 315 121 l 315 121 q 348 121 379 133 q 409 144 444 162 l 444 162 l 444 28 q 411 9 374 0 q 336 -10 294 -10 l 294 -10 q 213 -10 157 33 q 101 75 72 157 q 43 238 43 356 l 43 356 q 43 437 61 505 q 78 572 111 621 q 143 670 191 697 q 238 724 298 724 l 298 724 q 343 724 384 712 q 425 699 465 675 l 465 675 l 424 550 q 395 569 367 582 q 339 594 311 594 z m 383 -124 l 383 -124 q 383 -179 353 -209 q 322 -240 251 -240 l 251 -240 q 229 -240 212 -238 q 195 -236 178 -233 l 178 -233 l 178 -149 q 193 -153 209 -155 q 225 -157 235 -157 l 235 -157 q 250 -157 259 -149 q 268 -142 268 -127 l 268 -127 q 268 -109 252 -96 q 235 -84 199 -82 l 199 -82 l 234 0 l 312 0 l 298 -33 q 325 -38 344 -51 q 363 -64 373 -83 q 383 -102 383 -124 z"},"Ċ":{"ha":491,"x_min":43,"x_max":465,"o":"m 311 594 l 311 594 q 283 594 262 577 q 241 559 228 527 q 214 495 207 451 q 200 407 200 355 l 200 355 q 200 278 213 226 q 225 174 251 148 q 277 121 315 121 l 315 121 q 348 121 379 133 q 409 144 444 162 l 444 162 l 444 28 q 411 9 374 0 q 336 -10 294 -10 l 294 -10 q 213 -10 157 33 q 101 75 72 157 q 43 238 43 356 l 43 356 q 43 437 61 505 q 78 572 111 621 q 143 670 191 697 q 238 724 298 724 l 298 724 q 343 724 384 712 q 425 699 465 675 l 465 675 l 424 550 q 395 569 367 582 q 339 594 311 594 z m 293 933 l 293 933 q 333 933 352 913 q 370 893 370 854 l 370 854 q 370 815 351 796 q 331 776 293 776 l 293 776 q 254 776 235 796 q 215 815 215 854 l 215 854 q 215 894 234 914 q 252 933 293 933 z"},"D":{"ha":576,"x_min":65,"x_max":533,"o":"m 533 368 l 533 368 q 533 251 499 169 q 464 86 397 43 q 329 0 231 0 l 231 0 l 65 0 l 65 714 l 244 714 q 335 714 400 675 q 464 635 499 558 q 533 481 533 368 z m 377 363 l 377 363 q 377 441 363 489 q 348 537 320 560 q 291 583 248 583 l 248 583 l 216 583 l 216 132 l 238 132 q 311 132 344 189 q 377 245 377 363 z"},"Ð":{"ha":576,"x_min":6,"x_max":533,"o":"m 63 714 l 244 714 q 335 714 400 675 q 464 635 499 558 q 533 481 533 368 l 533 368 q 533 251 499 169 q 464 86 397 43 q 330 0 231 0 l 231 0 l 63 0 l 63 313 l 6 313 l 6 426 l 63 426 l 63 714 z m 247 583 l 247 583 l 214 583 l 214 426 l 280 426 l 280 313 l 214 313 l 214 132 l 238 132 q 309 132 343 189 q 377 245 377 363 l 377 363 q 377 441 362 489 q 347 537 318 560 q 289 583 247 583 z"},"Ď":{"ha":576,"x_min":65,"x_max":533,"o":"m 533 368 l 533 368 q 533 251 499 169 q 464 86 397 43 q 329 0 231 0 l 231 0 l 65 0 l 65 714 l 244 714 q 335 714 400 675 q 464 635 499 558 q 533 481 533 368 z m 377 363 l 377 363 q 377 441 363 489 q 348 537 320 560 q 291 583 248 583 l 248 583 l 216 583 l 216 132 l 238 132 q 311 132 344 189 q 377 245 377 363 z m 357 771 l 213 771 q 205 790 188 818 q 170 845 151 873 q 132 901 118 918 l 118 918 l 118 931 l 207 931 q 222 917 244 897 q 265 876 285 851 l 285 851 q 306 878 327 897 q 348 916 365 931 l 365 931 l 452 931 l 452 918 q 438 899 420 872 q 402 845 385 819 q 368 792 357 771 l 357 771 z"},"Đ":{"ha":576,"x_min":6,"x_max":533,"o":"m 63 714 l 244 714 q 335 714 400 675 q 464 635 499 558 q 533 481 533 368 l 533 368 q 533 251 499 169 q 464 86 397 43 q 330 0 231 0 l 231 0 l 63 0 l 63 313 l 6 313 l 6 426 l 63 426 l 63 714 z m 247 583 l 247 583 l 214 583 l 214 426 l 280 426 l 280 313 l 214 313 l 214 132 l 238 132 q 309 132 343 189 q 377 245 377 363 l 377 363 q 377 441 362 489 q 347 537 318 560 q 289 583 247 583 z"},"E":{"ha":439,"x_min":65,"x_max":394,"o":"m 394 130 l 394 0 l 65 0 l 65 714 l 394 714 l 394 585 l 216 585 l 216 434 l 381 434 l 381 305 l 216 305 l 216 130 l 394 130 z"},"É":{"ha":439,"x_min":65,"x_max":394,"o":"m 394 130 l 394 0 l 65 0 l 65 714 l 394 714 l 394 585 l 216 585 l 216 434 l 381 434 l 381 305 l 216 305 l 216 130 l 394 130 z m 387 931 l 387 921 q 378 908 362 890 q 345 871 326 850 q 306 828 286 808 q 266 788 248 771 l 248 771 l 144 771 l 144 784 q 161 811 176 836 q 190 861 202 885 q 214 909 224 931 l 224 931 l 387 931 z"},"Ě":{"ha":439,"x_min":62,"x_max":396,"o":"m 394 130 l 394 0 l 65 0 l 65 714 l 394 714 l 394 585 l 216 585 l 216 434 l 381 434 l 381 305 l 216 305 l 216 130 l 394 130 z m 301 771 l 157 771 q 149 790 132 818 q 114 845 95 873 q 76 901 62 918 l 62 918 l 62 931 l 151 931 q 166 917 188 897 q 209 876 229 851 l 229 851 q 250 878 271 897 q 292 916 309 931 l 309 931 l 396 931 l 396 918 q 382 899 364 872 q 346 845 329 819 q 312 792 301 771 l 301 771 z"},"Ê":{"ha":439,"x_min":62,"x_max":396,"o":"m 394 130 l 394 0 l 65 0 l 65 714 l 394 714 l 394 585 l 216 585 l 216 434 l 381 434 l 381 305 l 216 305 l 216 130 l 394 130 z m 157 931 l 301 931 q 313 909 327 885 q 341 861 359 836 q 377 810 396 784 l 396 784 l 396 771 l 309 771 q 292 785 271 805 q 249 825 229 852 l 229 852 q 208 825 187 804 q 165 783 151 771 l 151 771 l 62 771 l 62 784 q 77 803 96 831 q 114 858 132 886 q 149 913 157 931 l 157 931 z"},"Ë":{"ha":439,"x_min":65,"x_max":394,"o":"m 394 130 l 394 0 l 65 0 l 65 714 l 394 714 l 394 585 l 216 585 l 216 434 l 381 434 l 381 305 l 216 305 l 216 130 l 394 130 z m 74 850 l 74 850 q 74 885 92 903 q 110 921 139 921 l 139 921 q 169 921 187 902 q 205 883 205 850 l 205 850 q 205 818 187 799 q 169 780 139 780 l 139 780 q 110 780 92 799 q 74 817 74 850 z m 251 850 l 251 850 q 251 885 269 903 q 287 921 316 921 l 316 921 q 348 921 366 902 q 383 883 383 850 l 383 850 q 383 818 366 799 q 348 780 316 780 l 316 780 q 286 780 269 799 q 251 818 251 850 z"},"Ė":{"ha":439,"x_min":65,"x_max":394,"o":"m 394 130 l 394 0 l 65 0 l 65 714 l 394 714 l 394 585 l 216 585 l 216 434 l 381 434 l 381 305 l 216 305 l 216 130 l 394 130 z m 230 933 l 230 933 q 270 933 289 913 q 307 893 307 854 l 307 854 q 307 815 288 796 q 268 776 230 776 l 230 776 q 191 776 172 796 q 152 815 152 854 l 152 854 q 152 894 171 914 q 189 933 230 933 z"},"È":{"ha":439,"x_min":65,"x_max":394,"o":"m 394 130 l 394 0 l 65 0 l 65 714 l 394 714 l 394 585 l 216 585 l 216 434 l 381 434 l 381 305 l 216 305 l 216 130 l 394 130 z m 72 931 l 235 931 q 245 911 260 882 q 275 853 290 826 q 305 799 315 784 l 315 784 l 315 771 l 211 771 q 198 782 179 802 q 160 822 139 845 q 117 868 100 888 q 82 908 72 921 l 72 921 l 72 931 z"},"Ē":{"ha":439,"x_min":65,"x_max":394,"o":"m 394 130 l 394 0 l 65 0 l 65 714 l 394 714 l 394 585 l 216 585 l 216 434 l 381 434 l 381 305 l 216 305 l 216 130 l 394 130 z m 87 891 l 372 891 l 372 785 l 87 785 l 87 891 z"},"Ę":{"ha":439,"x_min":65,"x_max":399,"o":"m 394 130 l 394 0 l 65 0 l 65 714 l 394 714 l 394 585 l 216 585 l 216 434 l 381 434 l 381 305 l 216 305 l 216 130 l 394 130 z m 320 -102 l 320 -102 q 320 -120 331 -132 q 342 -145 361 -145 l 361 -145 q 375 -145 384 -141 q 392 -138 399 -135 l 399 -135 l 399 -228 q 388 -232 371 -236 q 353 -241 330 -241 l 330 -241 q 269 -241 240 -211 q 210 -181 210 -130 l 210 -130 q 210 -105 220 -79 q 230 -53 250 -29 q 270 -6 300 14 l 300 14 l 375 0 q 344 -33 332 -56 q 320 -79 320 -102 z"},"F":{"ha":434,"x_min":65,"x_max":392,"o":"m 216 280 l 216 0 l 65 0 l 65 714 l 392 714 l 392 585 l 216 585 l 216 409 l 380 409 l 380 280 l 216 280 z"},"G":{"ha":577,"x_min":43,"x_max":522,"o":"m 287 279 l 287 409 l 522 409 l 522 32 q 469 11 417 1 q 365 -10 307 -10 l 307 -10 q 219 -10 160 35 q 101 79 72 162 q 43 244 43 359 l 43 359 q 43 472 78 554 q 113 635 180 680 q 247 724 343 724 l 343 724 q 393 724 438 712 q 482 699 518 679 l 518 679 l 475 555 q 447 574 415 584 q 383 594 348 594 l 348 594 q 303 594 270 567 q 237 540 219 487 q 200 433 200 355 l 200 355 q 200 284 212 232 q 223 179 249 150 q 274 121 312 121 l 312 121 q 331 121 344 124 q 356 126 371 130 l 371 130 l 371 279 l 287 279 z"},"Ğ":{"ha":577,"x_min":43,"x_max":522,"o":"m 287 279 l 287 409 l 522 409 l 522 32 q 469 11 417 1 q 365 -10 307 -10 l 307 -10 q 219 -10 160 35 q 101 79 72 162 q 43 244 43 359 l 43 359 q 43 472 78 554 q 113 635 180 680 q 247 724 343 724 l 343 724 q 393 724 438 712 q 482 699 518 679 l 518 679 l 475 555 q 447 574 415 584 q 383 594 348 594 l 348 594 q 303 594 270 567 q 237 540 219 487 q 200 433 200 355 l 200 355 q 200 284 212 232 q 223 179 249 150 q 274 121 312 121 l 312 121 q 331 121 344 124 q 356 126 371 130 l 371 130 l 371 279 l 287 279 z m 395 944 l 480 944 q 480 892 458 853 q 436 813 401 792 q 365 771 322 771 l 322 771 q 256 771 211 815 q 166 859 166 944 l 166 944 l 252 944 q 252 919 261 905 q 270 890 286 883 q 302 875 322 875 l 322 875 q 343 875 359 882 q 375 888 385 904 q 395 919 395 944 l 395 944 z"},"Ģ":{"ha":577,"x_min":43,"x_max":522,"o":"m 287 279 l 287 409 l 522 409 l 522 32 q 469 11 417 1 q 365 -10 307 -10 l 307 -10 q 219 -10 160 35 q 101 79 72 162 q 43 244 43 359 l 43 359 q 43 472 78 554 q 113 635 180 680 q 247 724 343 724 l 343 724 q 393 724 438 712 q 482 699 518 679 l 518 679 l 475 555 q 447 574 415 584 q 383 594 348 594 l 348 594 q 303 594 270 567 q 237 540 219 487 q 200 433 200 355 l 200 355 q 200 284 212 232 q 223 179 249 150 q 274 121 312 121 l 312 121 q 331 121 344 124 q 356 126 371 130 l 371 130 l 371 279 l 287 279 z m 403 -61 l 403 -72 q 395 -96 386 -122 q 376 -148 364 -173 q 352 -198 339 -221 l 339 -221 l 244 -221 l 244 -208 q 248 -190 253 -163 q 257 -137 261 -109 q 264 -82 265 -61 l 265 -61 l 403 -61 z"}}}
